<svg xmlns="http://www.w3.org/2000/svg" xmlns:xlink="http://www.w3.org/1999/xlink" viewBox="0 0 151.72 193.76"><defs><style>.cls-1,.cls-14,.cls-16{fill:none;}.cls-2{isolation:isolate;}.cls-3{fill:#ccaa93;}.cls-4{fill:#633333;}.cls-5{fill:#192b47;}.cls-6{fill:#e8605a;}.cls-7{clip-path:url(#clip-path);}.cls-8{fill:#c14444;}.cls-9{fill:#f0ac38;}.cls-10{fill:#486b9f;mix-blend-mode:multiply;opacity:0.3;}.cls-11{clip-path:url(#clip-path-2);}.cls-12{fill:#7e4c4b;}.cls-13{fill:#ae7f7d;}.cls-14{stroke:#633333;stroke-width:0.75px;}.cls-14,.cls-16{stroke-miterlimit:10;}.cls-15{fill:#edc0c0;}.cls-16{stroke:#192b47;}.cls-17{fill:#c94141;}.cls-18{fill:#b7957d;}.cls-19{clip-path:url(#clip-path-3);}.cls-20{clip-path:url(#clip-path-4);}</style><clipPath id="clip-path"><path class="cls-1" d="M45.68,159.74c2.28.42,1.13,6.77,1.13,6.77s.93,1.12,2,2.25-.2,4.62,0,5.44,1.75,4.21,1.44,5.34,1.44,5,1.64,6.15-4.41,4.11-7.18,4S38,189.38,38.09,188s.11-5.13-.82-5.44a4.76,4.76,0,0,1-2.56-3.28c-.11-1.34.1-4.72-.82-5.34s-3.59-2.25-3.18-3.9-2.8-5-2.16-6.46S35.32,157.79,45.68,159.74Z"/></clipPath><clipPath id="clip-path-2"><path class="cls-1" d="M114.3,159.94c-4.1.24-8.52,4.21-8.72,5.34s1.44,4.71,1.54,6.1-1.23,2.39-.93,3.53,2.47,2.88,2.77,3.91-1.23,3-.82,4,1.63,2.56,1.79,3.28.19,4.9,1.29,5,4.72-1.73,8-2.55,2.47-1.14,2-2.57.41-3.18-.2-5.85,1.17-3.06.69-5.68.13-5.6.08-8.43S121.38,159.53,114.3,159.94Z"/></clipPath><clipPath id="clip-path-3"><path class="cls-1" d="M28.21,159.74c2.28.42,1.13,6.77,1.13,6.77s.92,1.12,2.05,2.25-.2,4.62,0,5.44,1.75,4.21,1.44,5.34,1.44,5,1.64,6.15-4.41,4.11-7.18,4-6.77-.31-6.67-1.74.1-5.13-.82-5.44a4.76,4.76,0,0,1-2.56-3.28c-.11-1.34.1-4.72-.83-5.34s-3.59-2.25-3.18-3.9-2.79-5-2.15-6.46S17.85,157.79,28.21,159.74Z"/></clipPath><clipPath id="clip-path-4"><path class="cls-1" d="M97.05,159.94c-4.1.24-8.51,4.21-8.72,5.34s1.44,4.71,1.54,6.1-1.23,2.39-.92,3.53,2.46,2.88,2.77,3.91-1.23,3-.82,4,1.62,2.56,1.78,3.28.19,4.9,1.29,5,4.72-1.73,8-2.55,2.46-1.14,2-2.57.41-3.18-.21-5.85,1.17-3.06.69-5.68.13-5.6.08-8.43S104.13,159.53,97.05,159.94Z"/></clipPath></defs><g class="cls-2"><g id="Слой_2" data-name="Слой 2"><g id="OBJECTS"><path class="cls-3" d="M102.46,44.64s-3-16.1-3.69-20.1S92.35,6.72,92.1,6.14a1.64,1.64,0,0,0-3,1.26c1.22,2.92,4,9.74,5.47,14.25a20.21,20.21,0,0,0-3.29-1.4.83.83,0,0,0-.22-.08c-1.9-.64-4-1.16-6.23-1.7-1.26-.31-2.54-.63-3.85-1-4-2.28-5-9.84-5-12.59a1.65,1.65,0,1,0-3.29,0A27.78,27.78,0,0,0,75.1,15.62C66.33,11.69,61.78,1.12,61.73,1a1.64,1.64,0,0,0-3,1.28c.23.54,5.75,13.45,17.11,17.13,1.38.45,2.74.84,4.07,1.19h0c1.31.35,2.56.66,3.75,1l-.55.29a24.58,24.58,0,0,1-7.79,3c-7.74,1.57-15.06-3.44-15.18-3.53A1.64,1.64,0,1,0,58.25,24a26.67,26.67,0,0,0,13.93,4.44A19.15,19.15,0,0,0,76,28.08a28.1,28.1,0,0,0,8.73-3.34C86.78,23.59,88,23,90.12,23.33c3.51,1.18,5.56,2.58,6,5.18h0c1.12,6.14,3.07,16.72,3.07,16.72Z"/><path class="cls-3" d="M106.81,44.64s3-16.1,3.69-20.1,6.43-17.82,6.67-18.4a1.64,1.64,0,0,1,3,1.26c-1.21,2.92-4,9.74-5.47,14.25a20.6,20.6,0,0,1,3.29-1.4.83.83,0,0,1,.22-.08c1.91-.64,4-1.16,6.24-1.7,1.25-.31,2.53-.63,3.84-1,4-2.28,5-9.84,5-12.59a1.64,1.64,0,1,1,3.28,0,27.78,27.78,0,0,1-2.47,10.67C143,11.69,147.49,1.12,147.54,1a1.64,1.64,0,0,1,3,1.28c-.23.54-5.76,13.45-17.12,17.13-1.38.45-2.74.84-4.06,1.19h0c-1.3.35-2.56.66-3.75,1,.19.09.37.19.55.29a24.66,24.66,0,0,0,7.8,3c7.73,1.57,15-3.44,15.17-3.53A1.64,1.64,0,1,1,151,24a26.63,26.63,0,0,1-13.93,4.44,19.15,19.15,0,0,1-3.79-.37,27.92,27.92,0,0,1-8.72-3.34c-2.08-1.15-3.26-1.78-5.42-1.41-3.51,1.18-5.56,2.58-6,5.18h0L110,45.23Z"/><path class="cls-4" d="M31.29,103.34c-11.35,9.61-7.39,23.81-6,30.78s1.37,11.9,1,12.72-2.88,2.46-3,3.83,18.33,31.19,19.69,43.09h10.4a15,15,0,0,0-4.24-5.33s-6.7-26.68-4.92-33.24,6.56-8.35,13.13-15.05A13.38,13.38,0,0,0,59,138C63.84,132.89,45.51,91.31,31.29,103.34Z"/><path class="cls-5" d="M49.13,188.47a11.38,11.38,0,0,0-6.22,5.29h10.4A15.29,15.29,0,0,0,49.13,188.47Z"/><path class="cls-6" d="M45.68,159.74c2.28.42,1.13,6.77,1.13,6.77s.93,1.12,2,2.25-.2,4.62,0,5.44,1.75,4.21,1.44,5.34,1.44,5,1.64,6.15-4.41,4.11-7.18,4S38,189.38,38.09,188s.11-5.13-.82-5.44a4.76,4.76,0,0,1-2.56-3.28c-.11-1.34.1-4.72-.82-5.34s-3.59-2.25-3.18-3.9-2.8-5-2.16-6.46S35.32,157.79,45.68,159.74Z"/><g class="cls-7"><path class="cls-8" d="M25,170.26a37.46,37.46,0,0,0,6.89-1.76,41.27,41.27,0,0,1,6.93-1.71c4.89-.73,9.85-.93,14.69-2a1.5,1.5,0,1,0-.8-2.89c-4.75,1.07-9.64,1.29-14.45,2a39.67,39.67,0,0,0-6.73,1.59,35.53,35.53,0,0,1-6.53,1.8,1.56,1.56,0,0,0-1.5,1.5c0,.73.69,1.61,1.5,1.5Z"/><path class="cls-9" d="M26.29,174.5c2.15-.16,4.11-1.2,6.15-1.8,2.37-.71,4.74-1.4,7.12-2a88.06,88.06,0,0,1,14.33-3c.64-.06.64-1.06,0-1a86.42,86.42,0,0,0-14.12,2.95c-2.38.64-4.75,1.32-7.12,2-1.07.32-2.11.68-3.16,1.07a12.19,12.19,0,0,1-3.2.84c-.63,0-.64,1,0,1Z"/><path class="cls-8" d="M29.77,177.6c4.31-1.34,8.6-2.82,13-3.77,2-.44,4-1,6-1.45a21.76,21.76,0,0,1,6.11-.78,1.5,1.5,0,0,0,0-3c-4.34-.18-8.52,1.43-12.71,2.29-4.49.92-8.87,2.46-13.24,3.81-1.83.57-1,3.47.8,2.9Z"/><path class="cls-8" d="M31.83,182.88a29.24,29.24,0,0,0,6.73-1.55c2.13-.71,4.25-1.38,6.39-2,3.93-1.19,7.94-3,12.12-2.87a1.5,1.5,0,0,0,0-3c-4.33-.17-8.47,1.6-12.53,2.86-2.08.65-4.16,1.27-6.23,2a28,28,0,0,1-6.48,1.63,1.54,1.54,0,0,0-1.5,1.5,1.51,1.51,0,0,0,1.5,1.5Z"/><path class="cls-9" d="M32.76,186.29c3.47.37,6.94-1.11,10.15-2.24,1.71-.61,3.44-1.18,5.16-1.77a25.32,25.32,0,0,1,5.62-1.42c.63-.07.64-1.07,0-1a25,25,0,0,0-5.46,1.31c-1.74.58-3.49,1.17-5.22,1.78-3.24,1.14-6.74,2.71-10.25,2.34-.64-.06-.64.94,0,1Z"/><path class="cls-8" d="M34.4,189.65c8-.87,15.44-4,23.07-6.31,1.84-.56,1.06-3.46-.8-2.89-7.34,2.25-14.58,5.36-22.27,6.2a1.54,1.54,0,0,0-1.5,1.5,1.5,1.5,0,0,0,1.5,1.5Z"/></g><path class="cls-10" d="M45.68,159.74c2.28.42,1.13,6.77,1.13,6.77s.93,1.12,2,2.25-.2,4.62,0,5.44,1.75,4.21,1.44,5.34,1.44,5,1.64,6.15-4.41,4.11-7.18,4S38,189.38,38.09,188s.11-5.13-.82-5.44a4.76,4.76,0,0,1-2.56-3.28c-.11-1.34.1-4.72-.82-5.34s-3.59-2.25-3.18-3.9-2.8-5-2.16-6.46S35.32,157.79,45.68,159.74Z"/><path class="cls-4" d="M112.48,193.76h11.21a15,15,0,0,0-4.24-5.33S117,172.76,122,149.78s11.56-38.78,7.86-45.14-22.36-1.23-24.41,11.7,2.6,23-4.65,31.5C100.83,147.84,110.86,162.64,112.48,193.76Z"/><path class="cls-5" d="M119.49,188.47c-4.18,1.25-7,5.29-7,5.29h11.19A15.29,15.29,0,0,0,119.49,188.47Z"/><path class="cls-6" d="M114.3,159.94c-4.1.24-8.52,4.21-8.72,5.34s1.44,4.71,1.54,6.1-1.23,2.39-.93,3.53,2.47,2.88,2.77,3.91-1.23,3-.82,4,1.63,2.56,1.79,3.28.19,4.9,1.29,5,4.72-1.73,8-2.55,2.47-1.14,2-2.57.41-3.18-.2-5.85,1.17-3.06.69-5.68.13-5.6.08-8.43S121.38,159.53,114.3,159.94Z"/><g class="cls-11"><path class="cls-8" d="M103.67,170.88a53.31,53.31,0,0,1,8.78-4.31,22.22,22.22,0,0,1,9.84-1.62,11.05,11.05,0,0,1,4.79,1.72,1.52,1.52,0,0,0,2.06-.54,1.53,1.53,0,0,0-.54-2c-6.53-4.28-15-1.59-21.41,1.49-1.72.83-3.39,1.75-5,2.72a1.5,1.5,0,0,0,1.52,2.59Z"/><path class="cls-9" d="M102.43,173.35c3.67-1,7.15-2.68,10.95-3.17a41.39,41.39,0,0,1,12,.09c.63.1.9-.86.26-1a42.12,42.12,0,0,0-12.23-.13c-3.9.5-7.45,2.19-11.22,3.2a.5.5,0,0,0,.27,1Z"/><path class="cls-8" d="M104.39,176.21a31.55,31.55,0,0,1,10.15-2.34,47.48,47.48,0,0,1,10.54.34,1.55,1.55,0,0,0,1.85-1.05,1.51,1.51,0,0,0-1.05-1.84c-7.63-1.14-15.86-.84-23,2.3a1.53,1.53,0,0,0-.54,2.06,1.55,1.55,0,0,0,2.06.53Z"/><path class="cls-8" d="M106.18,182.21c5.69-2.13,12-4.75,18.18-3.79a1.56,1.56,0,0,0,1.85-1,1.51,1.51,0,0,0-1-1.85c-6.85-1.06-13.47,1.43-19.77,3.8a1.54,1.54,0,0,0-1,1.85,1.51,1.51,0,0,0,1.84,1Z"/><path class="cls-9" d="M104.89,185.56c6.73-2.32,13.48-4.78,20.69-4.81a.5.5,0,0,0,0-1c-7.3,0-14.14,2.5-21,4.84-.61.21-.35,1.18.26,1Z"/><path class="cls-8" d="M108.29,189c6.15-2.92,12.85-5.3,19.76-5a1.5,1.5,0,0,0,0-3c-7.44-.29-14.65,2.3-21.28,5.44a1.51,1.51,0,0,0-.54,2.05,1.54,1.54,0,0,0,2.06.54Z"/></g><path class="cls-10" d="M114.3,159.94c-4.1.24-8.52,4.21-8.72,5.34s1.44,4.71,1.54,6.1-1.23,2.39-.93,3.53,2.47,2.88,2.77,3.91-1.23,3-.82,4,1.63,2.56,1.79,3.28.19,4.9,1.29,5,4.72-1.73,8-2.55,2.47-1.14,2-2.57.41-3.18-.2-5.85,1.17-3.06.69-5.68.13-5.6.08-8.43S121.38,159.53,114.3,159.94Z"/><path class="cls-3" d="M22.36,102.69s3-9.1-.53-15.74C16,76.08,7.69,77.87,4.62,73.15c0,0-5.65,9.44-.93,20A17.71,17.71,0,0,1,0,85.36S.62,106.7,22.36,102.69Z"/><path class="cls-4" d="M21.83,87C16,76.08,7.69,77.87,4.62,73.15c0,0-3.08,11.49,2.87,22,3.68,6.53,8.48,7.85,11.63,7.91a31,31,0,0,0,3.24-.42S25.39,93.59,21.83,87Z"/><path class="cls-4" d="M116.85,50.23c15.86-7.86,9.84-20.89,9.84-20.89a29.33,29.33,0,0,0-9.85,3.5c-4.31,2.68-7.84,9.57-7.84,9.57Z"/><path class="cls-12" d="M134.19,50.82c-4.38-2-14.91-8.07-21.61-9.58s-18.88,3-18.88,3-5.47-5.47-10.4-6.7a29.45,29.45,0,0,0-10.44-.3S71.13,51.5,88.64,54.1c0,0-3.69,21.61-6.43,26.26S67.3,93,53.62,93s-30.37-1.1-39.8,10.39-7.39,23.81-6,30.78,1.36,11.9,1,12.72-2.87,2.46-3,3.83,18.32,31.19,19.69,43.09h10.4a15,15,0,0,0-4.24-5.33s-6.7-26.68-4.93-33.24,6.57-8.35,13.14-15.05A14.62,14.62,0,0,0,41.49,138c15,1.84,33.13,7,55.63,5.55,29.41-1.92,30.91-25.58,31.46-39s-4.79-30.09-4.79-30.09c9.65-1.48,19.84-4.65,21.62-5.61S149.24,62,149.24,60,138.57,52.87,134.19,50.82Z"/><path class="cls-13" d="M128.51,99c-8.45-3.15-15.24,6.66-18.94,12.78-4,6.57-13.68,8.21-30.64,10.67a104.79,104.79,0,0,1-32.22-.65h0c-.79,5-2.32,11.74-5.22,16.17h0c15,1.84,33.13,7,55.63,5.55,29.41-1.92,30.91-25.58,31.46-39A54,54,0,0,0,128.51,99Z"/><path class="cls-14" d="M47.47,115.34s-.91,14.9-6,22.67"/><path class="cls-4" d="M52.75,124.1c.29-1,.54-2,.82-3a.37.37,0,0,0-.72-.2c-.29,1-.54,2-.82,3a.37.37,0,0,0,.72.2Z"/><path class="cls-4" d="M54.63,124.33a18.74,18.74,0,0,0,.72-3.24.37.37,0,0,0-.72-.2,12.18,12.18,0,0,0-.29,1.6c0,.26-.08.53-.14.79A4,4,0,0,1,54,124a.38.38,0,0,0,.65.38Z"/><path class="cls-4" d="M66.94,125a5,5,0,0,0,.49-1.45c.12-.51.21-1,.37-1.51a.37.37,0,0,0-.26-.46.37.37,0,0,0-.46.26,14.81,14.81,0,0,0-.36,1.46,6.17,6.17,0,0,1-.19.74,2.42,2.42,0,0,1-.12.35s0-.05,0,0l0,.07a1.09,1.09,0,0,1-.08.15.38.38,0,0,0,.65.38Z"/><path class="cls-4" d="M76.64,120.85c.13,1.05.14,2.1.27,3.15a.39.39,0,0,0,.38.37c.18,0,.4-.17.37-.37-.13-1-.14-2.1-.27-3.15a.39.39,0,0,0-.38-.37c-.18,0-.4.17-.37.37Z"/><path class="cls-4" d="M78.19,121.18a4.22,4.22,0,0,1,.33,1.4c.07.56.1,1.13.17,1.69a.38.38,0,1,0,.75,0c-.07-.59-.11-1.2-.18-1.79a5.13,5.13,0,0,0-.42-1.68.38.38,0,0,0-.65.38Z"/><path class="cls-15" d="M91.38,45.89s-6.43-6.6-15.74-6.1c0,0-.27,10.34,13.27,12.26C88.91,52.05,89.32,46.58,91.38,45.89Z"/><path class="cls-5" d="M31.66,188.47a11.38,11.38,0,0,0-6.22,5.29h10.4A15.29,15.29,0,0,0,31.66,188.47Z"/><path class="cls-5" d="M148.49,63.45c-1,.23-6-.88-9.48-3s-3.79-4.31-2.15-5.44,10.56-1.57,13.13-.48S152.43,62.5,148.49,63.45Z"/><path class="cls-16" d="M148.49,63.45a16.65,16.65,0,0,1-2.78,5.21s-5,2-8.37.49c-4.31-1.92-3.07-5.2-3.07-5.2"/><circle class="cls-5" cx="120.1" cy="59.78" r="1.5"/><path class="cls-5" d="M132,56.09a1.51,1.51,0,1,1-3,0,1.51,1.51,0,0,1,3,0Z"/><path class="cls-17" d="M117.53,64.49a5.82,5.82,0,1,1-5.82-5.81A5.82,5.82,0,0,1,117.53,64.49Z"/><path class="cls-12" d="M95.23,193.76h11.22a15.11,15.11,0,0,0-4.24-5.33s-2.42-15.67,2.57-38.65,11.56-38.78,7.87-45.14-22.37-1.23-24.42,11.7,2.6,23-4.65,31.5C83.58,147.84,93.61,162.64,95.23,193.76Z"/><path class="cls-5" d="M102.25,188.47c-4.18,1.25-7,5.29-7,5.29h11.19A15.21,15.21,0,0,0,102.25,188.47Z"/><path class="cls-8" d="M53.66,114.7c18,4.92,30.77-4.52,33.65-13.44,2.18-6.78-2.09-17.81-4.27-22.73a11.62,11.62,0,0,1-.83,1.83C79.47,85,67.3,93,53.62,93c-6,0-12.56-.21-18.85.52C35.69,98.4,39.39,110.79,53.66,114.7Z"/><path class="cls-6" d="M55.12,110.26c14.47,4,24.81-3.64,27.13-10.83,1.49-4.63-.74-11.7-2.53-16.17-4.88,4.46-15,9.69-26.1,9.69-4.39,0-9.08-.11-13.75.11C40.59,97,43.53,107.09,55.12,110.26Z"/><polygon class="cls-9" points="52.8 97.95 53.72 99.63 55.39 100.54 53.72 101.45 52.8 103.13 51.89 101.45 50.21 100.54 51.89 99.63 52.8 97.95"/><polygon class="cls-9" points="60.06 95.46 60.5 96.27 61.3 96.71 60.5 97.15 60.06 97.96 59.62 97.15 58.81 96.71 59.62 96.27 60.06 95.46"/><polygon class="cls-9" points="78.52 93.22 78.96 94.03 79.76 94.47 78.96 94.91 78.52 95.72 78.08 94.91 77.27 94.47 78.08 94.03 78.52 93.22"/><polygon class="cls-9" points="64.97 98.47 66.51 101.27 69.31 102.8 66.51 104.33 64.97 107.14 63.44 104.33 60.64 102.8 63.44 101.27 64.97 98.47"/><polygon class="cls-9" points="71.68 91.26 72.52 92.79 74.05 93.63 72.52 94.47 71.68 96 70.84 94.47 69.31 93.63 70.84 92.79 71.68 91.26"/><polygon class="cls-9" points="74.96 99.51 75.54 100.57 76.61 101.16 75.54 101.74 74.96 102.8 74.38 101.74 73.31 101.16 74.38 100.57 74.96 99.51"/><polygon class="cls-9" points="45.55 94.47 46.09 95.46 47.08 96 46.09 96.54 45.55 97.53 45.01 96.54 44.02 96 45.01 95.46 45.55 94.47"/><path class="cls-3" d="M123.79,74.48c-7.11.69-25.16-3.21-35.15-20.38,0,0-5.34,7.11-7,11.9s1.85,2.6,1.85,2.6-6.5,10.26-6.22,14a5,5,0,0,0,3.55,4.52s-1.78,6-.82,9.71,4.52,1.65,4.52,1.65.41,8.74,3.83,10.11a4.19,4.19,0,0,0,5.19-1.37s.79,5.85,4.65,8.17A4,4,0,0,0,104.1,114s.82,6.3,5.19,7.94,7-3.15,7-3.15,1.64,5.2,6.43,6,6.57-7.52,6.57-7.52.82,1.91,2.18.82,2.6-15.32,0-23c0,0,2.06,2.87,3,1S123.79,74.48,123.79,74.48Z"/><path class="cls-18" d="M82.88,69c2.39-1.48,5.68-3.1,5.6-6.37a.26.26,0,0,0-.25-.25c-1.38-.14-2.09,1.43-2.45,2.51a19.71,19.71,0,0,0-.85,5.82A10.22,10.22,0,0,0,85.41,75a3.2,3.2,0,0,0,4.71,1.4,6.86,6.86,0,0,0,3.42-5.63.26.26,0,0,0-.12-.22l-.28-.13a.26.26,0,0,0-.3,0A11.07,11.07,0,0,0,90.26,76a9.5,9.5,0,0,0,.55,6.2,4.31,4.31,0,0,0,4.46,2.26,9.31,9.31,0,0,0,5.27-3c1.38-1.45,2.67-3.51,2.29-5.6a.24.24,0,0,0-.36-.15c-2,1-2.58,3.61-2.79,5.63a16.71,16.71,0,0,0,1,7.86c.76,1.88,2.25,3.65,4.49,3.41s4.13-2.46,5.17-4.41,2.15-5.3.67-7.48a.25.25,0,0,0-.45.06,20.21,20.21,0,0,0-.94,5.51c-.09,1.88,0,4.09,1,5.75a3.19,3.19,0,0,0,4.13,1.24c1.68-.8,2.58-2.76,3.12-4.44a12.79,12.79,0,0,0,.57-6.28.26.26,0,0,0-.37-.15c-1.71,1-1.73,3.65-1.63,5.35a16.32,16.32,0,0,0,1.85,7c.8,1.41,2.42,2.74,4.11,2s2.48-3,2.85-4.74c.43-1.94.72-4.7-.55-6.42a.26.26,0,0,0-.43,0A4,4,0,0,0,124,88a13,13,0,0,0,1,3.33c.8,1.78,2.13,4.21,4.13,4.85a2.23,2.23,0,0,0,2.47-.89c.2-.25-.15-.6-.35-.35-1.27,1.61-2.9.47-3.94-.77a13.34,13.34,0,0,1-2.75-5.73,4,4,0,0,1,.1-2.64h-.43c1,1.37.9,3.49.67,5.08s-.79,3.81-2.16,5-3,.33-3.81-1A14.34,14.34,0,0,1,117,88.78a12.35,12.35,0,0,1,0-3.54,3.19,3.19,0,0,1,1.27-2.34l-.37-.14a11.44,11.44,0,0,1-.28,5,8.54,8.54,0,0,1-2.51,4.77,2.74,2.74,0,0,1-4.11-.65,9.64,9.64,0,0,1-.93-5.3A19.52,19.52,0,0,1,111,81l-.46.06c1.2,1.76.53,4.33-.26,6.12-.86,2-2.36,4.18-4.49,4.86s-3.68-.75-4.51-2.52a15.61,15.61,0,0,1-1.22-7c.08-2.12.5-5.18,2.62-6.28l-.37-.15c.31,1.71-.71,3.45-1.78,4.7a9.6,9.6,0,0,1-4.68,3.11,3.92,3.92,0,0,1-4.49-1.6,8.37,8.37,0,0,1-.72-5.72,10.74,10.74,0,0,1,2.51-5.71l-.3,0c.06,0,.19.06.23.11S93,70.86,93,71a3.07,3.07,0,0,1-.08.67,5.82,5.82,0,0,1-.51,1.45,7.49,7.49,0,0,1-1.77,2.26,4,4,0,0,1-2.4,1.07,2.67,2.67,0,0,1-2.35-1.56,8.31,8.31,0,0,1-.51-3.77A22.56,22.56,0,0,1,86,65.91c.25-1,.8-3.23,2.24-3.08L88,62.58c.07,3.06-3.13,4.56-5.35,5.94-.27.17,0,.6.25.43Z"/><path class="cls-18" d="M80.3,87.32c2.17.27,5.79-.85,5.72-3.54a.25.25,0,0,0-.43-.17c-1.23,1.27-1.51,3.31-1.61,5a11.52,11.52,0,0,0,.71,5.33c1.63,3.51,6.81,1.66,8-1.22.17-.43.71-1.68.22-2.09s-.92.32-1.12.61a7.32,7.32,0,0,0-1,3.1,32.75,32.75,0,0,0-.26,4.08,16.05,16.05,0,0,0,.47,4.37c.29,1.09.8,2.59,2,3,1.68.59,3.23-1.41,4-2.6,1.3-2,2.61-4.55,2.51-7a.26.26,0,0,0-.43-.18c-2.69,2.92-1.85,7.84,1,10.35a4.91,4.91,0,0,0,4.76,1.16c2.08-.66,3.73-2.63,4.83-4.44a3.75,3.75,0,0,0,.71-2.88c-.16-.6-.62-1-1.19-.55A5.52,5.52,0,0,0,108,102a7.27,7.27,0,0,0-.24,2.67,11.06,11.06,0,0,0,1.92,6.4,3.17,3.17,0,0,0,4.2,1c1.8-1,2.87-3.21,3.58-5.08s1.33-4,.87-5.86a.25.25,0,0,0-.42-.11c-1.51,1.29-1.62,3.64-1.43,5.46a12.28,12.28,0,0,0,2.3,6.2c1.05,1.33,2.69,2.17,4.34,1.36s2.53-2.85,2.93-4.57.53-4.31-.81-5.85a.25.25,0,0,0-.39,0c-.93,2-.52,4.47.12,6.52a20,20,0,0,0,4.16,7.32c.21.24.57-.11.35-.35a19.64,19.64,0,0,1-4-6.94c-.62-1.94-1.11-4.36-.22-6.3l-.39.05c1.07,1.24,1.05,3.23.8,4.75a7.28,7.28,0,0,1-2.26,4.53,2.87,2.87,0,0,1-4.07-.65,11.15,11.15,0,0,1-2.29-5.48c-.3-1.84-.38-4.41,1.2-5.75l-.42-.11a8.68,8.68,0,0,1-.44,4.31,13.57,13.57,0,0,1-2.34,4.76c-.86,1.06-2.15,2.08-3.59,1.56-1.79-.65-2.53-2.92-2.9-4.59a9.94,9.94,0,0,1-.06-5.22,9.47,9.47,0,0,1,.5-1.13c.12-.21.41-.87.69-.92s.35.63.35.85a3.08,3.08,0,0,1-.42,1.46c-1.52,3-5.09,6.53-8.57,4.18-3.11-2.11-4.19-7.21-1.54-10.07l-.43-.18a11,11,0,0,1-1.64,5.37c-.73,1.35-1.75,3.17-3.3,3.7-2.38.83-2.9-3.81-3-5.23a28,28,0,0,1,.14-5A8.93,8.93,0,0,1,92,91.88a4.28,4.28,0,0,1,.52-.74c.14-.14.06-.14.07-.06a2,2,0,0,1-.1.64,4.73,4.73,0,0,1-3.14,3.36,3.34,3.34,0,0,1-4-1,5.8,5.8,0,0,1-.69-2.23,14.51,14.51,0,0,1-.15-2.87c.06-1.64.28-3.72,1.47-5l-.42-.18c.06,2.4-3.34,3.28-5.22,3-.32,0-.32.46,0,.5Z"/><path class="cls-6" d="M28.21,159.74c2.28.42,1.13,6.77,1.13,6.77s.92,1.12,2.05,2.25-.2,4.62,0,5.44,1.75,4.21,1.44,5.34,1.44,5,1.64,6.15-4.41,4.11-7.18,4-6.77-.31-6.67-1.74.1-5.13-.82-5.44a4.76,4.76,0,0,1-2.56-3.28c-.11-1.34.1-4.72-.83-5.34s-3.59-2.25-3.18-3.9-2.79-5-2.15-6.46S17.85,157.79,28.21,159.74Z"/><g class="cls-19"><path class="cls-8" d="M7.49,170.26a37.46,37.46,0,0,0,6.89-1.76,41.27,41.27,0,0,1,6.93-1.71c4.89-.73,9.85-.93,14.69-2a1.5,1.5,0,1,0-.8-2.89c-4.76,1.07-9.64,1.29-14.45,2A40,40,0,0,0,14,165.46a35.21,35.21,0,0,1-6.52,1.8,1.56,1.56,0,0,0-1.5,1.5c0,.73.69,1.61,1.5,1.5Z"/><path class="cls-9" d="M8.82,174.5c2.15-.16,4.11-1.2,6.15-1.8,2.37-.71,4.74-1.4,7.12-2a88.06,88.06,0,0,1,14.33-3c.64-.06.64-1.06,0-1a86.42,86.42,0,0,0-14.12,2.95c-2.38.64-4.75,1.32-7.12,2-1.07.32-2.12.68-3.16,1.07a12.29,12.29,0,0,1-3.2.84c-.64,0-.64,1,0,1Z"/><path class="cls-8" d="M12.3,177.6c4.31-1.34,8.6-2.82,13-3.77,2-.44,4-1,6-1.45a21.76,21.76,0,0,1,6.11-.78,1.5,1.5,0,1,0,0-3c-4.35-.18-8.52,1.43-12.71,2.29-4.49.92-8.87,2.46-13.24,3.81-1.84.57-1.05,3.47.8,2.9Z"/><path class="cls-8" d="M14.36,182.88a29.24,29.24,0,0,0,6.73-1.55c2.13-.71,4.25-1.38,6.39-2,3.93-1.19,7.94-3,12.12-2.87a1.5,1.5,0,0,0,0-3c-4.33-.17-8.47,1.6-12.53,2.86-2.08.65-4.16,1.27-6.23,2a28,28,0,0,1-6.48,1.63,1.54,1.54,0,0,0-1.5,1.5,1.51,1.51,0,0,0,1.5,1.5Z"/><path class="cls-9" d="M15.29,186.29c3.47.37,6.94-1.11,10.15-2.24,1.71-.61,3.44-1.18,5.16-1.77a25.37,25.37,0,0,1,5.61-1.42c.64-.07.65-1.07,0-1a25,25,0,0,0-5.45,1.31c-1.74.58-3.49,1.17-5.22,1.78-3.24,1.14-6.74,2.71-10.25,2.34-.64-.06-.64.94,0,1Z"/><path class="cls-8" d="M16.93,189.65c8-.87,15.44-4,23.07-6.31,1.84-.56,1-3.46-.8-2.89-7.34,2.25-14.58,5.36-22.27,6.2a1.54,1.54,0,0,0-1.5,1.5,1.5,1.5,0,0,0,1.5,1.5Z"/></g><path class="cls-6" d="M97.05,159.94c-4.1.24-8.51,4.21-8.72,5.34s1.44,4.71,1.54,6.1-1.23,2.39-.92,3.53,2.46,2.88,2.77,3.91-1.23,3-.82,4,1.62,2.56,1.78,3.28.19,4.9,1.29,5,4.72-1.73,8-2.55,2.46-1.14,2-2.57.41-3.18-.21-5.85,1.17-3.06.69-5.68.13-5.6.08-8.43S104.13,159.53,97.05,159.94Z"/><g class="cls-20"><path class="cls-8" d="M86.42,170.88a53.31,53.31,0,0,1,8.78-4.31A22.22,22.22,0,0,1,105,165a11.14,11.14,0,0,1,4.8,1.72,1.51,1.51,0,0,0,2-.54,1.52,1.52,0,0,0-.54-2c-6.53-4.28-15-1.59-21.41,1.49-1.72.83-3.39,1.75-5,2.72a1.5,1.5,0,0,0,1.51,2.59Z"/><path class="cls-9" d="M85.18,173.35c3.67-1,7.15-2.68,10.95-3.17a41.39,41.39,0,0,1,12,.09c.63.1.9-.86.27-1a42.19,42.19,0,0,0-12.24-.13c-3.9.5-7.45,2.19-11.21,3.2a.5.5,0,0,0,.26,1Z"/><path class="cls-8" d="M87.14,176.21a31.67,31.67,0,0,1,10.16-2.34,47.52,47.52,0,0,1,10.54.34,1.54,1.54,0,0,0,1.84-1.05,1.5,1.5,0,0,0-1.05-1.84c-7.63-1.14-15.86-.84-23,2.3a1.51,1.51,0,0,0-.54,2.06,1.53,1.53,0,0,0,2,.53Z"/><path class="cls-8" d="M88.94,182.21c5.68-2.13,12-4.75,18.18-3.79a1.55,1.55,0,0,0,1.84-1,1.51,1.51,0,0,0-1-1.85c-6.85-1.06-13.46,1.43-19.77,3.8a1.54,1.54,0,0,0-1,1.85,1.51,1.51,0,0,0,1.85,1Z"/><path class="cls-9" d="M87.64,185.56c6.74-2.32,13.48-4.78,20.7-4.81a.5.5,0,0,0,0-1c-7.31,0-14.14,2.5-21,4.84-.61.21-.35,1.18.26,1Z"/><path class="cls-8" d="M91,189c6.15-2.92,12.85-5.3,19.76-5a1.5,1.5,0,1,0,0-3c-7.44-.29-14.65,2.3-21.28,5.44A1.5,1.5,0,0,0,89,188.5,1.53,1.53,0,0,0,91,189Z"/></g></g></g></g></svg>