<svg xmlns="http://www.w3.org/2000/svg" viewBox="0 0 422.28 416.12"><defs><style>.cls-1{fill:#284e3c;}.cls-2{fill:#d02b47;}.cls-3{fill:#f03c47;}.cls-4{fill:#46763c;}.cls-5{fill:#5aa83c;}.cls-6{fill:#28693c;}.cls-7{fill:#245b34;}.cls-8{fill:#b21147;}.cls-9{fill:#f05747;}.cls-10{fill:#fff;}.cls-11{fill:#f0dea7;}</style></defs><g id="Слой_2" data-name="Слой 2"><g id="OBJECTS"><path class="cls-1" d="M153.67,190.44s-24.78,3.94-40,22.52C85,225.91,30.91,249,30.91,249l6.19,10.14,130.08-34.35Z"/><path class="cls-2" d="M243.57,107.6s-20-41.94-54-42.59c-4-45.79,38.26-65,38.26-65-25.38,43-1,54.76,21.14,40.45C222.28,74.7,254,78.33,263.86,73.61c-17.21,11-11.54,30.76-11.54,30.76Z"/><path class="cls-3" d="M203.89,19.06A61.38,61.38,0,0,0,189.6,65a43.66,43.66,0,0,1,18.06,4.4A74.26,74.26,0,0,0,203.89,19.06Z"/><path class="cls-1" d="M390.18,263.93s-6.48,65-24.5,102.76C353.92,391.32,343.12,405.87,337,413a8.87,8.87,0,0,1-11.27,1.88C302.49,401.15,220,352.7,204.07,346.42,198.44,347,174.22,374,174.22,374s9.58-.56,19.15-1.68-20.27,31.53-38.86,37.72c-15.76-37.16-1.69-56.31-1.69-56.31l10.7,12.39,32.77-31.28a9.91,9.91,0,0,1,10.13-2.17L312,369.89a5.56,5.56,0,0,0,7.11-3.46l24.1-71.25Z"/><path class="cls-4" d="M319.06,366.43a5.55,5.55,0,0,1-5.22,3.77c9.18,5.67,17.78,6.78,27.64-10.9C355.07,334.93,363,295.08,363,295.08L341.2,301Z"/><path class="cls-4" d="M193.37,372.33c-9.57,1.12-19.15,1.68-19.15,1.68s3-3.35,7.14-7.71c-24.11,6.85-27.9,28.89-28.16,40.52.41,1.06.85,2.14,1.31,3.23C173.1,403.86,202.94,371.2,193.37,372.33Z"/><path class="cls-1" d="M243.2,228.17S227.44,249,241,276.6s43.36,23.08,55.19,12.95c-6.76,36.6-2.25,61.38,11.26,59.12-2.82-44.48,2.82-78.83,2.82-78.83l3.94-32.66Z"/><path class="cls-5" d="M147.75,100.91s23.65-8.44,27.88-4.22-21.12,18.58-21.12,18.58Z"/><path class="cls-5" d="M151.13,125.41S174.78,117,179,121.18s-21.12,18.59-21.12,18.59Z"/><path class="cls-5" d="M154.69,152.62s19.2-16.2,24.63-13.72-13.27,24.8-13.27,24.8Z"/><path class="cls-5" d="M193.61,148.4s-5.21-24.57-.46-28.19,15.6,23.41,15.6,23.41Z"/><path class="cls-5" d="M209.66,129s-5.22-24.56-.47-28.19,15.6,23.41,15.6,23.41Z"/><path class="cls-5" d="M227.4,112.08s-5.22-24.57-.47-28.19,15.6,23.4,15.6,23.4Z"/><path class="cls-5" d="M250.2,92.65s-5.21-24.57-.47-28.19,15.6,23.4,15.6,23.4Z"/><path class="cls-5" d="M285.41,79.06s2.5-26.36,8.42-28.5S302.14,79,302.14,79Z"/><path class="cls-5" d="M310.46,73.47s7.41-25.41,13.63-26.4,2.8,29.51,2.8,29.51Z"/><path class="cls-5" d="M336.05,80.9s15-21.83,21.2-20.83S350.69,89,350.69,89Z"/><path class="cls-5" d="M354.68,93.8s21-16.13,26.6-13.26S366.11,106,366.11,106Z"/><path class="cls-5" d="M367.51,111.9s29.58-9.08,34.55-3.65S375,130,375,130Z"/><path class="cls-5" d="M373.29,131.49s30.78-3.17,34.59,3.12-30.72,16-30.72,16Z"/><path class="cls-5" d="M372.45,159.36s30.77-3.17,34.59,3.12-30.72,16.05-30.72,16.05Z"/><path class="cls-5" d="M373.82,183.59s30.93.87,33.89,7.6-32.55,11.9-32.55,11.9Z"/><path class="cls-5" d="M378.89,213.15s30.93.87,33.89,7.61-32.54,11.9-32.54,11.9Z"/><path class="cls-6" d="M157.89,101.75s16.05,60.81,18.59,65.88c53.21-98,157.11-129.23,199.34-64.19,20.27,37.16,25.34,90.38,8.45,156.26C222.09,227.6,197.59,233.52,152,207.33c-4.22-54.9-16.89-84.47-16.89-84.47Z"/><path class="cls-7" d="M335.85,155.87c-50.15,21.56-60,71.71-60,71.71l113.63,8.5c5.77-31.13,6.32-59,2.51-83.3C384.7,147.27,368.54,141.81,335.85,155.87Z"/><path class="cls-4" d="M337,107.17a84.77,84.77,0,0,0,23.25-21.35C315.65,49,237.36,75.3,188.2,148.31c22.4,3.26,45.43-2.56,67.26-9.19q20.91-6.36,41.5-13.73C310.8,120.43,324.62,115.08,337,107.17Z"/><path class="cls-6" d="M263.67,91.41a3.05,3.05,0,1,1-3.05-3A3,3,0,0,1,263.67,91.41Z"/><circle class="cls-6" cx="273.28" cy="87.19" r="2.58"/><circle class="cls-6" cx="284.06" cy="82.98" r="2.11"/><path class="cls-6" d="M282.89,98.21A1.88,1.88,0,1,1,281,96.33,1.87,1.87,0,0,1,282.89,98.21Z"/><path class="cls-6" d="M293.2,93.29a1.17,1.17,0,0,1-2.34,0,1.17,1.17,0,0,1,2.34,0Z"/><path class="cls-6" d="M297.42,78.29a1.18,1.18,0,1,1-1.17-1.17A1.17,1.17,0,0,1,297.42,78.29Z"/><circle class="cls-6" cx="307.73" cy="90.24" r="2.81"/><path class="cls-6" d="M309.14,79.69a2.58,2.58,0,1,1-2.58-2.57A2.58,2.58,0,0,1,309.14,79.69Z"/><path class="cls-6" d="M256.64,106.18a4.69,4.69,0,1,1-4.69-4.69A4.69,4.69,0,0,1,256.64,106.18Z"/><circle class="cls-6" cx="268.59" cy="104.54" r="4.45"/><path class="cls-6" d="M236,106.41c0,.65-.31,1.17-.7,1.17s-.7-.52-.7-1.17.31-1.17.7-1.17S236,105.77,236,106.41Z"/><path class="cls-6" d="M232.26,115.79c0,1.16-.63,2.11-1.4,2.11s-1.41-1-1.41-2.11.63-2.11,1.41-2.11S232.26,114.62,232.26,115.79Z"/><path class="cls-6" d="M242.57,116c0,.78-.42,1.41-.93,1.41s-.94-.63-.94-1.41.42-1.4.94-1.4S242.57,115.25,242.57,116Z"/><path class="cls-6" d="M251,95.87a1.41,1.41,0,1,1-1.4-1.41A1.4,1.4,0,0,1,251,95.87Z"/><path class="cls-6" d="M323.67,85.79a3.05,3.05,0,1,1-3.05-3.05A3,3,0,0,1,323.67,85.79Z"/><path class="cls-6" d="M304,105.94a2.11,2.11,0,1,1-2.11-2.11A2.1,2.1,0,0,1,304,105.94Z"/><path class="cls-6" d="M321.79,76.88a1.17,1.17,0,1,1-1.17-1.17A1.17,1.17,0,0,1,321.79,76.88Z"/><circle class="cls-6" cx="341.71" cy="92.82" r="2.58"/><path class="cls-6" d="M271.17,125.16a1.64,1.64,0,1,1-1.64-1.64A1.64,1.64,0,0,1,271.17,125.16Z"/><path class="cls-4" d="M228.51,154.46a2.35,2.35,0,1,1-2.34-2.34A2.34,2.34,0,0,1,228.51,154.46Z"/><path class="cls-4" d="M241.17,153.05a2.35,2.35,0,1,1-2.35-2.34A2.35,2.35,0,0,1,241.17,153.05Z"/><circle class="cls-4" cx="206.01" cy="161.49" r="2.81"/><path class="cls-4" d="M221,168.29a2.11,2.11,0,1,1-2.11-2.11A2.11,2.11,0,0,1,221,168.29Z"/><path class="cls-4" d="M252.89,148.13a1.18,1.18,0,1,1-1.18-1.17A1.17,1.17,0,0,1,252.89,148.13Z"/><path class="cls-4" d="M266.48,146a3.28,3.28,0,1,1-3.28-3.28A3.28,3.28,0,0,1,266.48,146Z"/><circle class="cls-4" cx="344.06" cy="109.69" r="0.7"/><path class="cls-4" d="M351.32,105.94a1.17,1.17,0,1,1-1.17-1.17A1.17,1.17,0,0,1,351.32,105.94Z"/><path class="cls-4" d="M363,98a2.58,2.58,0,1,1-2.58-2.58A2.57,2.57,0,0,1,363,98Z"/><path class="cls-4" d="M372.89,108.05a2.35,2.35,0,1,1-2.35-2.34A2.35,2.35,0,0,1,372.89,108.05Z"/><path class="cls-4" d="M353.2,113.21a2.35,2.35,0,1,0,2.34-2.34A2.34,2.34,0,0,0,353.2,113.21Z"/><circle class="cls-4" cx="362.57" cy="124.93" r="0.94"/><path class="cls-1" d="M157.89,101.75l-7.61,7-11.23,25.45a295.49,295.49,0,0,1,8.72,38c7.1-3.26,13.67-23.4,18.12-40.74C161.7,116.16,157.89,101.75,157.89,101.75Z"/><path class="cls-5" d="M356,254.22q14.16.9,29.26,1.46c.29-1.2.58-2.39.86-3.58-17.48-46.91-86.31-44.91-141.23-50.4-41.75-4.18-73.27,4.34-86.78,9C197.42,231.62,225.68,229.47,356,254.22Z"/><path class="cls-6" d="M391.87,247c.74.07,1.62-21.56,1.63-22.72.21-14.75-.27-33.67-9.57-46.06-11.31-15.07-32.18-9.64-47.49-5.31-17.22,4.86-34.5,12.67-47.62,25.1-32.1,30.41-21.12,86.16,15.2,109.81s82.78-1.69,90.38-40.55l5.92-.84s-19.43,73.49,22,85.31c-10.14-81.93-11-103-11-103Z"/><path class="cls-4" d="M348,261.51c-.4-24.91-4.24-50.75-18.17-71.41a48.2,48.2,0,0,0-10.18-11.31c-11.44,4.8-22.31,11.2-30.81,19.25-32.1,30.41-21.12,86.16,15.2,109.81A55,55,0,0,0,335.39,317a62.77,62.77,0,0,0,7.8-15.68C347.48,288.57,348.19,274.93,348,261.51Z"/><path class="cls-1" d="M392.21,247.06c1.55,7.22,1.3,15.52,1.35,22.78,2.15-8.6,9.55-17.16,17.72-21.12Z"/><path class="cls-1" d="M391.76,245.1c.09.34.16.71.24,1.06.05-.33.11-.73.17-1.22Z"/><path class="cls-6" d="M287.13,238a3.66,3.66,0,1,1-3.66-3.66A3.66,3.66,0,0,1,287.13,238Z"/><path class="cls-6" d="M285.72,257.73a3.66,3.66,0,1,1-3.66-3.66A3.66,3.66,0,0,1,285.72,257.73Z"/><path class="cls-6" d="M289.57,249a1.5,1.5,0,1,1-1.5-1.5A1.5,1.5,0,0,1,289.57,249Z"/><circle class="cls-6" cx="276.8" cy="243.37" r="3"/><path class="cls-6" d="M292.57,267.59a1.69,1.69,0,1,1-1.69-1.69A1.68,1.68,0,0,1,292.57,267.59Z"/><circle class="cls-6" cx="295.2" cy="259.14" r="2.63"/><path class="cls-6" d="M286.57,274.72a1.32,1.32,0,1,1-1.32-1.32A1.32,1.32,0,0,1,286.57,274.72Z"/><circle class="cls-6" cx="298.39" cy="277.35" r="3.19"/><path class="cls-6" d="M292.2,227.42a1.69,1.69,0,1,1-1.69-1.69A1.69,1.69,0,0,1,292.2,227.42Z"/><path class="cls-6" d="M300.08,220.1a1.88,1.88,0,1,1-1.88-1.88A1.88,1.88,0,0,1,300.08,220.1Z"/><path class="cls-6" d="M282.44,222a1.51,1.51,0,1,1-1.51-1.5A1.51,1.51,0,0,1,282.44,222Z"/><circle class="cls-6" cx="297.45" cy="238.49" r="2.25"/><path class="cls-6" d="M304.58,252.19a2.06,2.06,0,1,1-2.06-2.06A2.07,2.07,0,0,1,304.58,252.19Z"/><path class="cls-6" d="M292.57,210.52a1.72,1.72,0,1,1-1.69-2.06A1.91,1.91,0,0,1,292.57,210.52Z"/><path class="cls-6" d="M304.21,204.89a1.75,1.75,0,1,1-1.69-1.31A1.54,1.54,0,0,1,304.21,204.89Z"/><path class="cls-6" d="M318.85,272.47c0,1.14-.59,2.06-1.31,2.06s-1.32-.92-1.32-2.06.59-2.07,1.32-2.07S318.85,271.33,318.85,272.47Z"/><path class="cls-6" d="M309.09,288.05a1.33,1.33,0,1,1-1.31-1.51A1.42,1.42,0,0,1,309.09,288.05Z"/><path class="cls-1" d="M128.89,162.28s-9.57,40.55-13.51,45.05-12.39-2.25-15.21-12.39Z"/><path class="cls-2" d="M121.76,168.29s-5.26,30.78-9,30.41-11.64-16.9-11.64-16.9Z"/><path d="M138.46,189.4a1.51,1.51,0,0,1-.86-.27C89.73,155.29,37.06,164.78,36.54,164.88a1.5,1.5,0,0,1-.56-2.95c.54-.1,54.4-9.85,103.35,24.75a1.5,1.5,0,0,1-.87,2.72Z"/><path class="cls-8" d="M35.6,180.26S46.1,179,47.84,164s-13.36-23.53-21.62-23.83-14.58,6.52-10,14.74S35.6,180.26,35.6,180.26Z"/><path class="cls-3" d="M13.64,173.17s5.26,12,14.27,12.76,25.9-19.52,6.38-30.78C21.52,167.54,13.64,173.17,13.64,173.17Z"/><path class="cls-2" d="M30.91,154.77s-10.14-14.26-23.65-5.63-5.26,22.15,1.5,27,21.77,1.13,22.9-9.38S30.91,154.77,30.91,154.77Z"/><path class="cls-3" d="M22.27,154.77s-11.63-.75-7.5,10.14,18,7.88,18.77,4.88S32,156.28,22.27,154.77Z"/><path class="cls-9" d="M26.05,160c3.25,3,4.59,8.25,3.87,12.52a7.52,7.52,0,0,0,8.17-3.48,9.86,9.86,0,0,0,.21-9.15c-4.39-9.27-17.85-9.68-25.3-4.13,1.84-1.38,11.15,2.58,12.79,4Z"/><path class="cls-6" d="M157.89,101.75s-5.07-13.52-28.72-18.59-51.52,0-59.12,27.88c4.22,22.8.84,49-9.3,62.5,0,0-14.36-2.53-13.51,19.43,32.1,16.05,47.3,19.43,47.3,19.43s39.53-60.08,71.63-79.5Z"/><path class="cls-4" d="M127.46,82.82c-23.27-4.46-50,1-57.41,28.22,4.22,22.8.84,49-9.3,62.5,0,0-14.26-2.51-13.51,19.23l1.21.8c7.47,3.71,14,6.73,19.61,9.16.1-14.78,11.84-19,11.84-19s9-24.78,22-56.87A174.25,174.25,0,0,1,127.46,82.82Z"/><path class="cls-4" d="M92.85,87.39l12.67-34.63s-25.34,0-18.58,38Z"/><path class="cls-6" d="M142.69,91.61l23.65-27.87S173.94,73,163,84.85,146.91,95,146.91,95Z"/><circle class="cls-10" cx="121.15" cy="127.51" r="15.63" transform="translate(-54.55 119.38) rotate(-43.82)"/><path d="M119.32,136.38a4.23,4.23,0,1,1-4.22-4.22A4.22,4.22,0,0,1,119.32,136.38Z"/><circle class="cls-10" cx="90.74" cy="119.06" r="15.63" transform="translate(-46.45 178.96) rotate(-76.27)"/><circle cx="86.94" cy="129.06" r="4.22"/><path d="M62.44,186.5a4.51,4.51,0,1,1-4.5-4.51A4.5,4.5,0,0,1,62.44,186.5Z"/><path d="M91.16,198.32a4.51,4.51,0,1,1-4.5-4.5A4.5,4.5,0,0,1,91.16,198.32Z"/><path class="cls-3" d="M271.08,104.28s0-46.46-30.41-61.66C256.72-.46,303.18.39,303.18.39c-41.39,27.87-24.5,49,1.69,45.61C266,65.43,293,82.32,304,82.32c-20.27,2.53-23.65,22.81-23.65,22.81Z"/><path class="cls-9" d="M267.62,10.26a61,61,0,0,0-27,32.36C256.19,50.38,263.78,66.27,267.5,80,275.15,62.36,270.24,25.86,267.62,10.26Z"/><path class="cls-11" d="M14.3,212.4l16.05-11.83s43.92,22.81,52.37,43.93c27.87-26.19,82.77-43.93,82.77-43.93l10.14,14.36L125,255.48,69.2,274.06,25.28,231Z"/><polygon class="cls-3" points="91.16 258.01 178.16 209.87 207.73 293.49 122.42 345.01 91.16 258.01"/><polygon class="cls-2" points="75.96 257.17 7.54 206.49 49.77 312.92 110.59 348.39 75.96 257.17"/><path class="cls-9" d="M91.16,258S79.34,267.3,76,256.32c16.89,49.84,32.94,92.07,32.94,92.07s4.22,8.45,13.52-3.38Z"/><path class="cls-6" d="M222.93,210.71s2.54-41.39,40.55-33.79c20.27,4.23-13.52,59.13-26.19,72.65L196.75,259.7l-6.76-16,28.72-7.6Z"/><path class="cls-6" d="M196.75,259.7s-.85-17.46-4.79-21.4-18.58,5.63-19.14,10.7L183,246.19s-10.7,5.63-9,10.13A86.15,86.15,0,0,1,188,250.13c-10.7,9-9.57,12.95-9.57,12.95l10.7-6.19S190.27,264.21,196.75,259.7Z"/><path class="cls-4" d="M248,180.83a16.35,16.35,0,0,0-1.5-3.86c-21.88,5.63-23.61,33.74-23.61,33.74l-4,24.06a17.28,17.28,0,0,0,6.88-3.92,65.4,65.4,0,0,0,22-37C248.68,189.53,249.09,185.06,248,180.83Z"/><path class="cls-6" d="M230.25,200.39a1.31,1.31,0,1,1-1.31-1.32A1.31,1.31,0,0,1,230.25,200.39Z"/><path class="cls-6" d="M234.76,195.51a1.69,1.69,0,1,1-1.69-1.69A1.69,1.69,0,0,1,234.76,195.51Z"/><path class="cls-6" d="M237.39,190.25a1.32,1.32,0,1,1-1.32-1.31A1.31,1.31,0,0,1,237.39,190.25Z"/><path class="cls-6" d="M240.39,185.56a.38.38,0,1,1-.38-.38A.38.38,0,0,1,240.39,185.56Z"/><path class="cls-6" d="M240.39,195.88a.94.94,0,1,1-.94-.94A.94.94,0,0,1,240.39,195.88Z"/><path class="cls-6" d="M237.76,203a1.69,1.69,0,1,1-1.69-1.69A1.68,1.68,0,0,1,237.76,203Z"/><path class="cls-6" d="M245.27,188.19a.75.75,0,1,1-.75-.76A.76.76,0,0,1,245.27,188.19Z"/><circle class="cls-6" cx="228.75" cy="209.58" r="0.75"/></g></g></svg>