<?xml version="1.0" encoding="utf-8"?>
<!-- Generator: Adobe Illustrator 26.3.1, SVG Export Plug-In . SVG Version: 6.00 Build 0)  -->
<svg version="1.1" id="Слой_1" xmlns="http://www.w3.org/2000/svg" xmlns:xlink="http://www.w3.org/1999/xlink" x="0px" y="0px"
	 viewBox="0 0 172.3 127.6" style="enable-background:new 0 0 172.3 127.6;" xml:space="preserve">
<style type="text/css">
	.st0{fill:#006837;}
	.st1{fill:none;stroke:#064F44;stroke-linecap:round;stroke-miterlimit:10;}
	.st2{fill:#FBB03B;}
	.st3{fill:#F7931E;}
	.st4{opacity:0.38;}
	.st5{fill:#F15A24;}
	.st6{fill:none;stroke:#F7931E;stroke-width:0.5;stroke-linecap:round;stroke-linejoin:round;}
	.st7{fill:#D61621;}
	.st8{fill:#B20D1D;}
	.st9{opacity:0.54;fill:#D61621;enable-background:new    ;}
	.st10{fill:#E2293A;}
	.st11{fill:#FFBE69;}
</style>
<g>
	<g id="Слой_2_00000113353649205011644410000016459595845736463243_">
		<g id="OBJECTS">
			<path class="st0" d="M135.6,84.9c-5.4,0-7.2-1.3-9.3-4.8c-1.6-2.7-3.2-8.5-3.1-10.4c0.2-3.9,9.6,1.7,9.6,1.7s-6.6-13-3.1-15.8
				s7.9,5.8,7.9,5.8s1.4-11.8,4.2-13.8c3.8-2.6,3.7,4.1,3.7,4.1s4.9-8.5,9.7-7.7s-3,11.3-3,11.3s5.7-3.2,7-0.3s-10.4,8.5-10.4,8.5
				s9.3,0.2,9.1,4.1s-14.6,6.1-14.6,6.1s6.2-0.1,6.9,4.4C150.5,80.6,142.3,84.9,135.6,84.9z"/>
			<path class="st1" d="M150,50.9c0,0-13.1,16.7-18,36.1"/>
			<path class="st1" d="M151.4,58.1l-8.6,3.7c-0.9-2.5-1-5.2-0.5-7.8"/>
			<path class="st1" d="M143.1,68.2l-4.8,2.1c-0.6-1.5-0.7-3.1-0.5-4.7"/>
			<path class="st1" d="M139.1,78.1l-4.8,2.1c-0.6-1.5-0.7-3.1-0.5-4.7"/>
			<path class="st0" d="M37.8,99.5c-0.8,5.4-2.3,6.9-6.2,8.4c-2.9,1.2-8.9,1.9-10.8,1.5c-3.8-0.8,3.1-9.2,3.1-9.2
				s-13.8,4.6-16.1,0.7s6.9-6.9,6.9-6.9s-11.5-3.1-13-6.2c-2-4.1,4.6-3.1,4.6-3.1S-1.4,78.6,0.2,74s10.7,4.7,10.7,4.7
				s-2.3-6.2,0.8-6.9s6.9,11.6,6.9,11.6s1.6-9.2,5.4-8.4s3.8,15.4,3.8,15.4s0.8-6.1,5.4-6.1C35.7,84.2,38.7,92.9,37.8,99.5z"/>
			<path class="st1" d="M6.3,80.2c0,0,14.5,15.4,32.9,23.2"/>
			<path class="st1" d="M13.6,79.8L16,89c-2.6,0.5-5.3,0.2-7.8-0.7"/>
			<path class="st1" d="M22.3,89.6l1.3,5.1c-1.5,0.3-3.2,0.2-4.7-0.2"/>
			<path class="st1" d="M31.5,95l1.3,5.1c-1.6,0.3-3.2,0.2-4.7-0.2"/>
			<path class="st2" d="M167.6,102.1c-4.2-3.9-7.3-8.6-10.2-13.5c-3.8-6.5-6.5-16.1-7-23.8c-1.1,1.2-1.9,2.6-2.4,4.1
				c-0.1,0.2-0.4,1.6-0.4,1.9l0,0l-0.2,1.3l0,0c0,0,0,0.1,0,0.1c-0.6,3.9-2.8,7.3-6.1,9.4c-2.4,1.5-4.5,3.3-6.5,5.3
				c-4.8,4.2-5.3,11.4-1.1,16.3c3.1,3.6,8.2,4.9,12.6,3.3l0,0l4-1.2l0,0c0.8-0.2,1.6-0.4,2.4-0.7c3.2-1.1,6.7-1.2,10-0.2l1.1,0.5
				l0,0c2.5,1.4,5.4,1.7,6.7,1.3c0.5-0.2,0.3-0.4,0.9-0.7C170.2,104.5,168.9,103.3,167.6,102.1z"/>
			<path class="st3" d="M150.6,64.7c2.7-1.3,9.4,6.8,15.1,18.2s8.1,21.7,5.4,23s-9.4-6.8-15.1-18.2S148,66.1,150.6,64.7z"/>
			<g class="st4">
				<path class="st5" d="M150,68.3c0.3,4.3,2.6,11.5,6.5,19.2s8.2,14,11.5,16.8c-0.3-4.3-2.6-11.5-6.5-19.2S153.2,71.1,150,68.3z"/>
			</g>
			<path class="st2" d="M157.2,84c2.1-1,4.6-0.2,5.6,1.9c1,2.1,0.2,4.6-1.9,5.6c-2.1,1-4.6,0.2-5.6-1.9c0,0,0,0,0,0
				C154.3,87.5,155.2,85,157.2,84z"/>
			<path class="st6" d="M164.1,105.1c0,0-13.6-13.6-16.6-33.4"/>
			<polygon class="st7" points="23.5,116.1 14.5,32.3 81.6,42 82.4,127.6 			"/>
			<polygon class="st8" points="137.9,107.9 82.4,127.6 81.6,42 139.3,30.1 			"/>
			<polygon class="st9" points="82.3,114 138.1,77.7 138.3,84.5 82.3,122.1 			"/>
			<polygon class="st9" points="92.8,123.9 138.2,93.4 137.8,100.6 114.9,116.1 			"/>
			<polygon class="st9" points="82.2,98.2 138.6,61.1 138.6,68.3 82.2,106.3 			"/>
			<polygon class="st9" points="82.2,82.5 138.5,45.3 138.6,52.6 82.2,90.6 			"/>
			<polygon class="st9" points="81.7,66.7 138,29.6 138.1,36.8 81.7,74.8 			"/>
			<polygon class="st10" points="81.2,51 17.6,61.1 18.4,69.1 81.7,58.7 			"/>
			<polygon class="st10" points="81.7,66.7 19.3,76.9 20.2,84.9 81.7,74.4 			"/>
			<polygon class="st10" points="82.2,82.5 20.7,92.3 21.5,100.3 82.2,90.6 			"/>
			<polygon class="st10" points="82.2,98.2 22.5,107.7 23.3,115.7 82.2,106.3 			"/>
			<polygon class="st10" points="82.3,114 44.5,120.2 67.7,124.8 82.3,122.1 			"/>
			<polygon class="st7" points="8.4,26 77,8.2 144.3,22.2 82.6,40.4 			"/>
			<polygon class="st8" points="8.4,26 10.8,46.6 80.8,58.6 143.2,45.2 143.5,22.2 82,35.7 			"/>
			<polygon class="st2" points="39.1,30 44.5,120.2 56.2,122.5 51.9,32 			"/>
			<path class="st2" d="M103.7,30.9c0.2-0.1,2.4,88.3,2.4,88.3l11.4-4.1l-1.8-86.8L103.7,30.9z"/>
			<polygon class="st11" points="39.3,30.1 95.9,12.1 109.2,14.9 51.9,32 			"/>
			<polygon class="st11" points="103.9,30.8 41.7,17.4 55.1,13.9 115.9,28.5 			"/>
			<path class="st2" d="M77,21c0,0-37.3-26.4-50.2-19.9s-0.5,22.5,7.1,23.5C47.1,26.4,77,21,77,21z"/>
			<path class="st11" d="M33.8,0.2c0,0-5.7-1.4-7.6,2.9s20.2,13.4,29.9,14.7c5.6,0.8,11.3,1.2,17,1.3c-2.8-2.4-5.8-4.5-9-6.4
				C60.2,10.8,45.1,0.9,33.8,0.2z"/>
			<path class="st3" d="M65.6,17.3c0,0-24.7-15.4-34.1-13.5S65.6,17.3,65.6,17.3z"/>
			<path class="st2" d="M76.6,21c0,0,38.4-24.7,51-17.6s-0.5,22.5-8.2,23.2C106.3,27.7,76.6,21,76.6,21z"/>
			<path class="st11" d="M122.1,2.4c0,0,5.8-1,7.4,3.4s-21,12-30.8,12.7c-6.2,0.4-12.3,0.5-18.5,0.1c0,0,7-4,10.9-5.7
				S110.8,2.4,122.1,2.4z"/>
			<path class="st3" d="M88.2,17.8c0,0,25.4-14.3,34.7-12S88.2,17.8,88.2,17.8z"/>
			<path class="st2" d="M78.4,23.7c1.4-0.2,2.5-1.2,2.7-2.6c0.4-2.2,0.5-5.6-2.7-6.9c-5-2-7.8-0.1-8.5,2
				C69.3,18.3,70.7,24.6,78.4,23.7z"/>
		</g>
	</g>
</g>
</svg>
