<svg xmlns="http://www.w3.org/2000/svg" viewBox="0 0 115.64 174.12"><defs><style>.cls-1{isolation:isolate;}.cls-2{opacity:0.53;}.cls-3{fill:#e8c7aa;}.cls-12,.cls-4{fill:#006837;}.cls-5,.cls-7{fill:none;stroke-linecap:round;}.cls-5{stroke:#064f44;stroke-miterlimit:10;}.cls-6{fill:#01562c;}.cls-7{stroke:#fff;stroke-linejoin:round;}.cls-8{fill:#f94838;}.cls-9{fill:#009245;}.cls-10{fill:#fff;opacity:0.11;}.cls-11{fill:#f7931e;}.cls-12{mix-blend-mode:multiply;opacity:0.4;}.cls-13{fill:#ffbe69;opacity:0.44;}.cls-14{fill:#f15a24;}</style></defs><g class="cls-1"><g id="Слой_2" data-name="Слой 2"><g id="OBJECTS"><g class="cls-2"><ellipse class="cls-3" cx="57.82" cy="159.57" rx="57.82" ry="14.55"/></g><path class="cls-4" d="M80.18,56.64c-5.43,0-7.18-1.26-9.26-4.83-1.6-2.74-3.2-8.48-3.11-10.41.2-3.91,9.57,1.68,9.57,1.68s-6.59-13-3.13-15.84,7.85,5.82,7.85,5.82,1.35-11.85,4.16-13.82C90,16.59,90,23.34,90,23.34s4.94-8.5,9.73-7.66-3,11.32-3,11.32,5.74-3.19,7-.26-10.37,8.53-10.37,8.53,9.34.16,9.15,4.08-14.63,6.06-14.63,6.06,6.19-.15,6.87,4.41C95.07,52.33,86.84,56.6,80.18,56.64Z"/><path class="cls-5" d="M94.53,22.66s-13,16.7-17.92,36.07"/><path class="cls-5" d="M96,29.83l-8.65,3.72a14.75,14.75,0,0,1-.5-7.8"/><path class="cls-5" d="M87.63,39.92,82.82,42a9.21,9.21,0,0,1-.47-4.7"/><path class="cls-5" d="M83.66,49.83l-4.81,2.06a9.29,9.29,0,0,1-.47-4.69"/><path class="cls-4" d="M58.27,53.88c-5.66,3.06-8.21,2.68-12.38.1-3.19-2-8.07-7.09-9-9.15-2-4.21,10.95-3.58,10.95-3.58S33.65,31.33,35.68,26.43s11.46,1.71,11.46,1.71S41.94,15,43.78,11.36C46.25,6.49,50,13.58,50,13.58S50.39,1.93,55.87.15s3.19,13.49,3.19,13.49,4.23-6.53,7.13-4.14-6.1,14.71-6.1,14.71,9.87-5,11.84-.84S60,37.86,60,37.86s6.39-3.6,9.65.79C71.44,41.07,65.22,50.12,58.27,53.88Z"/><path class="cls-5" d="M54.35,10.33S50,35.07,55.7,58.05"/><path class="cls-5" d="M59.86,17l-7,8.72A17.49,17.49,0,0,1,48,17.85"/><path class="cls-5" d="M56.74,32.23l-3.88,4.85s-1.67-1.18-3.11-4.65"/><path class="cls-5" d="M58.12,44.8l-3.88,4.85S52.57,48.47,51.13,45"/><path class="cls-4" d="M47.66,52.19c-.73,6.4-2.5,8.27-7,10.22C37.22,63.9,30.23,65,28,64.59c-4.58-.78,3.32-11,3.32-11S15.08,59.5,12.22,55s8-8.43,8-8.43S6.42,43.35,4.49,39.76C1.91,35,9.85,36,9.85,36S.54,29,2.2,23.44s12.9,5.09,12.9,5.09-2.94-7.2.68-8.22,8.58,13.42,8.58,13.42,1.5-11,6.08-10.19,5.07,18.07,5.07,18.07.7-7.31,6.17-7.47C44.68,34.06,48.55,44.34,47.66,52.19Z"/><path class="cls-5" d="M9.69,30.51s17.82,17.7,39.92,26.18"/><path class="cls-5" d="M18.32,29.8l3.16,10.71A17.39,17.39,0,0,1,12.24,40"/><path class="cls-5" d="M29,41.07l1.76,6s-1.92.7-5.59-.11"/><path class="cls-5" d="M40.13,47.13l1.75,5.95s-1.92.7-5.59-.11"/><path class="cls-6" d="M5.16,49.09c14,5.78,28.54,10.12,43,14.54a.44.44,0,0,0,.26-.83c-14.47-4.41-29-8.75-43-14.53-.51-.21-.77.61-.26.82Z"/><path class="cls-6" d="M5.22,53.21c2.11-.38,4.19-.94,6.3-1.32a.44.44,0,0,0,.29-.62,20.84,20.84,0,0,0-4.22-6.13c-.38-.41-1,.17-.64.58a20.34,20.34,0,0,1,4.1,6c.09-.21.19-.41.28-.62-2.11.38-4.19.94-6.3,1.32-.55.1-.36.94.19.84Z"/><path class="cls-6" d="M8.46,54c2.11-.38,4.19-.94,6.31-1.32a.44.44,0,0,0,.28-.62A20.84,20.84,0,0,0,10.83,46c-.38-.41-1,.17-.64.58a20.28,20.28,0,0,1,4.1,6c.09-.21.19-.41.28-.62-2.11.38-4.19.94-6.3,1.32-.55.1-.36.94.19.84Z"/><path class="cls-6" d="M10.65,55c2.11-.39,4.19-.94,6.3-1.32a.44.44,0,0,0,.29-.62A20.89,20.89,0,0,0,13,46.87c-.38-.4-1,.18-.64.58a20.16,20.16,0,0,1,4.09,6l.29-.62c-2.11.38-4.19.93-6.31,1.32-.54.09-.35.93.2.84Z"/><path class="cls-6" d="M12.83,55.85c2.12-.38,4.19-.93,6.31-1.32a.43.43,0,0,0,.28-.62,21,21,0,0,0-4.22-6.13.43.43,0,0,0-.63.58,20.44,20.44,0,0,1,4.09,6l.29-.62c-2.12.38-4.2.94-6.31,1.32-.54.1-.35.94.19.84Z"/><path class="cls-6" d="M15,56.76c2.11-.39,4.19-.94,6.3-1.32a.44.44,0,0,0,.29-.62,21,21,0,0,0-4.22-6.14c-.38-.4-1,.18-.64.58a20.32,20.32,0,0,1,4.1,6c.09-.21.19-.42.28-.62-2.11.38-4.19.93-6.3,1.32-.55.1-.36.94.19.84Z"/><path class="cls-6" d="M29.12,61.06c2.11-.38,4.19-.93,6.3-1.32a.44.44,0,0,0,.29-.62A21,21,0,0,0,31.49,53c-.38-.4-1,.17-.64.58a20.25,20.25,0,0,1,4.09,6c.1-.2.19-.41.29-.62-2.11.39-4.19.94-6.31,1.32-.54.1-.35.94.2.84Z"/><path class="cls-6" d="M31.3,62c2.12-.38,4.19-.94,6.31-1.32a.43.43,0,0,0,.28-.62,20.84,20.84,0,0,0-4.22-6.13c-.38-.41-1,.17-.63.57a20.48,20.48,0,0,1,4.09,6l.29-.62c-2.12.38-4.2.94-6.31,1.32-.55.1-.35.94.19.84Z"/><path class="cls-6" d="M33.49,62.87c2.11-.38,4.19-.93,6.3-1.32a.43.43,0,0,0,.29-.61,20.89,20.89,0,0,0-4.22-6.14c-.38-.4-1,.18-.64.58a20.47,20.47,0,0,1,4.1,5.95c.09-.2.19-.41.28-.62-2.11.39-4.19.94-6.3,1.32-.55.1-.36.94.19.84Z"/><path class="cls-6" d="M17.18,57.36c2-.36,4-.9,6-1.26a.44.44,0,0,0,.29-.62,20,20,0,0,0-4.05-5.88.43.43,0,0,0-.63.58,19.45,19.45,0,0,1,3.92,5.7c.09-.21.19-.42.28-.62-2,.36-4,.89-6,1.26-.54.1-.35.94.19.84Z"/><path class="cls-6" d="M20.42,58.19c2-.36,4-.89,6-1.26a.44.44,0,0,0,.28-.62,20.15,20.15,0,0,0-4-5.88c-.38-.4-1,.17-.64.58A19.45,19.45,0,0,1,26,56.71c.09-.21.19-.41.28-.62-2,.37-4,.9-6,1.26-.54.1-.35.94.19.84Z"/><path class="cls-6" d="M23.67,59c2-.36,4-.89,6-1.26a.44.44,0,0,0,.28-.62,20,20,0,0,0-4-5.88c-.38-.4-1,.18-.64.58a19.45,19.45,0,0,1,3.92,5.7l.29-.62c-2,.37-4,.9-6,1.26-.55.1-.36.94.19.84Z"/><path class="cls-6" d="M26.91,59.85c2-.36,4-.89,6-1.26a.44.44,0,0,0,.29-.62,20.18,20.18,0,0,0-4.05-5.88c-.38-.4-1,.18-.64.58a19.59,19.59,0,0,1,3.92,5.7l.29-.62c-2,.37-4,.9-6,1.26-.55.1-.36.94.19.84Z"/><path class="cls-6" d="M102.29,38.7C89.24,46.39,77,55.37,64.77,64.26c-.44.33,0,1,.5.7,12.25-8.88,24.47-17.87,37.52-25.56.47-.28,0-1-.5-.7Z"/><path class="cls-6" d="M99,36.26c-1,1.92-1.78,3.91-2.75,5.83a.44.44,0,0,0,.32.6A21.15,21.15,0,0,0,104,43a.43.43,0,0,0-.07-.86,20.37,20.37,0,0,1-7.22-.32c.1.2.21.4.32.6,1-1.92,1.78-3.91,2.75-5.83.25-.49-.54-.84-.79-.35Z"/><path class="cls-6" d="M96.35,38.35c-1,1.91-1.78,3.91-2.74,5.82a.44.44,0,0,0,.32.61,20.91,20.91,0,0,0,7.44.32.43.43,0,0,0-.08-.85,20.61,20.61,0,0,1-7.22-.32l.32.6c1-1.92,1.78-3.91,2.75-5.83.25-.5-.54-.85-.79-.35Z"/><path class="cls-6" d="M94.31,39.55c-1,1.91-1.78,3.9-2.74,5.82a.43.43,0,0,0,.32.6,20.91,20.91,0,0,0,7.44.33.43.43,0,0,0-.08-.86A20.14,20.14,0,0,1,92,45.12l.32.61c1-1.92,1.78-3.91,2.75-5.83.25-.5-.54-.85-.79-.35Z"/><path class="cls-6" d="M92.27,40.74c-1,1.92-1.78,3.91-2.74,5.83a.43.43,0,0,0,.32.6,20.9,20.9,0,0,0,7.44.33.43.43,0,0,0-.08-.86A20.14,20.14,0,0,1,90,46.32l.32.6c1-1.91,1.78-3.9,2.75-5.82.25-.5-.54-.85-.79-.36Z"/><path class="cls-6" d="M90.23,41.94c-1,1.92-1.78,3.91-2.74,5.83a.43.43,0,0,0,.32.6,20.9,20.9,0,0,0,7.44.33.43.43,0,0,0-.08-.86A20.14,20.14,0,0,1,88,47.52l.32.6c1-1.91,1.78-3.91,2.75-5.82.25-.5-.54-.85-.79-.36Z"/><path class="cls-6" d="M78.3,50.6c-1,1.92-1.78,3.91-2.75,5.83a.44.44,0,0,0,.33.6,21.13,21.13,0,0,0,7.44.33.43.43,0,0,0-.08-.86A20.37,20.37,0,0,1,76,56.18l.32.6c1-1.92,1.78-3.91,2.75-5.83.25-.49-.54-.85-.79-.35Z"/><path class="cls-6" d="M76.26,51.8c-1,1.92-1.78,3.91-2.75,5.83a.44.44,0,0,0,.33.6,21.09,21.09,0,0,0,7.43.33.43.43,0,0,0-.07-.86A20.37,20.37,0,0,1,74,57.38l.32.6c1-1.92,1.78-3.91,2.75-5.83.25-.49-.54-.85-.79-.35Z"/><path class="cls-6" d="M74.22,53c-1,1.91-1.78,3.91-2.75,5.82a.45.45,0,0,0,.33.61,20.85,20.85,0,0,0,7.43.32.43.43,0,0,0-.07-.85,20.37,20.37,0,0,1-7.22-.32l.32.6c1-1.92,1.78-3.91,2.75-5.83.25-.49-.54-.85-.79-.35Z"/><path class="cls-6" d="M88.45,43.31c-.93,1.83-1.71,3.74-2.64,5.58a.44.44,0,0,0,.33.6,20.09,20.09,0,0,0,7.13.31.43.43,0,0,0-.08-.85,19.57,19.57,0,0,1-6.91-.31l.32.6c.93-1.83,1.7-3.74,2.63-5.58.25-.5-.53-.85-.78-.35Z"/><path class="cls-6" d="M85.83,45.39c-.93,1.84-1.7,3.75-2.63,5.58a.44.44,0,0,0,.32.61,20.11,20.11,0,0,0,7.13.31.43.43,0,0,0-.08-.86,19.57,19.57,0,0,1-6.91-.3c.11.2.22.4.32.6.93-1.84,1.71-3.75,2.63-5.58.25-.5-.53-.85-.78-.36Z"/><path class="cls-6" d="M83.21,47.48c-.93,1.84-1.7,3.74-2.63,5.58a.44.44,0,0,0,.32.6A20.11,20.11,0,0,0,88,54a.43.43,0,0,0-.07-.86,19.34,19.34,0,0,1-6.91-.31c.1.2.21.4.32.6.92-1.83,1.7-3.74,2.63-5.58.25-.49-.54-.85-.79-.35Z"/><path class="cls-6" d="M80.6,49.57c-.93,1.83-1.71,3.74-2.64,5.58a.44.44,0,0,0,.33.6,20.09,20.09,0,0,0,7.13.31.43.43,0,0,0-.08-.85,19.57,19.57,0,0,1-6.91-.31l.32.6c.93-1.84,1.7-3.74,2.63-5.58.25-.5-.53-.85-.78-.35Z"/><path class="cls-6" d="M44,13.25C47.26,28,52,42.43,56.71,56.82a.43.43,0,0,0,.82-.26C52.86,42.17,48.08,27.77,44.8,13c-.12-.54-.94-.28-.82.26Z"/><path class="cls-6" d="M40.64,15.65c1.52,1.51,3.17,2.9,4.69,4.41a.44.44,0,0,0,.67-.12,21,21,0,0,0,2.61-7,.43.43,0,0,0-.84-.19,20.19,20.19,0,0,1-2.53,6.76l.67-.12c-1.52-1.51-3.17-2.9-4.69-4.41-.4-.39-1,.25-.58.64Z"/><path class="cls-6" d="M41.81,18.78c1.53,1.51,3.17,2.9,4.7,4.41a.43.43,0,0,0,.67-.12,21.06,21.06,0,0,0,2.61-7,.43.43,0,0,0-.84-.19,20.34,20.34,0,0,1-2.54,6.77l.68-.12c-1.53-1.52-3.17-2.9-4.7-4.42-.39-.39-1,.25-.58.64Z"/><path class="cls-6" d="M42.32,21.09c1.53,1.52,3.17,2.9,4.7,4.41a.43.43,0,0,0,.67-.12,21.06,21.06,0,0,0,2.61-7,.43.43,0,0,0-.84-.19A20.34,20.34,0,0,1,46.92,25l.68-.12c-1.53-1.52-3.17-2.9-4.7-4.42-.39-.39-1,.25-.58.64Z"/><path class="cls-6" d="M42.83,23.4c1.53,1.52,3.17,2.9,4.7,4.42a.44.44,0,0,0,.67-.12,21.2,21.2,0,0,0,2.61-7,.43.43,0,0,0-.84-.19,20.26,20.26,0,0,1-2.54,6.77l.68-.12c-1.53-1.52-3.17-2.9-4.7-4.42-.39-.39-1,.25-.58.64Z"/><path class="cls-6" d="M43.34,25.71c1.53,1.52,3.17,2.9,4.7,4.42a.44.44,0,0,0,.67-.12,21.2,21.2,0,0,0,2.61-7,.43.43,0,0,0-.84-.19,20.26,20.26,0,0,1-2.54,6.77l.68-.12c-1.53-1.52-3.17-2.9-4.7-4.41-.39-.4-1,.24-.58.63Z"/><path class="cls-6" d="M47.89,39.73c1.53,1.52,3.17,2.9,4.7,4.42a.44.44,0,0,0,.67-.12,21.2,21.2,0,0,0,2.61-7,.43.43,0,0,0-.84-.19,20.39,20.39,0,0,1-2.54,6.77l.67-.12C51.64,42,50,40.61,48.47,39.1c-.39-.39-1,.24-.58.63Z"/><path class="cls-6" d="M48.4,42.05c1.53,1.51,3.17,2.89,4.7,4.41a.44.44,0,0,0,.67-.12,21.2,21.2,0,0,0,2.61-7,.43.43,0,0,0-.84-.19A20.39,20.39,0,0,1,53,45.94l.67-.12c-1.52-1.51-3.16-2.9-4.69-4.41-.39-.39-1,.24-.58.64Z"/><path class="cls-6" d="M48.91,44.36c1.53,1.51,3.17,2.9,4.7,4.41a.44.44,0,0,0,.67-.12,21.23,21.23,0,0,0,2.61-7c.11-.55-.73-.74-.84-.2a20.39,20.39,0,0,1-2.54,6.77l.67-.12c-1.52-1.51-3.16-2.9-4.69-4.41-.39-.39-1,.25-.58.64Z"/><path class="cls-6" d="M44.09,27.83c1.46,1.45,3,2.78,4.49,4.23a.45.45,0,0,0,.68-.12,20.23,20.23,0,0,0,2.5-6.68.43.43,0,0,0-.84-.19,19.42,19.42,0,0,1-2.43,6.47l.67-.12c-1.46-1.45-3-2.77-4.49-4.22-.4-.39-1,.24-.58.63Z"/><path class="cls-6" d="M45.26,31c1.46,1.45,3,2.77,4.5,4.22a.43.43,0,0,0,.67-.12,19.93,19.93,0,0,0,2.5-6.68.43.43,0,0,0-.84-.19,19.54,19.54,0,0,1-2.42,6.48l.67-.12c-1.46-1.45-3-2.78-4.5-4.23-.39-.39-1,.25-.58.64Z"/><path class="cls-6" d="M46.44,34.1c1.46,1.45,3,2.78,4.5,4.23a.44.44,0,0,0,.67-.12,20.2,20.2,0,0,0,2.5-6.69.43.43,0,0,0-.84-.19,19.34,19.34,0,0,1-2.43,6.48l.68-.12c-1.46-1.45-3-2.78-4.5-4.23-.39-.39-1,.25-.58.64Z"/><path class="cls-6" d="M47.62,37.23c1.46,1.45,3,2.78,4.49,4.23a.44.44,0,0,0,.67-.12,20,20,0,0,0,2.51-6.68c.11-.55-.73-.74-.84-.2A19.39,19.39,0,0,1,52,40.94l.67-.12c-1.46-1.45-3-2.78-4.49-4.22-.4-.4-1,.24-.58.63Z"/><path class="cls-7" d="M53.68,54.84s-3.28-12.07,7.2-23.05"/><path class="cls-7" d="M43.15,36.46S51,40.91,53.2,50.07"/><path class="cls-7" d="M50.23,28.72s.12,12.14,3.05,19.42"/><path class="cls-8" d="M43.48,33.54a3.22,3.22,0,1,1-4.44-1A3.22,3.22,0,0,1,43.48,33.54Z"/><path class="cls-8" d="M52.26,24.18a3.22,3.22,0,1,1-4.45-1A3.22,3.22,0,0,1,52.26,24.18Z"/><path class="cls-8" d="M63.6,30.07a3.22,3.22,0,1,1-4.44-1A3.22,3.22,0,0,1,63.6,30.07Z"/><polygon class="cls-4" points="109.94 87.17 50.69 97.17 50.69 174.12 109.94 158.73 109.94 87.17"/><polygon class="cls-9" points="6.06 153.34 50.69 174.12 50.69 97.17 6.06 84.09 6.06 153.34"/><polygon class="cls-10" points="6.06 144.81 50.69 163.46 109.94 149.5 109.94 158.73 50.69 174.12 6.06 153.34 6.06 144.81"/><polygon class="cls-10" points="6.06 124.04 50.69 142.69 109.94 128.72 109.94 137.96 50.69 153.34 6.06 132.57 6.06 124.04"/><polygon class="cls-10" points="6.06 103.27 50.69 121.91 109.94 107.95 109.94 117.18 50.69 132.57 6.06 111.79 6.06 103.27"/><polygon class="cls-10" points="6.06 85.57 50.69 101.14 109.94 87.17 109.94 96.41 50.69 111.79 6.06 94.1 6.06 85.57"/><polygon class="cls-9" points="0.68 87.17 50.69 103.49 50.69 74.09 0.68 60.24 0.68 87.17"/><polygon class="cls-4" points="113.79 87.17 50.69 103.49 50.69 74.09 113.79 60.24 113.79 87.17"/><polygon class="cls-4" points="0.68 60.24 56.85 51.01 113.79 60.24 50.69 74.09 0.68 60.24"/><path class="cls-11" d="M19.22,159.47c-.08-.74.69-93.84.69-93.84l12.32,3.08-1.54,96.18Z"/><path class="cls-11" d="M90.7,163.35c.08-.74-.77-97.72-.77-97.72L77.62,68.71l1.54,97.71Z"/><polygon class="cls-12" points="6.06 92.49 50.69 103.33 6.06 88.93 6.06 92.49"/><polygon class="cls-12" points="109.94 91.72 50.69 103.33 109.94 88.16 109.94 91.72"/><polygon class="cls-11" points="19.91 65.63 75.31 54.09 89.17 56.39 32.23 68.7 19.91 65.63"/><polygon class="cls-11" points="89.93 65.63 34.53 54.09 20.68 56.39 77.62 68.7 89.93 65.63"/><path class="cls-11" d="M54.54,60.24s-6.93-27.7-25.39-30.78-27.7,27.7,0,30.78S54.54,60.24,54.54,60.24Z"/><path class="cls-13" d="M48.38,46.39s-6.54-12.17-14-15.32-15.2-1.61-12.89,5.32,25.4,16.93,30.78,16.93C52.23,53.32,49.92,49.47,48.38,46.39Z"/><path class="cls-11" d="M52.49,60.24s6.93-27.7,25.39-30.78,27.71,27.7,0,30.78S52.49,60.24,52.49,60.24Z"/><path class="cls-13" d="M58.74,46.39s6.54-12.17,14-15.32S88,29.46,85.67,36.39,59.93,53.32,54.54,53.32A70.51,70.51,0,0,0,58.74,46.39Z"/><path class="cls-14" d="M49.15,51.78S35.3,31,26.84,33.31,49.15,51.78,49.15,51.78Z"/><path class="cls-14" d="M57.68,51.78S71.53,31,80,33.31,57.68,51.78,57.68,51.78Z"/><path class="cls-11" d="M58.39,56c0,3.61-2.24,6.54-5,6.54s-5-2.93-5-6.54,2.24-6.54,5-6.54S58.39,52.4,58.39,56Z"/><path class="cls-4" d="M100,52.69C85.43,56.9,71.37,62.58,57.3,68.15a.43.43,0,0,0,.31.81c14.07-5.58,28.13-11.25,42.68-15.47.53-.15.22-1-.31-.8Z"/><path class="cls-4" d="M97.37,49.5c-1.41,1.62-2.69,3.35-4.11,5a.44.44,0,0,0,.17.66,20.93,20.93,0,0,0,7.12,2.16.43.43,0,0,0,.14-.85,20.15,20.15,0,0,1-6.91-2.1c0,.22.1.45.16.67,1.41-1.62,2.69-3.35,4.1-5,.37-.42-.3-.95-.67-.54Z"/><path class="cls-4" d="M94.32,50.88c-1.41,1.61-2.69,3.34-4.11,5a.44.44,0,0,0,.16.66,21.22,21.22,0,0,0,7.13,2.17c.55.08.69-.78.14-.85a20.65,20.65,0,0,1-6.92-2.1l.17.66c1.41-1.62,2.69-3.35,4.1-5,.37-.41-.31-.95-.67-.53Z"/><path class="cls-4" d="M92,51.53c-1.41,1.62-2.69,3.35-4.1,5a.43.43,0,0,0,.16.66,20.91,20.91,0,0,0,7.13,2.16.43.43,0,0,0,.13-.85,20.15,20.15,0,0,1-6.91-2.1c0,.22.11.44.16.66,1.42-1.61,2.69-3.34,4.11-5,.36-.42-.31-1-.68-.54Z"/><path class="cls-4" d="M89.77,52.19c-1.41,1.62-2.69,3.34-4.11,5a.44.44,0,0,0,.17.66A20.94,20.94,0,0,0,93,60a.43.43,0,0,0,.14-.85A20.37,20.37,0,0,1,86.18,57c0,.22.1.44.16.66,1.41-1.62,2.69-3.35,4.1-5,.37-.42-.3-1-.67-.54Z"/><path class="cls-4" d="M87.5,52.84c-1.42,1.62-2.7,3.35-4.11,5a.44.44,0,0,0,.16.66,20.91,20.91,0,0,0,7.13,2.16.43.43,0,0,0,.14-.85,20.21,20.21,0,0,1-6.92-2.1c.06.22.11.44.16.67,1.42-1.62,2.7-3.35,4.11-5,.37-.42-.31-1-.67-.54Z"/><path class="cls-4" d="M73.79,58.27c-1.41,1.62-2.69,3.35-4.1,5a.43.43,0,0,0,.16.66A20.93,20.93,0,0,0,77,66.06a.43.43,0,0,0,.14-.85,20.15,20.15,0,0,1-6.91-2.1c0,.22.11.44.16.66,1.41-1.61,2.69-3.34,4.11-5,.36-.42-.31-1-.68-.54Z"/><path class="cls-4" d="M71.52,58.93c-1.41,1.61-2.69,3.34-4.11,5a.43.43,0,0,0,.17.66,21.1,21.1,0,0,0,7.12,2.17c.55.08.69-.78.14-.85a20.65,20.65,0,0,1-6.92-2.1c.06.22.11.44.17.66,1.41-1.62,2.69-3.35,4.1-5,.37-.41-.31-1-.67-.53Z"/><path class="cls-4" d="M69.25,59.58c-1.42,1.62-2.7,3.35-4.11,5a.43.43,0,0,0,.16.66,20.91,20.91,0,0,0,7.13,2.16.43.43,0,0,0,.13-.85,20.15,20.15,0,0,1-6.91-2.1c0,.22.11.44.16.66,1.42-1.61,2.7-3.34,4.11-5,.36-.42-.31-.95-.67-.54Z"/><path class="cls-4" d="M85.43,53.72c-1.36,1.55-2.58,3.21-3.94,4.76a.44.44,0,0,0,.17.66,20.05,20.05,0,0,0,6.83,2.07.43.43,0,0,0,.13-.85,19.43,19.43,0,0,1-6.61-2c0,.22.1.44.16.66,1.35-1.55,2.58-3.2,3.93-4.75.37-.42-.31-1-.67-.54Z"/><path class="cls-4" d="M82.38,55.09C81,56.64,79.8,58.3,78.44,59.85a.44.44,0,0,0,.16.66,20,20,0,0,0,6.83,2.07.43.43,0,0,0,.14-.85,19.41,19.41,0,0,1-6.62-2c.06.22.11.45.17.67,1.35-1.55,2.58-3.21,3.93-4.76.36-.42-.31-1-.67-.54Z"/><path class="cls-4" d="M79.32,56.47C78,58,76.74,59.67,75.39,61.22a.43.43,0,0,0,.16.66A20.2,20.2,0,0,0,82.38,64a.43.43,0,0,0,.14-.85,19.41,19.41,0,0,1-6.62-2c.06.22.11.44.16.66C77.42,60.21,78.64,58.55,80,57c.36-.41-.31-1-.68-.53Z"/><path class="cls-4" d="M76.27,57.84c-1.35,1.55-2.58,3.2-3.93,4.75a.44.44,0,0,0,.16.67,20.19,20.19,0,0,0,6.83,2.07.43.43,0,0,0,.14-.85,19.41,19.41,0,0,1-6.62-2l.16.66c1.36-1.55,2.58-3.2,3.94-4.75.36-.42-.31-1-.68-.54Z"/></g></g></g></svg>