<svg width="370" height="445" xmlns="http://www.w3.org/2000/svg">
 <defs>
  <clipPath id="clippath">
   <path id="svg_1" fill="none" stroke-width="0px" d="m213.33,120.5s19.4,4.09 29.43,-6.77c10.02,-10.86 17.46,-22.09 21.34,-18.42c0,0 7.44,-12.17 11.64,-7.64l29.75,-31.04s16.81,65.42 21.34,93.18c4.53,27.76 -1.94,78.2 -1.94,78.2c0,0 -79.59,-35.25 -96.71,-47.21c0,0 -22.61,-24.17 -20.02,-41.83c2.59,-17.66 5.17,-18.46 5.17,-18.46l0,-0.01z" class="cls-7"/>
  </clipPath>
  <clipPath id="clippath-1">
   <path id="svg_2" fill="none" stroke-width="0px" d="m154.56,117.74s-7.52,0.32 -17.54,13.9c-10.02,13.58 -30.72,28.46 -30.72,28.46c0,0 -4.2,-6.14 -7.76,-3.23l-3.56,2.91l-36.22,-30.07l0,66.85c0,32.76 3.08,91.51 3.08,91.51c0,0 31.6,-9.87 44.81,-23.45c13.22,-13.58 44.46,-80.27 44.46,-80.27c0,0 15.49,-63.05 3.44,-66.61l0.01,0z" class="cls-7"/>
  </clipPath>
  <clipPath id="clippath-2">
   <path id="svg_3" fill="none" stroke-width="0px" d="m145.59,143.52s-3.64,32.18 -4.37,53.77c-0.73,21.58 -47.53,175.92 -68.63,201.14c0,0 9.22,14.07 26.43,5.09c17.22,-8.97 57.72,-71 79.3,-138.01c0,0 12.13,-42.52 14.55,-56.1c0,0 1.58,52.58 15.07,113.01c17.11,76.63 61.81,77.7 74.42,80.61c0,0 -23.04,-57.81 -32.25,-117.23c-9.22,-59.42 -14.79,-85.85 -18.43,-94.34l-8.25,-49.72s-36.13,32.4 -77.85,1.77l0.01,0.01z" class="cls-7"/>
  </clipPath>
  <clipPath id="clippath-3">
   <path id="svg_4" fill="none" stroke-width="0px" d="m166.77,89.7c-0.22,-2.59 1.7,-4.86 4.29,-5.08c2.59,-0.22 4.86,1.7 5.08,4.29c0.22,2.59 -1.7,4.86 -4.29,5.08c-2.59,0.22 -4.86,-1.7 -5.08,-4.29z" class="cls-7"/>
  </clipPath>
  <clipPath id="clippath-4">
   <path id="svg_5" fill="none" stroke-width="0px" d="m188.1,84.57c-0.22,-2.59 1.7,-4.86 4.29,-5.08c2.59,-0.22 4.86,1.7 5.08,4.29c0.22,2.59 -1.7,4.86 -4.29,5.08c-2.59,0.22 -4.86,-1.7 -5.08,-4.29z" class="cls-7"/>
  </clipPath>
  <clipPath id="clippath-5">
   <path id="svg_6" fill="none" stroke-width="0px" d="m167.37,104.24s-8.22,-15.72 -12.81,-21.18c0,0 3.53,10.1 5.58,22.52c0,0 -2.67,1.25 -5.58,-1.25c0,0 -10.59,22.95 -11.56,40.74c-0.97,17.78 17.14,28.13 32.34,35.73c15.2,7.6 15.2,13.1 15.2,13.1c0,0 21.99,-7.6 33.47,-31.04c11.48,-23.44 -1.85,-61.92 -25.74,-78.82c0,0 9.58,17.77 -9.02,22.02c-18.59,4.25 -21.87,-1.81 -21.87,-1.81l-0.01,-0.01z" class="cls-7"/>
  </clipPath>
  <clipPath id="clippath-6">
   <path id="svg_7" fill="none" stroke-width="0px" d="m190.21,98.68s14.98,-9.15 17.97,8.28c2.99,17.43 2.41,30.63 12.58,35.15c0,0 -21.19,3.73 -30.25,-20.38c-9.06,-24.11 -0.3,-23.05 -0.3,-23.05z" class="cls-7"/>
  </clipPath>
  <clipPath id="clippath-7">
   <path id="svg_8" fill="none" stroke-width="0px" d="m186.33,102.06s-16.33,-8.41 -18.11,10.02c-1.78,18.43 -0.16,32.17 -10.43,37.67c0,0 22.39,2.26 29.99,-23.6c7.6,-25.87 -1.46,-24.09 -1.46,-24.09l0.01,0z" class="cls-7"/>
  </clipPath>
 </defs>
 <g>
  <title>Layer 1</title>
  <g id="svg_155">
   <ellipse id="svg_9" fill="#428dad" stroke-width="0px" ry="18.38" rx="141.09" cy="419.42" cx="172.7" class="cls-16"/>
   <g id="svg_10">
    <path id="svg_11" fill="#d8e6e6" stroke-width="0px" d="m146.4,89.3s0.9,2.41 -3.43,11.63s-8.61,23.01 -3.68,38.03l54.91,13.7s41.45,0.65 38.21,-30.23c-3.23,-30.88 -24.46,-27.12 -33.64,-50.67c-3.57,-11.81 -20.87,-7.67 -39.81,-1.39c-5.33,1.77 -9.34,9.38 -12.57,18.93l0.01,0z" class="cls-13"/>
    <path id="svg_12" fill="#2c5c9a" stroke-width="0px" d="m87.39,416.37s13.1,6.38 40.26,1.49c27.16,-4.89 22.31,4.09 47.53,4.09s18.88,-6.79 40.99,-6.79s24.01,7.28 49.72,-2.18c0,0 -76.88,-127.17 -74.69,-158.7c0,0 -5.09,-3.15 -14.79,18.43c-9.7,21.58 -81.3,143.7 -89,143.66l-0.02,0z" class="cls-15"/>
    <path id="svg_13" stroke-width="0px" fill="#0a85c8" d="m213.33,120.5s19.4,4.09 29.43,-6.77c10.02,-10.86 17.46,-22.09 21.34,-18.42c0,0 7.44,-12.17 11.64,-7.64l29.75,-31.04s16.81,65.42 21.34,93.18c4.53,27.76 -1.94,78.2 -1.94,78.2c0,0 -79.59,-35.25 -96.71,-47.21c0,0 -22.61,-24.17 -20.02,-41.83c2.59,-17.66 5.17,-18.46 5.17,-18.46l0,-0.01z" class="cls-1"/>
    <g id="svg_14" clip-path="url(#clippath)" class="cls-22">
     <path id="svg_15" fill="#1294db" stroke-width="0px" d="m297.88,65.95s-18.2,21.99 -20.14,25.54c0.21,14.71 -4.59,23.83 -4.59,23.83c0,0 3.5,-23.03 -1.29,-23.56c-4.79,-0.53 -8.73,10.31 -8.89,20.82s-9.86,27.65 -13.42,29.75c0,0 8.25,-15.3 9.54,-28.59c1.29,-13.29 -11.87,3.9 -19.35,2.66c0,0 8.85,-35.03 22.1,-43.6c13.26,-8.57 35.39,-13.86 36.04,-6.85z" class="cls-10"/>
     <path id="svg_16" fill="#0977b3" stroke-width="0px" d="m297.88,65.95s19.9,79.44 12.14,111.7c-7.76,32.25 -77.43,0 -77.43,0c0,0 -7.02,3.07 -6.63,6.99c0.39,3.92 74.55,50.53 85.85,44.69c11.3,-5.84 12.03,-2.36 13.72,-26.41c1.7,-24.05 -4.37,-118.81 -13.34,-129.39c-8.97,-10.58 -14.32,-7.57 -14.32,-7.57l0.01,-0.01z" class="cls-2"/>
     <path id="svg_17" fill="#0977b3" stroke-width="0px" d="m232.59,119.81s8.95,27.69 4.02,49.67c-4.93,21.99 -14.55,21.34 -23.93,24.41c-9.38,3.07 -20.25,6.31 -16.59,-8.25c3.66,-14.55 25.26,-56.91 24.64,-62.57c-0.62,-5.66 9.81,-10.84 11.85,-3.27l0.01,0.01z" class="cls-2"/>
    </g>
    <path id="svg_18" stroke-width="0px" fill="#0a85c8" d="m154.56,117.74s-7.52,0.32 -17.54,13.9c-10.02,13.58 -30.72,28.46 -30.72,28.46c0,0 -4.2,-6.14 -7.76,-3.23l-3.56,2.91l-36.22,-30.07l0,66.85c0,32.76 3.08,91.51 3.08,91.51c0,0 31.6,-9.87 44.81,-23.45c13.22,-13.58 44.46,-80.27 44.46,-80.27c0,0 15.49,-63.05 3.44,-66.61l0.01,0z" class="cls-1"/>
    <g id="svg_19" clip-path="url(#clippath-1)" class="cls-20">
     <path id="svg_20" fill="#0977b3" stroke-width="0px" d="m137.95,130.41s-8.61,24.44 5.21,37.05c13.82,12.61 25.71,13.58 20.61,31.28l-24.74,10.43l-1.09,8s13.22,8.73 28.86,4.85c0,0 -61.48,149.57 -94.22,176.4c0,0 -7.52,7.67 3.88,5.73s62.57,-51.17 77.12,-82.94c14.55,-31.77 35.16,-82.7 35.16,-102.83s11.4,-22.07 0,-42.2c-11.4,-20.13 -36.38,-58.45 -36.38,-58.45c0,0 -11.63,6.91 -14.43,12.67l0.02,0.01z" class="cls-2"/>
     <path id="svg_21" fill="#0977b3" stroke-width="0px" d="m141.36,193.89s-6.44,-10.81 -7.41,2.6c-0.97,13.41 -3.27,29.01 -3.27,29.01c0,0 17.23,-16.04 18.74,-30.37" class="cls-2"/>
     <path id="svg_22" fill="#1294db" stroke-width="0px" d="m130.68,225.5s-19.2,2.51 -22.92,13.99c-3.72,11.48 -21.47,35.71 -24.9,38.8l-3.42,3.1s12.62,12.42 29.52,-11.5c16.91,-23.93 22.33,-37.03 21.72,-44.38l0,-0.01z" class="cls-10"/>
     <path id="svg_23" fill="#0977b3" stroke-width="0px" d="m130.28,164.9c-8.78,-11.3 -16.97,-0.84 -21.32,2.32c0,0 1.47,8.5 -3.87,22.56c0,0 6.55,-22.07 -4.61,-25.47c0,0 0.73,14.31 -9.46,27.16c0,0 4.37,-26.68 -6.55,-35.65c-10.91,-8.97 -19.89,-9.22 -19.89,-9.22c0,0 0.1,129.15 14.85,134.78c0,0 -4.42,10.24 -20.67,10.97c-16.25,0.73 -6.63,-164.43 -6.63,-164.43c0,0 13.64,-8.38 32.45,-6.13c18.81,2.25 50.58,4.43 50.58,4.43l4.89,3.4s-0.98,46.57 -9.76,35.27l-0.01,0.01z" class="cls-2"/>
     <path id="svg_24" fill="#0977b3" stroke-width="0px" d="m141.36,193.89s-8.79,-25.25 -5.19,-47.95c0,0 -5.29,-1.2 -6.42,27.74c-1.13,28.94 0.93,51.81 0.93,51.81c0,0 12.92,-8.97 10.68,-31.6z" class="cls-2"/>
    </g>
    <path id="svg_25" stroke-width="0px" fill="#0a85c8" d="m145.59,143.52s-3.64,32.18 -4.37,53.77c-0.73,21.58 -47.53,175.92 -68.63,201.14c0,0 9.22,14.07 26.43,5.09c17.22,-8.97 57.72,-71 79.3,-138.01c0,0 12.13,-42.52 14.55,-56.1c0,0 1.58,52.58 15.07,113.01c17.11,76.63 61.81,77.7 74.42,80.61c0,0 -23.04,-57.81 -32.25,-117.23c-9.22,-59.42 -14.79,-85.85 -18.43,-94.34l-8.25,-49.72s-36.13,32.4 -77.85,1.77l0.01,0.01z" class="cls-1"/>
    <g id="svg_26" clip-path="url(#clippath-2)" class="cls-17">
     <path id="svg_27" fill="#0977b3" stroke-width="0px" d="m137.95,130.41s-8.61,24.44 5.21,37.05c13.82,12.61 25.71,13.58 20.61,31.28l-24.74,10.43l-1.09,8s13.22,8.73 28.86,4.85c0,0 -61.48,149.57 -94.22,176.4c0,0 -7.52,7.67 3.88,5.73s62.57,-51.17 77.12,-82.94c14.55,-31.77 35.16,-82.7 35.16,-102.83s11.4,-22.07 0,-42.2c-11.4,-20.13 -36.38,-58.45 -36.38,-58.45c0,0 -11.63,6.91 -14.43,12.67l0.02,0.01z" class="cls-2"/>
     <path id="svg_28" fill="#0977b3" stroke-width="0px" d="m232.59,119.81s8.95,27.69 4.02,49.67c-4.93,21.99 -14.55,21.34 -23.93,24.41c-9.38,3.07 -20.25,6.31 -16.59,-8.25c3.66,-14.55 25.26,-56.91 24.64,-62.57c-0.62,-5.66 9.81,-10.84 11.85,-3.27l0.01,0.01z" class="cls-2"/>
     <path id="svg_29" fill="#0977b3" stroke-width="0px" d="m239.85,206s-18.75,8.93 -30.07,11.01s-6.34,41.51 -6.89,54.06s-19.05,-30.46 -12.06,-49.53c6.99,-19.08 13.78,-24.55 27.03,-25.05c13.26,-0.5 22.9,-4.65 21.99,9.51z" class="cls-2"/>
     <path id="svg_30" fill="#1294db" stroke-width="0px" d="m237.01,210.9s-2.02,51.39 6.07,79.84c8.08,28.46 18.11,102.53 37.83,115.77c0,0 22.31,-7.13 20.05,-24.26c-2.26,-17.14 -63.95,-171.35 -63.95,-171.35z" class="cls-10"/>
    </g>
    <path id="svg_31" fill="#2c5c9a" stroke-width="0px" d="m307.1,54.08s4.37,-8.12 4.85,-14.27c0.49,-6.14 8.25,-0.16 5.98,6.47c0,0 9.54,-17.78 20.69,-12.13c11.16,5.66 -7.49,31.99 -21.53,41.05c0,0 -12.42,-13.16 -10,-21.13l0.01,0.01z" class="cls-15"/>
    <path id="svg_32" fill="#d8f0fa" stroke-width="0px" d="m282.37,403.03s7.6,-1.78 3.72,14.07c0,0 -40.1,13.46 -60.47,-14.13s-40.05,-133.17 -40.05,-133.17c0,0 -12.34,75.03 -55.99,121.59c-43.65,46.56 -70.81,20.86 -70.81,20.86c0,0 0.81,-16.98 13.82,-13.82s108.1,-108.01 112.98,-214.72l17.01,0l-5.82,49.96c2.67,34.92 30.07,160.4 85.61,169.37l0,-0.01z" class="cls-4"/>
    <path id="svg_33" fill="#f0b9be" stroke-width="0px" d="m196.52,69.72s4.12,2.18 3.4,6.79c-0.73,4.61 -1.65,7.52 -1.65,7.52c0,0 6.75,7.52 5.05,13.82s-7.22,17.08 -21.58,15.76c-16.73,-1.54 -25.22,-21.83 -27.16,-30.56c0,0 14.07,-21.58 41.96,-13.34l-0.02,0.01z" class="cls-14"/>
    <path id="svg_34" fill="#f0b9be" stroke-width="0px" d="m158.69,89.37s-8.25,-1.21 -7.52,6.79c0.73,8 7.19,15.93 15.64,4.61c0,0 -9.34,-5.09 -8.13,-11.4l0.01,0z" class="cls-14"/>
    <path id="svg_35" fill="#2c5c9a" stroke-width="0px" d="m194.2,62.3s-12.35,-18.28 -32.12,-11.61c-19.77,6.67 -13.94,29.59 -13.94,29.59c0,0 24.94,-16.31 46.06,-17.98z" class="cls-15"/>
    <path id="svg_36" fill="#d9effc" stroke-width="0px" d="m146.4,89.3s20.19,-21.65 52.37,-17.54c0,0 0.99,-7.29 -3.69,-9.07c0,0 -9.55,-5.47 -31.06,4.01c-21.5,9.48 -22.35,16.8 -17.62,22.61l0,-0.01z" class="cls-8"/>
    <path id="svg_37" fill="#d8f0fa" stroke-width="0px" d="m297.5,64.96s0.88,-7.91 9.61,-10.88c0,0 16.68,20.71 26.19,75.79c9.22,53.35 -3.15,99.43 -3.15,99.43c0,0 -11.54,0.79 -18.26,-7.12c0,0 23.51,-60.06 -14.39,-157.21l0,-0.01z" class="cls-4"/>
    <path id="svg_38" fill="#d8f0fa" stroke-width="0px" d="m58.77,129.71s-4.37,-5.66 -11.16,-6.63c0,0 -8.56,120.78 -3.71,163.7c0,0 7.03,3.8 17.95,1.29c0,0 -5.51,-102.43 -3.08,-158.37l0,0.01z" class="cls-4"/>
    <path id="svg_39" fill="#2c5c9a" stroke-width="0px" d="m36.54,123.08s-4.85,-2.1 -6.95,3.8c-2.1,5.9 -2.67,20.45 0.81,24.41c3.48,3.96 14.23,2.75 15.76,-2.99c1.54,-5.74 -1.86,-24.57 -9.62,-25.22z" class="cls-15"/>
    <path id="svg_40" fill="#d8f0fa" stroke-width="0px" d="m141.36,193.89s17.73,4.37 49.18,0c31.45,-4.37 39.59,-11.81 39.59,-11.81c0,0 6.8,7.67 3.42,15.11c0,0 -12.11,8.09 -47.97,11.97c-35.86,3.88 -46.53,0 -46.53,0c0,0 -3.61,-9.46 2.32,-15.28l-0.01,0.01z" class="cls-4"/>
    <path id="svg_41" fill="#428dad" stroke-width="0px" d="m46.2,76.35s-30.22,339.93 -36.66,339.93s29.1,-340.66 29.1,-340.66c0.18,-2.09 2.02,-3.64 4.11,-3.46c2.09,0.18 3.64,2.02 3.46,4.11c0,0.02 0,0.06 0,0.08l-0.01,0z" class="cls-16"/>
    <path id="svg_42" fill="#2c5c9a" stroke-width="0px" d="m47.61,123.08s-11.72,-4.45 -14.71,3.23c-2.99,7.68 -2.26,14.63 -1.46,16.09s4.77,3.31 7.11,-4.2c0,0 -0.32,6.37 7.44,7.02c0,0 1.69,-20.36 1.61,-22.14l0.01,0z" class="cls-15"/>
    <g id="svg_43">
     <path id="svg_44" fill="#428dad" stroke-width="0px" d="m43.37,60.88l0,0c1.91,0 3.74,0.44 5.46,1.32c2.87,1.46 4.99,3.95 5.98,7.01c0.99,3.06 0.74,6.32 -0.72,9.19c-2.07,4.06 -6.18,6.58 -10.74,6.58c-1.91,0 -3.74,-0.44 -5.46,-1.32c-2.87,-1.46 -4.99,-3.95 -5.98,-7.01c-0.99,-3.06 -0.74,-6.32 0.72,-9.19c2.07,-4.06 6.18,-6.58 10.74,-6.58m0,-1.9c-5.08,0 -9.97,2.78 -12.43,7.61c-3.5,6.86 -0.77,15.25 6.09,18.75c2.03,1.03 4.19,1.52 6.32,1.52c5.07,0 9.97,-2.78 12.43,-7.61c3.5,-6.86 0.77,-15.25 -6.09,-18.75c-2.03,-1.03 -4.19,-1.52 -6.32,-1.52l0,0z" class="cls-16"/>
     <g id="svg_45">
      <path id="svg_46" fill="#428dad" stroke-width="0px" d="m42.89,73.06c-0.14,0 -0.29,-0.03 -0.43,-0.1c-0.47,-0.24 -0.65,-0.81 -0.41,-1.28l15.76,-30.93c0.24,-0.47 0.81,-0.65 1.28,-0.41c0.47,0.24 0.65,0.81 0.41,1.28l-15.76,30.93c-0.17,0.33 -0.5,0.52 -0.85,0.52l0,-0.01z" class="cls-16"/>
      <g id="svg_47">
       <path id="svg_48" fill="#428dad" stroke-width="0px" d="m51.56,56.05c-0.45,0 -0.84,-0.32 -0.93,-0.77l-2.09,-10.86c-0.1,-0.51 0.24,-1.01 0.75,-1.11c0.51,-0.1 1.01,0.24 1.11,0.75l2.09,10.86c0.1,0.51 -0.24,1.01 -0.75,1.11c-0.06,0.01 -0.12,0.02 -0.18,0.02z" class="cls-16"/>
       <path id="svg_49" fill="#428dad" stroke-width="0px" d="m51.56,56.05c-0.36,0 -0.7,-0.2 -0.86,-0.55c-0.22,-0.47 -0.02,-1.04 0.46,-1.26l10.01,-4.7c0.48,-0.22 1.04,-0.02 1.26,0.46c0.22,0.47 0.02,1.04 -0.46,1.26l-10.01,4.7c-0.13,0.06 -0.27,0.09 -0.4,0.09z" class="cls-16"/>
      </g>
      <g id="svg_50">
       <path id="svg_51" fill="#428dad" stroke-width="0px" d="m54.9,49.49c-0.45,0 -0.84,-0.32 -0.93,-0.77l-2.09,-10.86c-0.1,-0.51 0.24,-1.01 0.75,-1.11c0.51,-0.09 1.01,0.24 1.11,0.75l2.09,10.86c0.1,0.51 -0.24,1.01 -0.75,1.11c-0.06,0.01 -0.12,0.02 -0.18,0.02z" class="cls-16"/>
       <path id="svg_52" fill="#428dad" stroke-width="0px" d="m54.9,49.49c-0.36,0 -0.7,-0.2 -0.86,-0.55c-0.22,-0.47 -0.02,-1.04 0.46,-1.26l10.01,-4.7c0.48,-0.22 1.04,-0.02 1.26,0.46c0.22,0.47 0.02,1.04 -0.46,1.26l-10.01,4.7c-0.13,0.06 -0.27,0.09 -0.4,0.09z" class="cls-16"/>
      </g>
      <path id="svg_53" fill="#428dad" stroke-width="0px" d="m60.44,42.56c-0.77,0 -1.52,-0.18 -2.23,-0.54c-1.17,-0.6 -2.04,-1.61 -2.44,-2.86c-0.41,-1.25 -0.3,-2.58 0.3,-3.75l0,0c0.6,-1.17 1.61,-2.04 2.86,-2.44c1.25,-0.41 2.58,-0.3 3.75,0.3c2.41,1.23 3.37,4.19 2.15,6.61c-0.6,1.17 -1.61,2.04 -2.86,2.44c-0.5,0.16 -1.01,0.24 -1.52,0.24l-0.01,0zm0,-7.93c-0.31,0 -0.63,0.05 -0.93,0.15c-0.77,0.25 -1.39,0.78 -1.75,1.5l0,0c-0.36,0.72 -0.43,1.53 -0.18,2.3c0.25,0.77 0.78,1.39 1.5,1.75c1.48,0.76 3.3,0.16 4.05,-1.32c0.75,-1.48 0.16,-3.3 -1.32,-4.05c-0.43,-0.22 -0.9,-0.33 -1.36,-0.33l-0.01,0zm-3.53,1.21l0,0l0,0z" class="cls-16"/>
     </g>
     <g id="svg_54">
      <path id="svg_55" fill="#428dad" stroke-width="0px" d="m42.89,73.06c-0.4,0 -0.77,-0.26 -0.9,-0.66l-10.72,-33.02c-0.16,-0.5 0.11,-1.03 0.61,-1.2c0.5,-0.16 1.03,0.11 1.2,0.61l10.72,33.02c0.16,0.5 -0.11,1.03 -0.61,1.2c-0.1,0.03 -0.2,0.05 -0.29,0.05l-0.01,0z" class="cls-16"/>
      <g id="svg_56">
       <path id="svg_57" fill="#428dad" stroke-width="0px" d="m36.99,54.9c-0.18,0 -0.37,-0.05 -0.53,-0.16l-9.16,-6.21c-0.43,-0.29 -0.55,-0.88 -0.25,-1.32c0.3,-0.43 0.88,-0.55 1.32,-0.25l9.16,6.21c0.43,0.3 0.55,0.88 0.25,1.32c-0.18,0.27 -0.48,0.42 -0.79,0.42l0,-0.01z" class="cls-16"/>
       <path id="svg_58" fill="#428dad" stroke-width="0px" d="m36.99,54.9c-0.11,0 -0.22,-0.02 -0.32,-0.06c-0.49,-0.18 -0.75,-0.72 -0.57,-1.22l3.76,-10.4c0.18,-0.49 0.72,-0.75 1.22,-0.57c0.49,0.18 0.75,0.72 0.57,1.22l-3.76,10.4c-0.14,0.39 -0.5,0.63 -0.89,0.63l-0.01,0z" class="cls-16"/>
      </g>
      <g id="svg_59">
       <path id="svg_60" fill="#428dad" stroke-width="0px" d="m34.71,47.9c-0.18,0 -0.37,-0.05 -0.53,-0.16l-9.16,-6.21c-0.43,-0.3 -0.55,-0.88 -0.25,-1.32c0.29,-0.43 0.88,-0.55 1.32,-0.25l9.16,6.21c0.43,0.29 0.55,0.88 0.25,1.32c-0.18,0.27 -0.48,0.42 -0.79,0.42l0,-0.01z" class="cls-16"/>
       <path id="svg_61" fill="#428dad" stroke-width="0px" d="m34.71,47.9c-0.11,0 -0.22,-0.02 -0.32,-0.06c-0.49,-0.18 -0.75,-0.72 -0.57,-1.22l3.76,-10.4c0.18,-0.49 0.73,-0.75 1.22,-0.57c0.49,0.18 0.75,0.72 0.57,1.22l-3.76,10.4c-0.14,0.39 -0.5,0.63 -0.89,0.63l-0.01,0z" class="cls-16"/>
      </g>
      <path id="svg_62" fill="#428dad" stroke-width="0px" d="m30.94,40.24c-2.07,0 -4,-1.32 -4.67,-3.4c-0.41,-1.25 -0.3,-2.58 0.29,-3.75s1.61,-2.04 2.86,-2.44c1.25,-0.41 2.58,-0.3 3.75,0.3c1.17,0.6 2.04,1.61 2.44,2.86c0.84,2.58 -0.58,5.35 -3.15,6.19c-0.5,0.16 -1.01,0.24 -1.51,0.24l-0.01,0zm0,-7.92c-0.31,0 -0.62,0.05 -0.93,0.15c-0.77,0.25 -1.39,0.78 -1.75,1.5c-0.37,0.72 -0.43,1.53 -0.18,2.3l0,0c0.51,1.58 2.21,2.45 3.79,1.93c1.58,-0.51 2.45,-2.22 1.93,-3.79c-0.41,-1.27 -1.6,-2.08 -2.87,-2.08l0.01,-0.01z" class="cls-16"/>
     </g>
     <g id="svg_63">
      <path id="svg_64" fill="#428dad" stroke-width="0px" d="m42.89,73.06c-0.14,0 -0.29,-0.03 -0.43,-0.1l-30.93,-15.76c-0.47,-0.24 -0.65,-0.81 -0.41,-1.28c0.24,-0.47 0.81,-0.66 1.28,-0.41l30.93,15.76c0.47,0.24 0.65,0.81 0.41,1.28c-0.17,0.33 -0.5,0.52 -0.85,0.52l0,-0.01z" class="cls-16"/>
      <g id="svg_65">
       <path id="svg_66" fill="#428dad" stroke-width="0px" d="m15.01,66.48c-0.45,0 -0.85,-0.32 -0.93,-0.77c-0.1,-0.51 0.24,-1.01 0.75,-1.11l10.86,-2.09c0.51,-0.1 1.01,0.24 1.11,0.75c0.1,0.51 -0.24,1.01 -0.75,1.11l-10.86,2.09c-0.06,0.01 -0.12,0.02 -0.18,0.02z" class="cls-16"/>
       <path id="svg_67" fill="#428dad" stroke-width="0px" d="m25.88,64.39c-0.36,0 -0.7,-0.2 -0.86,-0.55l-4.69,-10.01c-0.22,-0.47 -0.02,-1.04 0.46,-1.26c0.48,-0.22 1.04,-0.02 1.26,0.46l4.69,10.01c0.22,0.47 0.02,1.04 -0.46,1.26c-0.13,0.06 -0.27,0.09 -0.4,0.09z" class="cls-16"/>
      </g>
      <g id="svg_68">
       <path id="svg_69" fill="#428dad" stroke-width="0px" d="m8.46,63.13c-0.45,0 -0.84,-0.32 -0.93,-0.77c-0.1,-0.51 0.24,-1.01 0.75,-1.11l10.86,-2.09c0.51,-0.1 1.01,0.24 1.11,0.75c0.1,0.51 -0.24,1.01 -0.75,1.11l-10.86,2.09c-0.06,0.01 -0.12,0.02 -0.18,0.02z" class="cls-16"/>
       <path id="svg_70" fill="#428dad" stroke-width="0px" d="m19.32,61.05c-0.36,0 -0.7,-0.2 -0.86,-0.55l-4.69,-10.01c-0.22,-0.48 -0.02,-1.04 0.46,-1.26c0.48,-0.22 1.04,-0.02 1.26,0.46l4.69,10.01c0.22,0.47 0.02,1.04 -0.46,1.26c-0.13,0.06 -0.27,0.09 -0.4,0.09z" class="cls-16"/>
      </g>
      <path id="svg_71" fill="#428dad" stroke-width="0px" d="m8.43,59.46c-0.77,0 -1.52,-0.18 -2.23,-0.54c-1.17,-0.59 -2.04,-1.61 -2.44,-2.86c-0.41,-1.25 -0.3,-2.58 0.3,-3.75c0.6,-1.17 1.61,-2.04 2.86,-2.44c1.25,-0.41 2.58,-0.3 3.75,0.3c2.41,1.23 3.38,4.19 2.15,6.61c-0.6,1.17 -1.61,2.04 -2.86,2.44c-0.5,0.16 -1.01,0.24 -1.52,0.24l-0.01,0zm0,-7.93c-0.31,0 -0.63,0.05 -0.93,0.15c-0.77,0.25 -1.39,0.78 -1.75,1.5c-0.36,0.72 -0.43,1.53 -0.18,2.3c0.25,0.76 0.78,1.39 1.5,1.75l0,0c1.48,0.75 3.3,0.16 4.05,-1.32c0.75,-1.48 0.16,-3.3 -1.32,-4.05c-0.43,-0.22 -0.9,-0.33 -1.36,-0.33l-0.01,0z" class="cls-16"/>
     </g>
     <g id="svg_72">
      <path id="svg_73" fill="#428dad" stroke-width="0px" d="m9.87,83.78c-0.4,0 -0.77,-0.26 -0.9,-0.66c-0.16,-0.5 0.11,-1.03 0.61,-1.2l33.02,-10.72c0.5,-0.16 1.03,0.11 1.2,0.61c0.16,0.5 -0.11,1.03 -0.61,1.2l-33.02,10.72c-0.1,0.03 -0.2,0.05 -0.29,0.05l-0.01,0z" class="cls-16"/>
      <g id="svg_74">
       <path id="svg_75" fill="#428dad" stroke-width="0px" d="m18.52,88.11c-0.18,0 -0.37,-0.05 -0.53,-0.16c-0.43,-0.29 -0.55,-0.88 -0.25,-1.32l6.21,-9.16c0.29,-0.43 0.88,-0.55 1.32,-0.25c0.43,0.3 0.55,0.89 0.25,1.32l-6.21,9.16c-0.18,0.27 -0.48,0.42 -0.79,0.42l0,-0.01z" class="cls-16"/>
       <path id="svg_76" fill="#428dad" stroke-width="0px" d="m24.73,78.96c-0.11,0 -0.22,-0.02 -0.32,-0.06l-10.4,-3.76c-0.49,-0.18 -0.75,-0.72 -0.57,-1.22c0.18,-0.49 0.72,-0.75 1.22,-0.57l10.4,3.76c0.49,0.18 0.75,0.72 0.57,1.22c-0.14,0.39 -0.5,0.63 -0.89,0.63l-0.01,0z" class="cls-16"/>
      </g>
      <g id="svg_77">
       <path id="svg_78" fill="#428dad" stroke-width="0px" d="m11.52,90.39c-0.18,0 -0.37,-0.05 -0.53,-0.16c-0.43,-0.29 -0.55,-0.88 -0.25,-1.32l6.21,-9.16c0.3,-0.43 0.88,-0.55 1.32,-0.25c0.43,0.3 0.55,0.88 0.25,1.32l-6.21,9.16c-0.18,0.27 -0.48,0.42 -0.79,0.42l0,-0.01z" class="cls-16"/>
       <path id="svg_79" fill="#428dad" stroke-width="0px" d="m17.73,81.23c-0.11,0 -0.22,-0.02 -0.32,-0.06l-10.4,-3.76c-0.49,-0.18 -0.75,-0.72 -0.57,-1.22c0.18,-0.49 0.73,-0.75 1.22,-0.57l10.4,3.76c0.49,0.18 0.75,0.72 0.57,1.22c-0.14,0.39 -0.5,0.63 -0.89,0.63l-0.01,0z" class="cls-16"/>
      </g>
      <path id="svg_80" fill="#428dad" stroke-width="0px" d="m6.11,88.97c-2.07,0 -4,-1.32 -4.67,-3.39c-0.84,-2.58 0.58,-5.35 3.15,-6.19c1.25,-0.41 2.58,-0.3 3.75,0.29s2.04,1.61 2.44,2.86c0.41,1.25 0.3,2.58 -0.29,3.75c-0.6,1.17 -1.61,2.04 -2.86,2.44l0,0c-0.5,0.16 -1.01,0.24 -1.51,0.24l-0.01,0zm1.22,-1.14l0,0l0,0zm-1.22,-6.78c-0.31,0 -0.63,0.05 -0.93,0.15c-1.58,0.51 -2.45,2.22 -1.93,3.79c0.51,1.58 2.22,2.45 3.79,1.93c1.58,-0.51 2.45,-2.22 1.93,-3.79c-0.25,-0.77 -0.78,-1.39 -1.5,-1.75c-0.43,-0.22 -0.9,-0.33 -1.36,-0.33z" class="cls-16"/>
     </g>
     <g id="svg_81">
      <path id="svg_82" fill="#428dad" stroke-width="0px" d="m26.91,104.41c-0.14,0 -0.29,-0.03 -0.43,-0.1c-0.47,-0.24 -0.65,-0.81 -0.41,-1.28l15.98,-31.35c0.24,-0.47 0.81,-0.65 1.28,-0.41c0.47,0.24 0.65,0.81 0.41,1.28l-15.98,31.35c-0.17,0.33 -0.5,0.52 -0.85,0.52l0,-0.01z" class="cls-16"/>
      <g id="svg_83">
       <path id="svg_84" fill="#428dad" stroke-width="0px" d="m36.3,100.93c-0.45,0 -0.84,-0.32 -0.93,-0.77l-2.09,-10.86c-0.1,-0.51 0.24,-1.01 0.75,-1.11c0.51,-0.1 1.01,0.24 1.11,0.75l2.09,10.86c0.1,0.51 -0.24,1.01 -0.75,1.11c-0.06,0.01 -0.12,0.02 -0.18,0.02z" class="cls-16"/>
       <path id="svg_85" fill="#428dad" stroke-width="0px" d="m24.21,94.77c-0.36,0 -0.7,-0.2 -0.86,-0.55c-0.22,-0.47 -0.02,-1.04 0.46,-1.26l10.01,-4.7c0.48,-0.22 1.04,-0.02 1.26,0.46c0.22,0.47 0.02,1.04 -0.46,1.26l-10.01,4.7c-0.13,0.06 -0.27,0.09 -0.4,0.09z" class="cls-16"/>
      </g>
      <g id="svg_86">
       <path id="svg_87" fill="#428dad" stroke-width="0px" d="m32.96,107.49c-0.45,0 -0.84,-0.32 -0.93,-0.77l-2.09,-10.86c-0.1,-0.51 0.24,-1.01 0.75,-1.11c0.51,-0.1 1.01,0.24 1.11,0.75l2.09,10.86c0.1,0.51 -0.24,1.01 -0.75,1.11c-0.06,0.01 -0.12,0.02 -0.18,0.02z" class="cls-16"/>
       <path id="svg_88" fill="#428dad" stroke-width="0px" d="m20.86,101.32c-0.36,0 -0.7,-0.2 -0.86,-0.55c-0.22,-0.47 -0.02,-1.04 0.46,-1.26l10.01,-4.7c0.48,-0.22 1.04,-0.02 1.26,0.46c0.22,0.48 0.02,1.04 -0.46,1.26l-10.01,4.7c-0.13,0.06 -0.27,0.09 -0.4,0.09z" class="cls-16"/>
      </g>
      <path id="svg_89" fill="#428dad" stroke-width="0px" d="m25.32,111.48c-0.77,0 -1.52,-0.18 -2.23,-0.54c-2.41,-1.23 -3.37,-4.19 -2.15,-6.6c0.6,-1.17 1.61,-2.04 2.86,-2.44c1.25,-0.41 2.58,-0.3 3.75,0.3c2.41,1.23 3.38,4.19 2.15,6.61l0,0c-0.6,1.17 -1.61,2.04 -2.86,2.44c-0.5,0.16 -1.01,0.24 -1.52,0.24l0,-0.01zm0,-7.93c-0.31,0 -0.63,0.05 -0.93,0.15c-0.77,0.25 -1.39,0.78 -1.75,1.5c-0.75,1.48 -0.16,3.3 1.32,4.05c1.48,0.76 3.3,0.16 4.05,-1.32l0,0c0.75,-1.48 0.16,-3.3 -1.32,-4.05c-0.43,-0.22 -0.9,-0.33 -1.36,-0.33l-0.01,0zm3.53,4.81l0,0l0,0z" class="cls-16"/>
     </g>
     <g id="svg_90">
      <path id="svg_91" fill="#428dad" stroke-width="0px" d="m53.61,106.08c-0.4,0 -0.77,-0.26 -0.9,-0.66l-10.72,-33.02c-0.16,-0.5 0.11,-1.03 0.61,-1.2c0.5,-0.16 1.03,0.11 1.2,0.61l10.72,33.02c0.16,0.5 -0.11,1.03 -0.61,1.2c-0.1,0.03 -0.2,0.05 -0.29,0.05l-0.01,0z" class="cls-16"/>
      <g id="svg_92">
       <path id="svg_93" fill="#428dad" stroke-width="0px" d="m57.94,97.42c-0.18,0 -0.37,-0.05 -0.53,-0.16l-9.16,-6.21c-0.43,-0.3 -0.55,-0.88 -0.25,-1.32c0.3,-0.43 0.89,-0.55 1.32,-0.25l9.16,6.21c0.43,0.3 0.55,0.88 0.25,1.32c-0.18,0.27 -0.48,0.42 -0.79,0.42l0,-0.01z" class="cls-16"/>
       <path id="svg_94" fill="#428dad" stroke-width="0px" d="m45.02,101.62c-0.11,0 -0.22,-0.02 -0.32,-0.06c-0.49,-0.18 -0.75,-0.72 -0.57,-1.22l3.76,-10.4c0.18,-0.49 0.73,-0.75 1.22,-0.57c0.49,0.18 0.75,0.72 0.57,1.22l-3.76,10.4c-0.14,0.39 -0.5,0.63 -0.89,0.63l-0.01,0z" class="cls-16"/>
      </g>
      <g id="svg_95">
       <path id="svg_96" fill="#428dad" stroke-width="0px" d="m60.22,104.43c-0.18,0 -0.37,-0.05 -0.53,-0.16l-9.16,-6.21c-0.44,-0.3 -0.55,-0.89 -0.25,-1.32c0.3,-0.43 0.89,-0.55 1.32,-0.25l9.16,6.21c0.44,0.3 0.55,0.89 0.25,1.32c-0.18,0.27 -0.48,0.42 -0.79,0.42l0,-0.01z" class="cls-16"/>
       <path id="svg_97" fill="#428dad" stroke-width="0px" d="m47.3,108.62c-0.11,0 -0.22,-0.02 -0.32,-0.06c-0.49,-0.18 -0.75,-0.72 -0.57,-1.22l3.76,-10.4c0.18,-0.49 0.72,-0.75 1.22,-0.57c0.49,0.18 0.75,0.72 0.57,1.22l-3.76,10.4c-0.14,0.39 -0.5,0.63 -0.89,0.63l-0.01,0z" class="cls-16"/>
      </g>
      <path id="svg_98" fill="#428dad" stroke-width="0px" d="m54.83,113.81c-0.76,0 -1.52,-0.18 -2.22,-0.54c-1.17,-0.6 -2.04,-1.61 -2.44,-2.86c-0.84,-2.58 0.58,-5.35 3.15,-6.19c1.25,-0.4 2.58,-0.3 3.75,0.29c1.17,0.6 2.04,1.61 2.44,2.86c0.41,1.25 0.3,2.58 -0.3,3.75s-1.61,2.04 -2.86,2.44c-0.5,0.16 -1.01,0.24 -1.52,0.24l0,0.01zm0,-7.93c-0.31,0 -0.63,0.05 -0.93,0.15c-1.58,0.51 -2.45,2.21 -1.93,3.79c0.51,1.58 2.21,2.45 3.79,1.93c0.77,-0.25 1.39,-0.78 1.75,-1.5c0.37,-0.72 0.43,-1.53 0.18,-2.3l0,0c-0.25,-0.77 -0.78,-1.39 -1.5,-1.75c-0.43,-0.22 -0.9,-0.33 -1.36,-0.33l0,0.01z" class="cls-16"/>
     </g>
     <g id="svg_99">
      <path id="svg_100" fill="#428dad" stroke-width="0px" d="m73.82,88.82c-0.14,0 -0.29,-0.03 -0.43,-0.1l-30.93,-15.76c-0.47,-0.24 -0.65,-0.81 -0.41,-1.28c0.24,-0.47 0.81,-0.65 1.28,-0.41l30.93,15.76c0.47,0.24 0.65,0.81 0.41,1.28c-0.17,0.33 -0.5,0.52 -0.85,0.52l0,-0.01z" class="cls-16"/>
      <g id="svg_101">
       <path id="svg_102" fill="#428dad" stroke-width="0px" d="m59.9,81.73c-0.45,0 -0.84,-0.32 -0.93,-0.77c-0.1,-0.51 0.24,-1.01 0.75,-1.11l10.86,-2.09c0.51,-0.1 1.01,0.24 1.11,0.75c0.1,0.51 -0.24,1.01 -0.75,1.11l-10.86,2.09c-0.06,0.01 -0.12,0.02 -0.18,0.02z" class="cls-16"/>
       <path id="svg_103" fill="#428dad" stroke-width="0px" d="m64.59,91.74c-0.36,0 -0.7,-0.2 -0.86,-0.55l-4.69,-10.01c-0.22,-0.47 -0.02,-1.04 0.46,-1.26c0.48,-0.22 1.04,-0.02 1.26,0.46l4.69,10.01c0.22,0.48 0.02,1.04 -0.46,1.26c-0.13,0.06 -0.27,0.09 -0.4,0.09z" class="cls-16"/>
      </g>
      <g id="svg_104">
       <path id="svg_105" fill="#428dad" stroke-width="0px" d="m66.46,85.07c-0.45,0 -0.85,-0.32 -0.93,-0.77c-0.1,-0.51 0.24,-1.01 0.75,-1.11l10.86,-2.09c0.51,-0.1 1.01,0.24 1.11,0.75c0.1,0.51 -0.24,1.01 -0.75,1.11l-10.86,2.09c-0.06,0.01 -0.12,0.02 -0.18,0.02z" class="cls-16"/>
       <path id="svg_106" fill="#428dad" stroke-width="0px" d="m71.15,95.09c-0.36,0 -0.7,-0.2 -0.86,-0.55l-4.7,-10.01c-0.22,-0.47 -0.02,-1.04 0.46,-1.26c0.48,-0.22 1.04,-0.02 1.26,0.46l4.7,10.01c0.22,0.48 0.02,1.04 -0.46,1.26c-0.13,0.06 -0.27,0.09 -0.4,0.09z" class="cls-16"/>
      </g>
      <path id="svg_107" fill="#428dad" stroke-width="0px" d="m77.34,94.58c-0.77,0 -1.52,-0.18 -2.23,-0.54c-2.41,-1.23 -3.38,-4.19 -2.15,-6.61c0.6,-1.17 1.61,-2.04 2.86,-2.44c1.25,-0.41 2.58,-0.3 3.75,0.3c1.17,0.6 2.04,1.61 2.44,2.86s0.3,2.58 -0.3,3.75c-0.6,1.17 -1.61,2.04 -2.86,2.44c-0.5,0.16 -1.01,0.24 -1.52,0.24l0.01,0zm0,-7.93c-0.31,0 -0.63,0.05 -0.93,0.15c-0.77,0.25 -1.39,0.78 -1.75,1.5c-0.75,1.48 -0.16,3.3 1.32,4.05c0.72,0.36 1.53,0.43 2.3,0.18c0.77,-0.25 1.39,-0.78 1.75,-1.5c0.36,-0.72 0.43,-1.53 0.18,-2.3c-0.25,-0.77 -0.78,-1.39 -1.5,-1.75c-0.43,-0.22 -0.9,-0.33 -1.36,-0.33l-0.01,0z" class="cls-16"/>
     </g>
     <g id="svg_108">
      <path id="svg_109" fill="#428dad" stroke-width="0px" d="m42.89,73.06c-0.4,0 -0.77,-0.26 -0.9,-0.66c-0.16,-0.5 0.11,-1.03 0.61,-1.2l33.02,-10.72c0.5,-0.16 1.03,0.11 1.2,0.61c0.16,0.5 -0.11,1.03 -0.61,1.2l-33.02,10.72c-0.1,0.03 -0.2,0.05 -0.29,0.05l-0.01,0z" class="cls-16"/>
      <g id="svg_110">
       <path id="svg_111" fill="#428dad" stroke-width="0px" d="m61.05,67.16c-0.18,0 -0.37,-0.05 -0.53,-0.16c-0.43,-0.3 -0.55,-0.89 -0.25,-1.32l6.21,-9.16c0.29,-0.43 0.88,-0.55 1.32,-0.25c0.43,0.29 0.55,0.88 0.25,1.32l-6.21,9.16c-0.18,0.27 -0.48,0.42 -0.79,0.42l0,-0.01z" class="cls-16"/>
       <path id="svg_112" fill="#428dad" stroke-width="0px" d="m71.45,70.92c-0.11,0 -0.22,-0.02 -0.32,-0.06l-10.4,-3.76c-0.49,-0.18 -0.75,-0.72 -0.57,-1.22c0.18,-0.49 0.72,-0.75 1.22,-0.57l10.4,3.76c0.49,0.18 0.75,0.72 0.57,1.22c-0.14,0.39 -0.5,0.63 -0.89,0.63l-0.01,0z" class="cls-16"/>
      </g>
      <g id="svg_113">
       <path id="svg_114" fill="#428dad" stroke-width="0px" d="m68.05,64.89c-0.18,0 -0.37,-0.05 -0.53,-0.16c-0.43,-0.3 -0.55,-0.88 -0.25,-1.32l6.21,-9.16c0.29,-0.43 0.88,-0.55 1.32,-0.25c0.43,0.29 0.55,0.88 0.25,1.32l-6.21,9.16c-0.18,0.27 -0.48,0.42 -0.79,0.42l0,-0.01z" class="cls-16"/>
       <path id="svg_115" fill="#428dad" stroke-width="0px" d="m78.45,68.65c-0.11,0 -0.22,-0.02 -0.32,-0.06l-10.4,-3.76c-0.49,-0.18 -0.75,-0.72 -0.57,-1.22c0.18,-0.49 0.72,-0.75 1.22,-0.57l10.4,3.76c0.49,0.18 0.75,0.72 0.57,1.22c-0.14,0.39 -0.5,0.63 -0.89,0.63l-0.01,0z" class="cls-16"/>
      </g>
      <path id="svg_116" fill="#428dad" stroke-width="0px" d="m79.67,65.08c-0.76,0 -1.52,-0.18 -2.22,-0.54c-1.17,-0.6 -2.04,-1.61 -2.44,-2.86c-0.41,-1.25 -0.3,-2.58 0.3,-3.75s1.61,-2.04 2.86,-2.44l0,0c2.58,-0.84 5.35,0.58 6.19,3.15c0.84,2.58 -0.58,5.35 -3.15,6.19c-0.5,0.16 -1.01,0.24 -1.52,0.24l-0.02,0.01zm-0.93,-7.78c-1.58,0.51 -2.45,2.22 -1.93,3.79c0.25,0.77 0.78,1.39 1.5,1.75s1.53,0.43 2.3,0.18c1.58,-0.51 2.45,-2.21 1.93,-3.79c-0.51,-1.58 -2.21,-2.45 -3.79,-1.93l0,0l-0.01,0z" class="cls-16"/>
     </g>
    </g>
    <path id="svg_117" fill="#f5fbfb" stroke-width="0px" d="m175.74,83.47s-5.33,-1.02 -8.93,1.11c-3.6,2.13 -5.78,5.12 -5.78,5.12c0,0 -2.91,-7.6 3.72,-10.75c6.63,-3.15 9.7,1.37 10.99,4.53l0,-0.01z" class="cls-6"/>
    <path id="svg_118" fill="#f5fbfb" stroke-width="0px" d="m200.37,80.69s-3.84,-2.55 -7.36,-2.07c-3.52,0.48 -6.21,2.11 -6.21,2.11c0,0 0.22,-6.91 6.45,-7.2s7.15,4.27 7.12,7.16z" class="cls-6"/>
    <g id="svg_119">
     <g id="svg_120">
      <path id="svg_121" fill="#fff" stroke-width="0px" d="m166.77,89.7c-0.22,-2.59 1.7,-4.86 4.29,-5.08c2.59,-0.22 4.86,1.7 5.08,4.29c0.22,2.59 -1.7,4.86 -4.29,5.08c-2.59,0.22 -4.86,-1.7 -5.08,-4.29z" class="cls-12"/>
      <g id="svg_122" clip-path="url(#clippath-3)" class="cls-23">
       <path id="svg_123" stroke-width="0px" d="m175.96,86.59c-1.17,-1.54 -3.37,-1.85 -4.92,-0.67c-1.32,1 -1.72,2.75 -1.09,4.2l2.59,-0.92l-1.48,2.32c1.22,0.92 2.94,0.97 4.22,0c1.54,-1.17 1.85,-3.37 0.67,-4.92l0.01,-0.01z" class="cls-5"/>
      </g>
     </g>
     <path id="svg_124" stroke-width="0px" d="m166.77,89.7c-0.29,-1.22 0.03,-2.6 0.84,-3.64c0.8,-1.06 2.08,-1.75 3.42,-1.86c1.34,-0.11 2.72,0.35 3.68,1.27c0.97,0.89 1.52,2.21 1.44,3.45c-0.28,-1.21 -0.95,-2.25 -1.87,-2.94c-0.92,-0.69 -2.06,-1.03 -3.18,-0.92c-1.12,0.08 -2.19,0.61 -2.98,1.44c-0.79,0.84 -1.27,1.97 -1.35,3.21l0,-0.01z" class="cls-5"/>
    </g>
    <g id="svg_125">
     <g id="svg_126">
      <path id="svg_127" fill="#fff" stroke-width="0px" d="m188.1,84.57c-0.22,-2.59 1.7,-4.86 4.29,-5.08c2.59,-0.22 4.86,1.7 5.08,4.29c0.22,2.59 -1.7,4.86 -4.29,5.08c-2.59,0.22 -4.86,-1.7 -5.08,-4.29z" class="cls-12"/>
      <g id="svg_128" clip-path="url(#clippath-4)" class="cls-21">
       <path id="svg_129" stroke-width="0px" d="m197.28,81.46c-1.17,-1.54 -3.37,-1.85 -4.92,-0.67c-1.32,1 -1.72,2.75 -1.09,4.2l2.59,-0.92l-1.48,2.32c1.22,0.92 2.94,0.97 4.22,0c1.54,-1.17 1.85,-3.37 0.67,-4.92l0.01,-0.01z" class="cls-5"/>
      </g>
     </g>
     <path id="svg_130" stroke-width="0px" d="m188.1,84.57c-0.29,-1.22 0.03,-2.6 0.84,-3.64c0.8,-1.06 2.08,-1.75 3.42,-1.86c1.34,-0.11 2.72,0.35 3.68,1.26c0.97,0.89 1.52,2.21 1.44,3.45c-0.28,-1.21 -0.95,-2.25 -1.87,-2.94c-0.92,-0.69 -2.06,-1.03 -3.18,-0.92c-1.12,0.08 -2.19,0.61 -2.98,1.44c-0.79,0.84 -1.27,1.97 -1.35,3.21z" class="cls-5"/>
    </g>
    <path id="svg_131" fill="#e6858d" stroke-width="0px" d="m179.03,95.99c0.39,1.56 -2,3.5 -5.34,4.32c-3.33,0.83 -6.35,0.23 -6.74,-1.33c-0.39,-1.56 2,-3.5 5.34,-4.32c3.33,-0.83 6.35,-0.23 6.74,1.33z" class="cls-3"/>
    <path id="svg_132" fill="#e6858d" stroke-width="0px" d="m202.13,90.26c0.39,1.56 -2,3.5 -5.34,4.32c-3.33,0.83 -6.35,0.23 -6.74,-1.33c-0.39,-1.56 2,-3.5 5.34,-4.32c3.33,-0.83 6.35,-0.23 6.74,1.33z" class="cls-3"/>
    <g id="svg_133">
     <path id="svg_134" fill="#f5fbfb" stroke-width="0px" d="m167.37,104.24s-8.22,-15.72 -12.81,-21.18c0,0 3.53,10.1 5.58,22.52c0,0 -2.67,1.25 -5.58,-1.25c0,0 -10.59,22.95 -11.56,40.74c-0.97,17.78 17.14,28.13 32.34,35.73c15.2,7.6 15.2,13.1 15.2,13.1c0,0 21.99,-7.6 33.47,-31.04c11.48,-23.44 -1.85,-61.92 -25.74,-78.82c0,0 9.58,17.77 -9.02,22.02c-18.59,4.25 -21.87,-1.81 -21.87,-1.81l-0.01,-0.01z" class="cls-6"/>
     <g id="svg_135" clip-path="url(#clippath-5)" class="cls-24">
      <path id="svg_136" fill="#e4f2f2" stroke-width="0px" d="m160.14,105.58s-7.52,13.86 -5.58,31.56c1.94,17.7 -1.62,15.04 16.04,24.74c17.67,9.7 23.04,32.56 45.26,13.49c0,0 -4.34,29.19 -21.67,34.28c-17.32,5.09 -66.42,-28.65 -63.33,-50.1c3.08,-21.45 22.24,-59.41 22.24,-59.41l7.03,5.43l0.01,0.01z" class="cls-9"/>
     </g>
    </g>
    <g id="svg_137">
     <g id="svg_138">
      <path id="svg_139" fill="#e4f2f2" stroke-width="0px" d="m182.63,103.99s-16.33,-8.41 -18.11,10.02c-1.78,18.43 -0.16,32.17 -10.43,37.67c0,0 22.39,2.26 29.99,-23.6c7.6,-25.87 -1.46,-24.09 -1.46,-24.09l0.01,0z" class="cls-9"/>
      <path id="svg_140" fill="#e4f2f2" stroke-width="0px" d="m186.5,100.62s14.98,-9.15 17.97,8.28c2.99,17.43 2.41,30.63 12.58,35.15c0,0 -21.19,3.73 -30.25,-20.38c-9.06,-24.11 -0.3,-23.05 -0.3,-23.05z" class="cls-9"/>
     </g>
     <g id="svg_141">
      <path id="svg_142" fill="#f5fbfb" stroke-width="0px" d="m190.21,98.68s14.98,-9.15 17.97,8.28c2.99,17.43 2.41,30.63 12.58,35.15c0,0 -21.19,3.73 -30.25,-20.38c-9.06,-24.11 -0.3,-23.05 -0.3,-23.05z" class="cls-6"/>
      <g id="svg_143" clip-path="url(#clippath-6)" class="cls-18">
       <path id="svg_144" fill="#fff" stroke-width="0px" d="m197.12,97.58s5.16,-0.63 6.46,10.87c1.29,11.5 2.13,31.51 17.18,33.66c0,0 1.51,2.82 0,-15.2c-1.51,-18.02 -17.38,-33.02 -23.97,-32.33c-6.58,0.69 0.33,3 0.33,3z" class="cls-12"/>
      </g>
     </g>
     <g id="svg_145">
      <path id="svg_146" fill="#f5fbfb" stroke-width="0px" d="m186.33,102.06s-16.33,-8.41 -18.11,10.02c-1.78,18.43 -0.16,32.17 -10.43,37.67c0,0 22.39,2.26 29.99,-23.6c7.6,-25.87 -1.46,-24.09 -1.46,-24.09l0.01,0z" class="cls-6"/>
      <g id="svg_147" clip-path="url(#clippath-7)" class="cls-19">
       <path id="svg_148" fill="#fff" stroke-width="0px" d="m185.82,105.65s2.21,7.62 -8.34,37.42c0,0 12,-1.7 13.34,-27.27s-5.01,-10.15 -5.01,-10.15l0.01,0z" class="cls-12"/>
      </g>
     </g>
    </g>
    <path id="svg_149" fill="#bc7f84" stroke-width="0px" d="m187.81,86.51c-0.05,2.25 0.22,5.1 1.56,7.07c0,0 8.73,-2.55 7.76,4c-0.97,6.55 -12.85,11.16 -14.55,5.58c-1.36,-4.48 -2.72,-14.18 1.43,-18.34c1.41,-1.42 3.85,-0.31 3.81,1.7l-0.01,-0.01z" class="cls-11"/>
   </g>
   <path id="svg_150" stroke-width="0px" fill="#0a85c8" d="m297.5,22.77c-1.3,8.88 -5.73,10.27 -5.73,10.27c0,0 4.42,1.4 5.73,10.27c1.3,-8.88 5.73,-10.27 5.73,-10.27c0,0 -4.42,-1.4 -5.73,-10.27z" class="cls-1"/>
   <path id="svg_151" stroke-width="0px" fill="#0a85c8" d="m344.35,0.19c-1.3,8.88 -5.73,10.27 -5.73,10.27c0,0 4.42,1.4 5.73,10.27c1.3,-8.88 5.73,-10.27 5.73,-10.27c0,0 -4.42,-1.4 -5.73,-10.27z" class="cls-1"/>
   <path id="svg_152" stroke-width="0px" fill="#0a85c8" d="m320.72,10.47c-0.82,5.61 -3.62,6.49 -3.62,6.49c0,0 2.8,0.88 3.62,6.49c0.82,-5.61 3.62,-6.49 3.62,-6.49c0,0 -2.8,-0.88 -3.62,-6.49z" class="cls-1"/>
   <path id="svg_153" stroke-width="0px" fill="#0a85c8" d="m359.27,26.57c-0.78,5.29 -3.41,6.12 -3.41,6.12c0,0 2.64,0.83 3.41,6.12c0.78,-5.29 3.41,-6.12 3.41,-6.12c0,0 -2.64,-0.83 -3.41,-6.12z" class="cls-1"/>
   <path id="svg_154" stroke-width="0px" fill="#0a85c8" d="m347.97,47.59c-0.82,5.61 -3.62,6.49 -3.62,6.49c0,0 2.8,0.88 3.62,6.49c0.82,-5.61 3.62,-6.49 3.62,-6.49c0,0 -2.8,-0.88 -3.62,-6.49z" class="cls-1"/>
  </g>
 </g>
</svg>