<svg xmlns="http://www.w3.org/2000/svg" xmlns:xlink="http://www.w3.org/1999/xlink" viewBox="0 0 168.51 158.62"><defs><style>.cls-1,.cls-17,.cls-5,.cls-8,.cls-9{fill:none;}.cls-2{fill:#e36a0d;}.cls-3{fill:#ffab66;}.cls-4{fill:#724e36;}.cls-5{stroke:#895a3a;}.cls-17,.cls-5,.cls-8,.cls-9{stroke-miterlimit:10;}.cls-5,.cls-8,.cls-9{stroke-width:0.75px;}.cls-6{fill:#f48428;}.cls-7{fill:#895a3a;}.cls-8{stroke:#724e36;}.cls-9{stroke:#e36a0d;}.cls-10{fill:#304b82;}.cls-11{clip-path:url(#clip-path);}.cls-12{fill:#486b9f;}.cls-13{clip-path:url(#clip-path-2);}.cls-14{fill:#719bcc;}.cls-15{fill:#c94141;}.cls-16{fill:#192b47;}.cls-17{stroke:#192b47;}</style><clipPath id="clip-path"><path class="cls-1" d="M75.2,58.29s7.65-6.55,18.11-6.49,15.66,2.29,23,1.22c8.38-1.22,13-4.36,14-3.67s-2.65,22.71-3.83,23.71-15,4.38-23.61,1.88-20.8-3.64-26.54.9C76.27,75.84,67,69,75.2,58.29Z"/></clipPath><clipPath id="clip-path-2"><path class="cls-1" d="M53.26,78.45C45.2,80.92,32,80.09,29.5,79.65s-.59,9.7,2.06,13.38,13.94,8.09,28.07,3.53,23.5-18.94,22.42-23.15S77.81,63.23,75.2,63.5,65.72,74.65,53.26,78.45Z"/></clipPath></defs><g id="Слой_2" data-name="Слой 2"><g id="OBJECTS"><path class="cls-2" d="M163.56,62.25l.09-.24c6.92-18.18-3.25-36.35-12.57-44.07C137,6.32,114.68,9.12,111,0c0,0-2.8,13.21,6.8,30-4.16-5.16-8.35-11.37-9.81-16.93,0,0,1.57,16.79,15.89,25.78l.45.56c13.78,16.78,15.79,34.87,14.17,44.87,0,0,27.43-4,30-29.26C168.51,55,166.66,58.07,163.56,62.25Z"/><path class="cls-3" d="M131.74,32.11l10.55-.49-1.87-8.06,9-.76L145.1,14C131.42,6.86,114.19,7.91,111,0c0,0-2.8,13.21,6.8,30-4.16-5.16-8.35-11.37-9.81-16.93,0,0,1.57,16.79,15.89,25.78l9.92,2Z"/><path class="cls-2" d="M125.76,81.7c5.3,10,.59,32.58,1.18,35.71s2.15,5.77,1.37,14.6-4.9,24.12-5.78,25-14.42,2.06-16.92,1.32.74-6.17.74-6.17,1.18-9.12-1.18-14.42c-2.1-4.73-8.75-9.41-12.68-17.9Z"/><path class="cls-4" d="M105.17,137.74c2.36,5.3,1.18,14.42,1.18,14.42s-3.24,5.44-.74,6.17,16-.44,16.92-1.32,4-12.59,5.35-21.45l-5.8,4.85-4.86-7.51-5,7.51-5.51-7.51-2.27,3.47A11.49,11.49,0,0,1,105.17,137.74Z"/><path class="cls-5" d="M110,152s-2.58,3.26-2.06,6.56"/><path class="cls-5" d="M115.08,152.6a6.67,6.67,0,0,0-1.63,5.76"/><path class="cls-2" d="M41.7,81.26s-5.14,26.17-6.61,31.62-1.62,24-1.33,26.48S37.5,149.51,39.68,152s7.59.88,9.51-2.79S49.62,136,51.1,132.9s5.75-10.94,7.08-13.05,10.72-12,8.82-17S45.82,77.14,41.7,81.26Z"/><path class="cls-4" d="M49.14,123.05l-7.09,6.36-2.29-8.12-6,5.58c-.19,5.76-.16,11.21,0,12.49.3,2.5,3.74,10.15,5.92,12.65s7.59.88,9.51-2.79S49.62,136,51.1,132.9c.35-.72.85-1.71,1.43-2.82Z"/><path class="cls-5" d="M39.06,145.43s1.28,6.9,4,7.77"/><path class="cls-5" d="M43.76,143.77s1.88,5.84,4.4,6.89"/><path class="cls-6" d="M144.37,117.41c-.59-3.13,4.12-25.7-1.18-35.71S120,68.76,105.83,69.31,71.34,67.2,71.34,67.2L40.67,80.53c1.62,27.36,12.95,37.06,14.86,48.24S59,152.16,59,152.16s-3.24,5.44-.74,6.17,16-.44,16.92-1.32a161.89,161.89,0,0,0,8.43-30c.09-.53.17-1.05.25-1.56a176.69,176.69,0,0,0,26.05-5.61c3.92,8.49,10.58,13.17,12.68,17.9,2.35,5.3,1.18,14.42,1.18,14.42s-3.24,5.44-.74,6.17,16-.44,16.92-1.32,5-16.18,5.78-25S145,120.53,144.37,117.41Z"/><path class="cls-7" d="M66.25,139.8l-5.5-7.5L57,138c1.18,7.76,2,14.16,2,14.16s-3.24,5.44-.74,6.17,16-.44,16.92-1.32a169.27,169.27,0,0,0,6.86-22.16l-5.93,5-4.85-7.5Z"/><path class="cls-8" d="M62.81,152s-2.58,3.26-2.06,6.56"/><path class="cls-8" d="M67.89,152.6a6.69,6.69,0,0,0-1.64,5.76"/><path class="cls-7" d="M122.6,137.74c2.35,5.3,1.18,14.42,1.18,14.42s-3.24,5.44-.74,6.17,16-.44,16.92-1.32,4-12.59,5.34-21.45l-5.8,4.85-4.85-7.51-5,7.51-5.5-7.51-2.27,3.47A11.49,11.49,0,0,1,122.6,137.74Z"/><path class="cls-8" d="M127.43,152s-2.57,3.26-2.06,6.56"/><path class="cls-8" d="M132.51,152.6a6.67,6.67,0,0,0-1.63,5.76"/><path class="cls-3" d="M108.65,116.68a24.69,24.69,0,0,1-1-10.58c-8.25-.61-16.65-.65-21-.61-.45,4-1.31,10.93-2.76,20h0a177.5,177.5,0,0,0,26-5.6v0A30.85,30.85,0,0,1,108.65,116.68Z"/><path class="cls-2" d="M89.73,104c.15,1,.15,2.07.3,3.09a.37.37,0,0,0,.46.26.39.39,0,0,0,.26-.46c-.14-1-.15-2.06-.29-3.09a.38.38,0,0,0-.73.2Z"/><path class="cls-2" d="M91.65,104.45c0,.23,0,.34.07.56s0,.44.06.66c0,.48.08,1,.16,1.43a.37.37,0,0,0,.72-.2c-.14-.85-.12-1.77-.29-2.64a.37.37,0,1,0-.72.19Z"/><path class="cls-2" d="M99.87,106.66a19,19,0,0,0,.59-2.79.38.38,0,0,0-.26-.46.39.39,0,0,0-.47.26,17.49,17.49,0,0,1-.58,2.79.37.37,0,0,0,.26.46.38.38,0,0,0,.46-.26Z"/><path class="cls-2" d="M104.39,107.49a14.74,14.74,0,0,0,1.07-2.89.39.39,0,0,0-.26-.46.37.37,0,0,0-.46.26,14.11,14.11,0,0,1-1,2.71.38.38,0,0,0,.65.38Z"/><path class="cls-9" d="M109.91,119.85a31.23,31.23,0,0,1-1.26-3.17C105.1,106.12,110.54,96,110.54,96"/><path class="cls-9" d="M87,101.85s-.83,9.19-3.14,23.6"/><path class="cls-10" d="M125.23,71.74c2-.3,4-.55,5.89-1,.62-.15.36-1.12-.27-1-1.93.48-3.92.73-5.88,1a.5.5,0,0,0-.35.61.51.51,0,0,0,.61.35Z"/><path class="cls-10" d="M126.42,68.82c1.84,0,3.5-.86,5.28-1.19a.5.5,0,0,0-.26-1c-1.69.32-3.28,1.15-5,1.16a.5.5,0,0,0,0,1Z"/><path class="cls-10" d="M127.12,64.63c1.94-.95,4.17-.66,6.2-1.27a.5.5,0,0,0-.26-1,19.54,19.54,0,0,1-3.14.49,10.54,10.54,0,0,0-3.31.88c-.58.28-.07,1.14.51.86Z"/><path class="cls-10" d="M127.59,61.45c2-.31,4-.68,6-1.18.62-.15.36-1.12-.27-1-2,.49-4,.86-6,1.17a.51.51,0,0,0-.35.62.52.52,0,0,0,.62.35Z"/><path class="cls-10" d="M128.17,57.92a44,44,0,0,1,5.89-1.33c.63-.14.36-1.1-.27-1A45,45,0,0,0,127.91,57a.52.52,0,0,0-.35.62.51.51,0,0,0,.61.35Z"/><path class="cls-10" d="M128.76,54.24a42.26,42.26,0,0,1,6-1.62.49.49,0,0,0,.35-.61.5.5,0,0,0-.61-.35,39.47,39.47,0,0,0-6,1.62c-.62.19-.35,1.15.26,1Z"/><path class="cls-10" d="M128.88,51.54a14.84,14.84,0,0,1,7-1.69c.64,0,.64-1,0-1a16,16,0,0,0-7.46,1.83c-.59.27-.08,1.13.5.86Z"/><path class="cls-10" d="M75.2,58.29s7.65-6.55,18.11-6.49,15.66,2.29,23,1.22c8.38-1.22,13-4.36,14-3.67s-2.65,22.71-3.83,23.71-15,4.38-23.61,1.88-20.8-3.64-26.54.9C76.27,75.84,67,69,75.2,58.29Z"/><g class="cls-11"><path class="cls-12" d="M124.62,48.63a52.19,52.19,0,0,0-1.64,7.1c-.4,2.32-.66,4.68-1.18,7-1,4.46-2.45,8.83-2.79,13.42-.05.64.95.63,1,0,.34-4.59,1.87-8.9,2.8-13.37s1.33-9.34,2.77-13.86c.2-.61-.77-.88-1-.26Z"/><path class="cls-12" d="M123.44,48.33A241.74,241.74,0,0,0,117.18,72c-.46,2.25-.88,4.51-1.24,6.78-.1.63.86.9,1,.26a200.51,200.51,0,0,1,5.51-23.82c.64-2.22,1.31-4.42,2-6.62.19-.62-.78-.88-1-.27Z"/><path class="cls-12" d="M112.12,51.27c-2.9,8.64-1.73,18-3.68,26.77-.14.63.82.9,1,.27,1.95-8.82.79-18.14,3.68-26.77.21-.61-.76-.88-1-.27Z"/><path class="cls-12" d="M110.19,51.55c-1.2,9.11-2.93,18.16-3.24,27.36,0,.64,1,.64,1,0,.31-9.2,2-18.26,3.24-27.36.08-.63-.92-.63-1,0Z"/><path class="cls-12" d="M102.26,50.1c-1.33,8.75-2.34,17.55-3.53,26.32-.08.63.88.91,1,.27,1.18-8.77,2.19-17.57,3.53-26.33.09-.63-.87-.9-1-.26Z"/><path class="cls-12" d="M99.76,49.8c-1.94,8.57-2,17.42-3.68,26-.12.62.85.89,1,.26,1.65-8.62,1.74-17.46,3.68-26,.14-.63-.83-.9-1-.27Z"/><path class="cls-12" d="M92,50.39a174.22,174.22,0,0,0-3,26.46c0,.64,1,.64,1,0a173.2,173.2,0,0,1,2.92-26.19c.12-.63-.84-.9-1-.27Z"/><path class="cls-12" d="M89.59,49.93c-.15,5.12-.76,10.21-1,15.32-.26,4.6.33,9.29-.7,13.82-.14.63.82.9,1,.27,1-4.55.49-9.25.73-13.87.25-5.19.89-10.34,1-15.54,0-.64-1-.64-1,0Z"/><path class="cls-12" d="M83,52c0,4.86-1,9.65-1.17,14.5-.07,1.9,0,3.79.11,5.69a18,18,0,0,1-.4,5.57.5.5,0,0,0,1,.26,18.35,18.35,0,0,0,.44-5.53c-.05-1.92-.2-3.83-.13-5.75C83,61.8,84,56.93,84,52a.5.5,0,0,0-1,0Z"/><path class="cls-12" d="M80.92,52.44A100.38,100.38,0,0,0,80,65.05c.12,4.33.62,8.64.79,13,0,.64,1,.64,1,0-.17-4.33-.67-8.65-.79-13a102.29,102.29,0,0,1,.94-12.61c.06-.65-.94-.64-1,0Z"/></g><path class="cls-12" d="M53.26,78.45C45.2,80.92,32,80.09,29.5,79.65s-.59,9.7,2.06,13.38,13.94,8.09,28.07,3.53,23.5-18.94,22.42-23.15S77.81,63.23,75.2,63.5,65.72,74.65,53.26,78.45Z"/><g class="cls-13"><path class="cls-14" d="M31.86,77a7.69,7.69,0,0,0-.36,4.38c.2,1.63.57,3.24.86,4.86.7,3.81.64,7.87,2.74,11.27.33.54,1.2,0,.86-.51-2-3.23-2-7.12-2.58-10.75-.26-1.5-.61-3-.83-4.5-.19-1.31-.45-3,.17-4.25.29-.57-.57-1.08-.86-.5Z"/><path class="cls-14" d="M35.78,78.31c1.42,7,2,14.58,5.64,20.86a.5.5,0,0,0,.86-.51,34.49,34.49,0,0,1-3.53-10.07c-.77-3.5-1.29-7-2-10.55-.12-.63-1.09-.36-1,.27Z"/><path class="cls-14" d="M36.74,78.45c2.43,7.5,3.18,15.6,7,22.63.3.56,1.17.06.86-.51-3.74-6.94-4.46-15-6.86-22.38-.2-.61-1.16-.35-1,.26Z"/><path class="cls-14" d="M42.3,77.84c3.91,7,3.26,15.78,8.09,22.36.38.51,1.25,0,.87-.51-4.82-6.56-4.19-15.36-8.09-22.36-.32-.56-1.18,0-.87.51Z"/><path class="cls-14" d="M45.34,78.45c2,7.19,3.55,14.56,6.52,21.45.26.59,1.12.08.87-.5-2.94-6.81-4.4-14.11-6.43-21.21a.5.5,0,0,0-1,.26Z"/><path class="cls-14" d="M51.27,75.19c2.16,3,2.86,6.86,3.86,10.34.56,2,1.17,3.9,1.77,5.84a29.74,29.74,0,0,0,2.32,5.74c.31.56,1.18,0,.86-.51a29.57,29.57,0,0,1-2.34-5.91c-.58-1.92-1.2-3.84-1.74-5.77-1-3.44-1.73-7.28-3.86-10.23-.38-.52-1.24,0-.87.5Z"/><path class="cls-14" d="M53.92,75.63c2,2.94,2.66,6.65,3.61,10A69.42,69.42,0,0,0,62,97.4c.29.58,1.15.07.86-.5A68.84,68.84,0,0,1,58.4,85c-.93-3.32-1.66-7-3.61-9.89-.36-.53-1.23,0-.87.5Z"/><path class="cls-14" d="M60,73.67C64.74,79.2,65.57,86.86,69.22,93a.5.5,0,0,0,.86-.51c-3.7-6.22-4.56-13.9-9.34-19.51-.42-.49-1.12.22-.71.7Z"/><path class="cls-14" d="M61.57,70.78c1.94,3.88,3.67,7.87,5.59,11.77,1.65,3.35,2.39,7.12,4.41,10.29.35.54,1.21,0,.87-.5-2-3.17-2.77-7-4.42-10.3-1.91-3.9-3.65-7.88-5.59-11.77-.28-.57-1.15-.07-.86.51Z"/><path class="cls-14" d="M65.33,69.56c5,4.78,6.91,11.83,11.1,17.25.38.5,1.25,0,.86-.5C73.05,80.81,71.14,73.7,66,68.85c-.46-.44-1.17.26-.7.71Z"/><path class="cls-14" d="M66.8,67.35c4.85,5.47,8.3,12,12.13,18.14.33.54,1.2,0,.86-.51-3.87-6.26-7.38-12.8-12.29-18.34-.42-.48-1.13.23-.7.71Z"/><path class="cls-14" d="M71.06,63.23c5,5,7.22,12,11.77,17.36.42.49,1.12-.22.71-.71C79,74.53,76.75,67.55,71.77,62.52a.5.5,0,0,0-.71.71Z"/><path class="cls-14" d="M72.9,62.39c3.44,5.55,7.06,11,11,16.18.38.51,1.25,0,.86-.5-4-5.19-7.58-10.64-11-16.18-.34-.55-1.21,0-.86.5Z"/><path class="cls-14" d="M28.87,77.42c.94,3.28,1,6.71,1.73,10,.84,3.7,1.87,7.35,2.83,11a.5.5,0,0,0,1-.27c-1-3.67-2-7.32-2.83-11-.75-3.3-.79-6.74-1.73-10a.5.5,0,0,0-1,.26Z"/></g><path class="cls-2" d="M30.43,42.49a58.57,58.57,0,0,1-10.36-7.6c-4.35-3.93-6.91-8.12-8.13-7.72S2.21,42.75,14.78,60.7Z"/><path class="cls-4" d="M21.17,35.86l-1.1-1c-4.35-3.93-6.91-8.12-8.13-7.72-.85.27-5.19,7.66-3.59,18.15A30.32,30.32,0,0,1,21.17,35.86Z"/><path class="cls-3" d="M11.37,34.9c-.74.23-2.06,5.07-.78,11.85a42.36,42.36,0,0,0,5.22,12.76l8.65-10.07C21.67,46.12,12,34.69,11.37,34.9Z"/><path class="cls-12" d="M3.57,42.31S2.63,39.06,4.73,38s4,2,4,2,1.48-2.16,3-1.4S13,42.5,13,42.5,16,40.92,17,42.74s-.86,3.63-.86,3.63,3,.14,3.77,2.33-2,3.19-2,3.19,2.53,1.73,2.42,3.51-2.46,1.38-2.46,1.38,1.45,3-.13,4.22-3.72-.07-3.72-.07-1.41,2.5-2.74,2.32-1.49-3.49-1.49-3.49-2,3.11-3.72,2.1-.41-4.12-.41-4.12-3.5.67-4.21-1.53S3,52.31,3,52.31s-2.95-.85-3-3.16a2.72,2.72,0,0,1,2.24-2.71S.52,45.39,1.12,44A3.71,3.71,0,0,1,3.57,42.31Z"/><path class="cls-2" d="M51.83,35.53a59.18,59.18,0,0,0,3.9-12.26c1.2-5.73.8-10.62,2-11S74.79,19.11,75.2,41Z"/><path class="cls-4" d="M55.41,24.71c.11-.47.22-.95.32-1.44,1.2-5.73.8-10.62,2-11,.85-.28,8.71,3.14,13.59,12.56A30.34,30.34,0,0,0,55.41,24.71Z"/><path class="cls-3" d="M62.76,18.16c.74-.24,4.66,2.89,7.62,9.12a42.46,42.46,0,0,1,3.29,13.38l-12.92-3C61.05,33.3,62.14,18.36,62.76,18.16Z"/><path class="cls-12" d="M73.43,19.56S72.28,16.38,70,16.77s-2.06,4-2.06,4-2.47-.88-3.21.61S66,25.24,66,25.24s-3.4.53-3.13,2.59,2.84,2.42,2.84,2.42-2.32,1.86-1.68,4.1,3.48,1.42,3.48,1.42-1,2.89.11,4.26,2.79-.33,2.79-.33S71,43,73,43s3-2.24,3-2.24,2.61,1.19,3.58.26-.86-3.7-.86-3.7,3.43,1.36,4.25-.49-2.09-3.58-2.09-3.58,3.22-1.51,2.5-3.71-3.52-2.26-3.52-2.26,1.88-2.43.57-4.32a2.73,2.73,0,0,0-3.41-.87s.77-1.87-.51-2.61A3.72,3.72,0,0,0,73.43,19.56Z"/><path class="cls-14" d="M60.64,2.73c-3-2.15-16.82-4.27-31.19.41S5.17,17.65,4,21.17s.14,25,3.3,31.87,8.78,1.32,6.75-3.13S10,46,8.37,40.63a49.84,49.84,0,0,1-2-14.32c.16-2.37,8.24-10.68,25.33-16.25S60.23,6.45,61.75,8.28A50.07,50.07,0,0,1,68.57,21c1.84,5.31-.11,6.06.87,10.85s8.78,6,7.3-1.45S63.66,4.87,60.64,2.73Z"/><path class="cls-3" d="M73.41,38.86c-8.09-.61-19.24-8.74-33.65-4S21.13,52.64,15,57.9s-8.44,5.18-8.44,5.18,14.06,28.7,48.18,17.58,28.6-42.58,28.6-42.58S81.5,39.48,73.41,38.86Z"/><path class="cls-6" d="M73.41,38.86c-8.09-.61-19.24-8.74-33.65-4S21.13,52.64,15,57.9s-8.44,5.18-8.44,5.18c8.68,4.56,20-6.31,20-6.31a7.18,7.18,0,0,0-4.74-1.24s4.69-5.09,14.33-1.11,13.2,15.81,13.2,15.81l1.81-.59,1.82-.59s-4.1-11.66,1.35-20.55S66.51,41,66.51,41a7.2,7.2,0,0,0-3.09,3.8S79,46.88,83.29,38.08C83.29,38.08,81.5,39.48,73.41,38.86Z"/><path class="cls-15" d="M25.48,71.63a9.87,9.87,0,0,0-6.15,5.49A35.78,35.78,0,0,0,35.68,83a7.54,7.54,0,0,0,1.14-6.67C35.46,72.14,30.38,70,25.48,71.63Z"/><path class="cls-16" d="M39.59,70.6a1.88,1.88,0,1,1-2.37-1.2A1.88,1.88,0,0,1,39.59,70.6Z"/><path class="cls-16" d="M50.63,68.17c-3.57,1.16-5.22,2.16-4.88,3.21s3.2,2,6.58,2c2.7-2,4.47-4.47,4.12-5.51S54.19,67,50.63,68.17Z"/><line class="cls-17" x1="52.06" y1="72.57" x2="53.26" y2="76.25"/><path class="cls-17" d="M53.26,76.25a4.31,4.31,0,0,1-3.93,2.2,4.09,4.09,0,0,1-4.2-2.92"/><path class="cls-17" d="M53.26,76.25a4.3,4.3,0,0,0,4.46-.53,4.09,4.09,0,0,0,1.68-4.84"/><path class="cls-16" d="M61,63.64a1.88,1.88,0,1,0,1.21-2.37A1.88,1.88,0,0,0,61,63.64Z"/><path class="cls-15" d="M73,56.16a9.85,9.85,0,0,1,8.21.82,35.69,35.69,0,0,1-9.75,14.38,7.5,7.5,0,0,1-4.84-4.71C65.23,62.45,68.09,57.75,73,56.16Z"/></g></g></svg>