<?xml version="1.0" encoding="utf-8"?>
<!-- Generator: Adobe Illustrator 26.3.1, SVG Export Plug-In . SVG Version: 6.00 Build 0)  -->
<svg version="1.1" id="Слой_1" xmlns="http://www.w3.org/2000/svg" xmlns:xlink="http://www.w3.org/1999/xlink" x="0px" y="0px"
	 viewBox="0 0 131 149.8" style="enable-background:new 0 0 131 149.8;" xml:space="preserve">
<style type="text/css">
	.st0{fill:#04765F;}
	.st1{fill:#B20D1D;}
	.st2{fill:#D61621;}
	.st3{fill:#FFBE69;}
	.st4{fill:#FBB03B;}
	.st5{fill:#F7931E;}
	.st6{fill:none;stroke:#FFFFFF;stroke-linecap:round;stroke-linejoin:round;}
	.st7{fill:#FFFFFF;}
	.st8{opacity:0.2;}
</style>
<g>
	<g id="Слой_2_00000078045940869019414890000017018392011809531794_">
		<g id="OBJECTS">
			<polygon class="st0" points="10.7,138.3 5,30.1 69.7,39.5 68.4,149.8 			"/>
			<polygon class="st1" points="122.7,130.3 68.4,149.8 69.7,39.5 125.1,27.9 			"/>
			<polygon class="st2" points="0.2,24.1 66.2,6.9 131,20.4 71.6,37.9 			"/>
			<polygon class="st3" points="26.7,27.3 83.4,10.7 96.2,13.4 43.7,30.3 			"/>
			<polygon class="st3" points="86.7,30.3 31.2,15.8 44.1,12.4 102.7,26.4 			"/>
			<path class="st4" d="M67.2,17.1c0,0-30.3-21.4-40.8-16.1s-0.4,18.3,5.8,19.2C42.8,21.5,67.2,17.1,67.2,17.1z"/>
			<path class="st3" d="M32,0.2c0,0-4.6-1.1-6.2,2.3s16.4,10.9,24.3,12c4.6,0.6,9.2,1,13.8,1c-2.3-1.9-4.7-3.7-7.3-5.2
				C53.5,8.8,41.2,0.8,32,0.2z"/>
			<path class="st5" d="M57.9,14.1c0,0-20.1-12.6-27.8-11S57.9,14.1,57.9,14.1z"/>
			<path class="st4" d="M66.9,17.1c0,0,31.2-20.1,41.5-14.3s-0.4,18.3-6.7,18.9C91,22.6,66.9,17.1,66.9,17.1z"/>
			<path class="st3" d="M103.9,2c0,0,4.7-0.8,6.1,2.7S92.9,14.5,84.9,15c-5,0.3-10,0.4-15,0.1c0,0,5.7-3.3,8.9-4.7S94.7,1.9,103.9,2
				z"/>
			<path class="st5" d="M76.3,14.5c0,0,20.7-11.7,28.2-9.8S76.3,14.5,76.3,14.5z"/>
			<path class="st4" d="M68.3,19.3c1.1-0.1,2-1,2.2-2.1c0.4-1.8,0.4-4.6-2.2-5.6c-4.1-1.6-6.3-0.1-6.9,1.7S62.1,20.1,68.3,19.3z"/>
			<polygon class="st0" points="0,24.1 2.3,43.8 69.7,55.4 129.7,42.5 130,20.4 70.8,33.4 			"/>
			<line class="st6" x1="17.7" y1="54.3" x2="17.7" y2="64.5"/>
			<polyline class="st6" points="16,55.1 17.7,56.9 19.5,55.1 			"/>
			<polyline class="st6" points="15.1,57.6 17.7,60.1 20.3,57.6 			"/>
			<line class="st6" x1="26.4" y1="59.1" x2="17.7" y2="64.5"/>
			<polyline class="st6" points="24.8,58 24.2,60.5 26.6,61 			"/>
			<polyline class="st6" points="22.2,58.7 21.4,62.2 25,63 			"/>
			<line class="st6" x1="26.9" y1="69" x2="17.7" y2="64.5"/>
			<polyline class="st6" points="26.9,67.1 24.6,67.9 25.4,70.2 			"/>
			<polyline class="st6" points="25.1,65.3 21.6,66.4 22.8,69.9 			"/>
			<line class="st6" x1="18.7" y1="74.7" x2="17.7" y2="64.5"/>
			<polyline class="st6" points="20.4,73.7 18.5,72.1 16.9,74.1 			"/>
			<polyline class="st6" points="21,71.2 18.2,68.9 15.9,71.7 			"/>
			<line class="st6" x1="9.6" y1="70.8" x2="17.7" y2="64.5"/>
			<polyline class="st6" points="11.4,71.7 11.7,69.2 9.2,68.9 			"/>
			<polyline class="st6" points="13.8,70.8 14.2,67.2 10.7,66.8 			"/>
			<line class="st6" x1="8.1" y1="61" x2="17.7" y2="64.5"/>
			<polyline class="st6" points="8.3,62.9 10.5,61.9 9.5,59.6 			"/>
			<polyline class="st6" points="10.3,64.5 13.6,63 12.1,59.7 			"/>
			<line class="st6" x1="50.7" y1="76.3" x2="50.7" y2="86.5"/>
			<polyline class="st6" points="49,77.1 50.7,78.9 52.5,77.1 			"/>
			<polyline class="st6" points="48.2,79.6 50.7,82.1 53.3,79.6 			"/>
			<line class="st6" x1="59.4" y1="81.1" x2="50.7" y2="86.5"/>
			<polyline class="st6" points="57.8,80.1 57.2,82.5 59.6,83 			"/>
			<polyline class="st6" points="55.2,80.7 54.4,84.2 58,85 			"/>
			<line class="st6" x1="59.9" y1="91" x2="50.7" y2="86.5"/>
			<polyline class="st6" points="59.9,89.1 57.6,89.9 58.4,92.2 			"/>
			<polyline class="st6" points="58.1,87.3 54.7,88.4 55.8,91.9 			"/>
			<line class="st6" x1="51.7" y1="96.7" x2="50.7" y2="86.5"/>
			<polyline class="st6" points="53.4,95.7 51.5,94.1 49.9,96.1 			"/>
			<polyline class="st6" points="54,93.2 51.2,90.9 48.9,93.7 			"/>
			<line class="st6" x1="42.7" y1="92.8" x2="50.7" y2="86.5"/>
			<polyline class="st6" points="44.3,93.7 44.7,91.2 42.2,90.9 			"/>
			<polyline class="st6" points="46.8,92.8 47.2,89.2 43.7,88.8 			"/>
			<line class="st6" x1="41.2" y1="83" x2="50.7" y2="86.5"/>
			<polyline class="st6" points="41.3,84.9 43.5,83.9 42.5,81.6 			"/>
			<polyline class="st6" points="43.3,86.5 46.6,85 45.1,81.7 			"/>
			<line class="st6" x1="83.7" y1="60.3" x2="83.7" y2="70.5"/>
			<polyline class="st6" points="82,61.1 83.7,62.9 85.4,61.1 			"/>
			<polyline class="st6" points="81.2,63.6 83.7,66.1 86.3,63.6 			"/>
			<line class="st6" x1="92.4" y1="65.1" x2="83.7" y2="70.5"/>
			<polyline class="st6" points="90.8,64.1 90.2,66.5 92.6,67 			"/>
			<polyline class="st6" points="88.2,64.7 87.4,68.2 90.9,69 			"/>
			<line class="st6" x1="92.9" y1="75" x2="83.7" y2="70.5"/>
			<polyline class="st6" points="92.9,73.1 90.6,73.9 91.4,76.2 			"/>
			<polyline class="st6" points="91.1,71.3 87.7,72.4 88.8,75.9 			"/>
			<line class="st6" x1="84.7" y1="80.7" x2="83.7" y2="70.5"/>
			<polyline class="st6" points="86.4,79.7 84.5,78.1 82.9,80.1 			"/>
			<polyline class="st6" points="86.9,77.2 84.2,74.9 81.9,77.7 			"/>
			<line class="st6" x1="75.7" y1="76.8" x2="83.7" y2="70.5"/>
			<polyline class="st6" points="77.3,77.7 77.7,75.2 75.2,74.9 			"/>
			<polyline class="st6" points="79.8,76.8 80.2,73.2 76.7,72.8 			"/>
			<line class="st6" x1="74.2" y1="67" x2="83.7" y2="70.5"/>
			<polyline class="st6" points="74.3,68.9 76.5,67.9 75.5,65.6 			"/>
			<polyline class="st6" points="76.3,70.5 79.6,69 78.1,65.7 			"/>
			<line class="st6" x1="20.7" y1="94.3" x2="20.7" y2="104.5"/>
			<polyline class="st6" points="19,95.1 20.7,96.9 22.5,95.1 			"/>
			<polyline class="st6" points="18.1,97.6 20.7,100.1 23.3,97.6 			"/>
			<line class="st6" x1="29.4" y1="99.1" x2="20.7" y2="104.5"/>
			<polyline class="st6" points="27.8,98.1 27.2,100.5 29.6,101 			"/>
			<polyline class="st6" points="25.2,98.7 24.4,102.2 28,103 			"/>
			<line class="st6" x1="29.9" y1="109" x2="20.7" y2="104.5"/>
			<polyline class="st6" points="29.9,107.1 27.6,107.9 28.4,110.2 			"/>
			<polyline class="st6" points="28.1,105.3 24.6,106.4 25.8,109.9 			"/>
			<line class="st6" x1="21.7" y1="114.7" x2="20.7" y2="104.5"/>
			<polyline class="st6" points="23.4,113.7 21.5,112.1 19.9,114.1 			"/>
			<polyline class="st6" points="24,111.2 21.2,108.9 18.9,111.7 			"/>
			<line class="st6" x1="12.6" y1="110.8" x2="20.7" y2="104.5"/>
			<polyline class="st6" points="14.4,111.7 14.7,109.2 12.2,108.9 			"/>
			<polyline class="st6" points="16.8,110.8 17.2,107.2 13.7,106.8 			"/>
			<line class="st6" x1="11.1" y1="101" x2="20.7" y2="104.5"/>
			<polyline class="st6" points="11.3,102.9 13.5,101.9 12.5,99.6 			"/>
			<polyline class="st6" points="13.3,104.5 16.6,103 15.1,99.7 			"/>
			<line class="st6" x1="82.7" y1="111.3" x2="82.7" y2="121.5"/>
			<polyline class="st6" points="81,112.1 82.7,113.9 84.4,112.1 			"/>
			<polyline class="st6" points="80.2,114.6 82.7,117.1 85.3,114.6 			"/>
			<line class="st6" x1="91.4" y1="116.1" x2="82.7" y2="121.5"/>
			<polyline class="st6" points="89.8,115.1 89.2,117.5 91.6,118 			"/>
			<polyline class="st6" points="87.2,115.7 86.4,119.2 89.9,120 			"/>
			<line class="st6" x1="91.9" y1="126" x2="82.7" y2="121.5"/>
			<polyline class="st6" points="91.9,124.1 89.6,124.9 90.4,127.2 			"/>
			<polyline class="st6" points="90.1,122.3 86.7,123.4 87.8,126.9 			"/>
			<line class="st6" x1="83.7" y1="131.6" x2="82.7" y2="121.5"/>
			<polyline class="st6" points="85.4,130.7 83.5,129.1 81.9,131 			"/>
			<polyline class="st6" points="85.9,128.1 83.2,125.9 80.9,128.7 			"/>
			<line class="st6" x1="74.7" y1="127.8" x2="82.7" y2="121.5"/>
			<polyline class="st6" points="76.3,128.6 76.7,126.2 74.2,125.9 			"/>
			<polyline class="st6" points="78.8,127.8 79.2,124.2 75.7,123.8 			"/>
			<line class="st6" x1="73.2" y1="118" x2="82.7" y2="121.5"/>
			<polyline class="st6" points="73.3,119.9 75.5,118.9 74.5,116.6 			"/>
			<polyline class="st6" points="75.3,121.5 78.6,120 77.1,116.7 			"/>
			<line class="st6" x1="47.7" y1="116.3" x2="47.7" y2="126.5"/>
			<polyline class="st6" points="46,117.1 47.7,118.9 49.5,117.1 			"/>
			<polyline class="st6" points="45.2,119.6 47.7,122.1 50.3,119.6 			"/>
			<line class="st6" x1="56.4" y1="121.1" x2="47.7" y2="126.5"/>
			<polyline class="st6" points="54.8,120.1 54.2,122.5 56.6,123 			"/>
			<polyline class="st6" points="52.2,120.7 51.4,124.2 55,125 			"/>
			<line class="st6" x1="56.9" y1="131" x2="47.7" y2="126.5"/>
			<polyline class="st6" points="56.9,129.1 54.6,129.9 55.4,132.2 			"/>
			<polyline class="st6" points="55.1,127.3 51.7,128.4 52.8,131.9 			"/>
			<line class="st6" x1="48.7" y1="136.6" x2="47.7" y2="126.5"/>
			<polyline class="st6" points="50.4,135.7 48.5,134.1 46.9,136 			"/>
			<polyline class="st6" points="51,133.1 48.2,130.9 45.9,133.7 			"/>
			<line class="st6" x1="39.7" y1="132.8" x2="47.7" y2="126.5"/>
			<polyline class="st6" points="41.3,133.6 41.7,131.2 39.2,130.9 			"/>
			<polyline class="st6" points="43.8,132.8 44.2,129.2 40.7,128.8 			"/>
			<line class="st6" x1="38.2" y1="123" x2="47.7" y2="126.5"/>
			<polyline class="st6" points="38.3,124.9 40.5,123.9 39.5,121.6 			"/>
			<polyline class="st6" points="40.3,126.5 43.6,125 42.1,121.7 			"/>
			<line class="st6" x1="110.7" y1="74.3" x2="110.7" y2="84.5"/>
			<polyline class="st6" points="109,75.1 110.7,76.9 112.4,75.1 			"/>
			<polyline class="st6" points="108.2,77.6 110.7,80.1 113.3,77.6 			"/>
			<line class="st6" x1="119.4" y1="79.1" x2="110.7" y2="84.5"/>
			<polyline class="st6" points="117.8,78.1 117.2,80.5 119.6,81 			"/>
			<polyline class="st6" points="115.2,78.7 114.4,82.2 117.9,83 			"/>
			<line class="st6" x1="119.9" y1="89" x2="110.7" y2="84.5"/>
			<polyline class="st6" points="119.9,87.1 117.6,87.9 118.4,90.2 			"/>
			<polyline class="st6" points="118.1,85.3 114.7,86.4 115.8,89.9 			"/>
			<line class="st6" x1="111.7" y1="94.7" x2="110.7" y2="84.5"/>
			<polyline class="st6" points="113.4,93.7 111.5,92.1 109.9,94.1 			"/>
			<polyline class="st6" points="113.9,91.2 111.2,88.9 108.9,91.7 			"/>
			<line class="st6" x1="102.7" y1="90.8" x2="110.7" y2="84.5"/>
			<polyline class="st6" points="104.3,91.7 104.7,89.2 102.2,88.9 			"/>
			<polyline class="st6" points="106.8,90.8 107.2,87.2 103.7,86.8 			"/>
			<line class="st6" x1="101.2" y1="81" x2="110.7" y2="84.5"/>
			<polyline class="st6" points="101.3,82.9 103.5,81.9 102.5,79.6 			"/>
			<polyline class="st6" points="103.3,84.5 106.6,83 105.1,79.7 			"/>
			<ellipse class="st7" cx="42.7" cy="64.3" rx="1.5" ry="2.5"/>
			<ellipse class="st7" cx="22.2" cy="129.8" rx="1.5" ry="2.5"/>
			<ellipse class="st7" cx="19.2" cy="83.8" rx="1.5" ry="2.5"/>
			<ellipse class="st7" cx="55.2" cy="106.8" rx="1.5" ry="2.5"/>
			<ellipse class="st7" cx="111.2" cy="54.8" rx="1.5" ry="2.5"/>
			<ellipse class="st7" cx="81.2" cy="92.8" rx="1.5" ry="2.5"/>
			<ellipse class="st7" cx="105.2" cy="128.8" rx="1.5" ry="2.5"/>
			<ellipse class="st7" cx="114.2" cy="109.8" rx="1.5" ry="2.5"/>
			<polygon class="st4" points="26.7,27.3 30.8,142.2 45.7,145.1 44.7,29.3 			"/>
			<polygon class="st4" points="102.7,26.3 99.7,138.3 86.7,143.3 85.7,29.3 			"/>
			<polygon class="st8" points="5.7,44.3 5.7,48.3 69.7,55.3 			"/>
			<polygon class="st8" points="124.7,43.3 124.7,47.3 69.7,55.3 			"/>
		</g>
	</g>
</g>
</svg>
