<?xml version="1.0" encoding="utf-8"?>
<!-- Generator: Adobe Illustrator 26.3.1, SVG Export Plug-In . SVG Version: 6.00 Build 0)  -->
<svg version="1.1" id="Слой_1" xmlns="http://www.w3.org/2000/svg" xmlns:xlink="http://www.w3.org/1999/xlink" x="0px" y="0px"
	 viewBox="0 0 149 170.9" style="enable-background:new 0 0 149 170.9;" xml:space="preserve">
<style type="text/css">
	.st0{fill:#D61621;}
	.st1{fill:#FFA800;}
	.st2{fill:#009245;}
	.st3{fill:#F7931E;}
	.st4{opacity:0.14;}
	.st5{fill:#FFFFFF;}
	.st6{opacity:0.14;fill:#FFFFFF;enable-background:new    ;}
	.st7{fill:none;stroke:#FFFFFF;stroke-width:2;stroke-linecap:round;stroke-linejoin:round;}
	.st8{fill:none;stroke:#FFFFFF;stroke-width:2;stroke-linecap:round;stroke-linejoin:round;stroke-dasharray:0.5,3.98;}
	.st9{fill:none;stroke:#FFFFFF;stroke-width:2;stroke-linecap:round;stroke-linejoin:round;stroke-dasharray:0.49,3.95;}
</style>
<g>
	<g id="Слой_2_00000051365143601845625770000016784046331558767770_">
		<g id="OBJECTS">
			<path class="st0" d="M29,50.8c0,0,7-37,36-48s60,14,69,30s7,46,7,46l-13-2c0,0-2-25-8-30s-13,7-13,7l-33,3L29,50.8z"/>
			<polygon class="st1" points="2,74.8 7,162.8 67.4,170.9 65.3,79.4 			"/>
			<polygon class="st2" points="120,161.8 67.4,170.9 65.3,79.4 122,77.2 			"/>
			<polygon class="st1" points="62.7,60.2 0,64.9 65.5,67.7 125.3,64 			"/>
			<polygon class="st3" points="0,64.9 0,82.7 65.5,84.6 65.5,67.7 			"/>
			<polygon class="st2" points="124.4,80.8 65.5,84.6 65.5,67.7 125.3,64 			"/>
			<polygon class="st0" points="27.1,65.8 31.5,165.6 42.8,167.9 41,66.8 			"/>
			<polygon class="st0" points="99.2,65.5 100.6,165 90.8,166.8 85.6,66.1 			"/>
			<polygon class="st4" points="2.9,86.4 64.7,84.3 2.6,82.5 			"/>
			<polygon class="st4" points="122,80.8 122,84.8 65.7,84.3 			"/>
			<path class="st5" d="M37.2,42.7c-5.5,0.7-12.1,3-13.8,7.5c-0.1,0.3-0.2,0.6-0.3,0.8c-1.3,4.5-1.7,11.5,9.9,12.7s80.1,3,85.3-0.3
				s-2.6-14.7-9.1-18.1s-27.2,3.4-46.6-1.1C54.3,42.2,45.7,41.7,37.2,42.7z"/>
			<circle class="st5" cx="134.5" cy="70.3" r="11.5"/>
			<circle class="st5" cx="45" cy="43.8" r="6"/>
			<circle class="st5" cx="56" cy="43.8" r="6"/>
			<circle class="st5" cx="67" cy="45.8" r="6"/>
			<circle class="st5" cx="78" cy="43.8" r="6"/>
			<circle class="st5" cx="89" cy="46.8" r="6"/>
			<circle class="st5" cx="100" cy="45.8" r="6"/>
			<circle class="st5" cx="109" cy="47.8" r="6"/>
			<circle class="st5" cx="116" cy="52.8" r="6"/>
			<circle class="st5" cx="117" cy="57.8" r="6"/>
			<circle class="st5" cx="138" cy="60.8" r="6"/>
			<circle class="st5" cx="143" cy="66.8" r="6"/>
			<circle class="st5" cx="143" cy="74.8" r="6"/>
			<circle class="st5" cx="134" cy="80.8" r="6"/>
			<circle class="st5" cx="125" cy="76.8" r="6"/>
			<circle class="st5" cx="126" cy="68.8" r="6"/>
			<circle class="st5" cx="129" cy="62.8" r="6"/>
			<polygon class="st0" points="27,65.8 81,58.8 80,62.8 41,66.8 			"/>
			<circle class="st5" cx="37" cy="42.8" r="6"/>
			<circle class="st5" cx="28" cy="47.8" r="6"/>
			<circle class="st5" cx="26" cy="55.8" r="6"/>
			<circle class="st5" cx="29" cy="57.8" r="6"/>
			<circle class="st5" cx="35" cy="59.8" r="6"/>
			<circle class="st5" cx="43" cy="59.8" r="6"/>
			<circle class="st5" cx="51" cy="59.8" r="6"/>
			<circle class="st5" cx="59" cy="60.8" r="6"/>
			<circle class="st5" cx="67" cy="60.8" r="6"/>
			<circle class="st5" cx="74" cy="60.8" r="6"/>
			<circle class="st5" cx="80" cy="60.8" r="6"/>
			<circle class="st5" cx="88" cy="60.8" r="6"/>
			<circle class="st5" cx="95" cy="60.8" r="6"/>
			<circle class="st5" cx="102" cy="60.8" r="6"/>
			<circle class="st5" cx="112" cy="60.8" r="6"/>
			<path class="st6" d="M86,0.5c0,0,13,3.3,6,12.3s-25,7-33,13s-18,5.6-18-3.2C41,22.6,57-3.8,86,0.5z"/>
			<path class="st7" d="M121.1,83.7c0,0,0,0.1,0,0.2"/>
			<path class="st8" d="M120.6,87.8c-2.7,14.7-18.5,63.4-112.4,66.7"/>
			<path class="st7" d="M6.2,154.6H6"/>
			<path class="st7" d="M103.8,65.8l-0.2,0.2"/>
			<path class="st9" d="M101.1,69c-15,16.5-43.1,32.7-95.9,34.5"/>
			<path class="st7" d="M3.2,103.6H3"/>
		</g>
	</g>
</g>
</svg>
