<svg xmlns="http://www.w3.org/2000/svg" xmlns:xlink="http://www.w3.org/1999/xlink" viewBox="0 0 145.46 178.65"><defs><style>.cls-1,.cls-18,.cls-19,.cls-4{fill:none;}.cls-2{isolation:isolate;}.cls-3{fill:#f48428;}.cls-4{stroke:#e36a0d;}.cls-18,.cls-19,.cls-4{stroke-miterlimit:10;stroke-width:0.75px;}.cls-5{fill:#192b47;}.cls-6{fill:#2f4a83;}.cls-7{fill:#fff;}.cls-8{fill:#719bcc;}.cls-11,.cls-9{fill:#486b9f;}.cls-10{clip-path:url(#clip-path);}.cls-11{mix-blend-mode:multiply;opacity:0.3;}.cls-12{fill:#edc0c0;}.cls-13{fill:#f0ac38;}.cls-14{clip-path:url(#clip-path-2);}.cls-15{fill:#d9ebfe;}.cls-16{clip-path:url(#clip-path-3);}.cls-17{clip-path:url(#clip-path-4);}.cls-18{stroke:#192b47;}.cls-19{stroke:#486b9f;}.cls-20{clip-path:url(#clip-path-5);}</style><clipPath id="clip-path"><path class="cls-1" d="M111.77,93.18c.08.92,6.2,6.2,7,5.57s1.69-6.53,6.26-12.31,7.85-7,8.19-8.44-4.11-7.15-5.41-6.89S110.88,83.91,111.77,93.18Z"/></clipPath><clipPath id="clip-path-2"><path class="cls-1" d="M38.88,39.15c-4.87,10-18.62,32-22.46,54.4A194.21,194.21,0,0,0,14,113.91c8.46,3.88,27.58,10.58,56.51,9.14,22.83-1.13,35.28-5.29,41.78-8.68A184.72,184.72,0,0,0,107.75,83c-5.35-21.57-15.52-38.1-19.33-45.6C84.34,41.62,70.29,52,38.88,39.15Z"/></clipPath><clipPath id="clip-path-3"><path class="cls-1" d="M88.08,33.55c1.36-.45,5.59,7.75,5.42,9.58S83.75,52.72,69.42,54,35.94,46.45,35.19,43.86s1.73-4.14,2.14-6.06.94-5.61,3.77-4.82c1.35.38,10.32,7.49,24.15,7.32S85.08,34.55,88.08,33.55Z"/></clipPath><clipPath id="clip-path-4"><path class="cls-1" d="M14.45,108.21c-1.13.06-2.53,1.59-2.28,4.34s-.39,5.92,0,6.92,11.19,11.25,49.61,10.33,50.92-9.47,51.92-11.69-.09-5.39,0-7.14.08-6.09-2.17-6-18.17,11-49.75,10.66S16.06,108.12,14.45,108.21Z"/></clipPath><clipPath id="clip-path-5"><path class="cls-1" d="M18.17,105c-.61.71-.13,8.77.88,8.91s5.87-3.33,13.2-4.08,10.5.75,11.75,0,2.27-7.93,1.18-8.68S24.19,97.88,18.17,105Z"/></clipPath></defs><g class="cls-2"><g id="Слой_2" data-name="Слой 2"><g id="OBJECTS"><path class="cls-3" d="M78,150.8c-1.88,1.78,0,8.25,5,14s12.42,11.5,14.5,10.92.33-4.5,1.33-5.17,6.5,2.17,9.09.83-1.5-6.08,0-6.91,6.41.91,7.91-.59-9.15-6.87-17.75-10.5C91.17,150.47,81.9,147.11,78,150.8Z"/><path class="cls-4" d="M98.83,170.55s-10.62-10.82-20.39-20.12c0,0,17.31,6.7,29.48,14"/><path class="cls-3" d="M55.06,149.91c2.24,1.3,1.89,8-1.65,14.78s-9.44,14.05-11.6,14-1.36-4.31-2.49-4.72-5.82,3.6-8.64,2.9.06-6.27-1.59-6.74-6,2.37-7.84,1.26,7.32-8.8,14.86-14.3C42.17,152.62,50.41,147.21,55.06,149.91Z"/><path class="cls-4" d="M39.32,173.93s7.86-13,15.23-24.27c0,0-15.31,10.5-25.46,20.43"/><path class="cls-5" d="M19.5,148.3S1,131.55,0,120.93c0,0,7.25-5.39,21-1.26Z"/><path class="cls-6" d="M145.09,108.86c2.08-1.22-4.5-22.7-20-39.54S88.24,38.75,86.67,42.69s6.92,30.33,16,40.19C123,104.84,141.69,110.84,145.09,108.86Z"/><path class="cls-7" d="M105.67,82.08s8.72,9.5,16.82,15.07,18.09,11.1,19.43,9.84-7.61-29.27-29.64-42.61Z"/><path class="cls-8" d="M86.67,42.69c-1.56,3.94,6.92,30.33,16,40.19A121.23,121.23,0,0,0,118.3,97.15,43.55,43.55,0,0,1,131.6,77.3a84.92,84.92,0,0,0-6.49-8C109.64,52.47,88.24,38.75,86.67,42.69Z"/><path class="cls-9" d="M111.77,93.18c.08.92,6.2,6.2,7,5.57s1.69-6.53,6.26-12.31,7.85-7,8.19-8.44-4.11-7.15-5.41-6.89S110.88,83.91,111.77,93.18Z"/><g class="cls-10"><path class="cls-8" d="M110.76,89.06c2.91,3.17,6,6.29,9.83,8.36.56.31,1.07-.56.5-.86-3.75-2-6.77-5.09-9.63-8.21-.43-.47-1.14.24-.7.71Z"/><path class="cls-8" d="M112.57,85.22c2.56,3.64,6.33,6.35,9.86,9,.51.39,1-.48.5-.86-1.73-1.3-3.45-2.61-5.09-4a26.09,26.09,0,0,1-4.41-4.62c-.37-.52-1.23,0-.86.51Z"/><path class="cls-8" d="M115.24,81.57c2.8,2.71,5.75,5.24,8.55,7.94.46.45,1.17-.25.7-.7-2.79-2.71-5.75-5.24-8.54-8-.46-.45-1.17.26-.71.71Z"/><path class="cls-8" d="M119,77.27a73.73,73.73,0,0,1,7.83,8.27c.38.5,1.25,0,.86-.51a75.17,75.17,0,0,0-8-8.47c-.47-.45-1.17.26-.71.71Z"/><path class="cls-8" d="M122.12,73.71a38,38,0,0,1,8.21,8.89c.36.52,1.23,0,.86-.51a39.47,39.47,0,0,0-8.57-9.25c-.51-.38-1,.48-.5.87Z"/></g><path class="cls-11" d="M132.7,78.86a2,2,0,0,0,.53-.86c.33-1.41-4.11-7.15-5.41-6.89a3.48,3.48,0,0,0-.76.41l-.34-.39c-.52-.61-1.06-1.22-1.61-1.81A139.26,139.26,0,0,0,113,57.68c-.6-.51-1.19-1-1.79-1.51q-2.18-1.81-4.31-3.45-.94-.73-1.86-1.41c-2-1.49-3.94-2.84-5.76-4-.45-.29-.89-.58-1.33-.85a47.21,47.21,0,0,0-6.8-3.62,15.42,15.42,0,0,0-1.68-.58,4.91,4.91,0,0,0-1.87-.2,1.09,1.09,0,0,0-.94.65c-1.56,3.94,6.92,30.33,16,40.19.66.71,1.32,1.4,2,2.08l.54.55c.48.49,1,1,1.43,1.45l.55.54c.48.47,1,.93,1.42,1.37.16.16.32.3.48.45.5.47,1,.94,1.48,1.38l.39.35.79.72a8.3,8.3,0,0,0,0,1.41c.08.92,6.2,6.2,7,5.57a2.35,2.35,0,0,0,.49-.87c13.1,9.72,23.38,12.4,25.82,11C146.79,107.87,142.7,93.33,132.7,78.86Z"/><path class="cls-6" d="M87.08,34.38c-.5-1.62,11.17-13.66,13-25a37.56,37.56,0,0,1-13-4c-6-3.33-17.16-9-31.16-2.16s-12.5,25.16-16,33.66S20.58,69.22,16.42,93.55s-3.92,48.5,3.08,57.75,32,10.25,48,9.75,38-4.5,42.25-10.5,4.25-42.36-2-67.56S88.67,39.47,87.08,34.38Z"/><path class="cls-7" d="M100.08,9.38a37.56,37.56,0,0,1-13-4c-.71-.39-1.49-.81-2.33-1.24h0S70.25-2.7,61,9.55s2.2,25.5,2.2,25.5S38.75,52.05,33,87.93s.75,59.62,6.75,63.87,51.5,4.75,59.5-3.5,8.75-26.25,7-44.5S87.08,34.38,87.08,34.38C86.58,32.76,98.25,20.72,100.08,9.38Z"/><path class="cls-5" d="M29.08,129.43a21,21,0,0,0,3.27-.18.38.38,0,0,0,.26-.46.38.38,0,0,0-.46-.27,18.47,18.47,0,0,1-3.07.16.38.38,0,0,0,0,.75Z"/><path class="cls-5" d="M29,127.25a22.31,22.31,0,0,0,3.44.51.38.38,0,0,0,0-.75,19.81,19.81,0,0,1-3.24-.49.39.39,0,0,0-.46.27.38.38,0,0,0,.26.46Z"/><path class="cls-5" d="M34.11,148.21a28.25,28.25,0,0,0,2.74-2.39.37.37,0,0,0-.53-.53c-.47.37-.89.8-1.32,1.21q-.31.31-.66.6l-.17.15-.07.06c-.1.08,0,0-.05,0a3.62,3.62,0,0,1-.32.22.38.38,0,0,0-.14.51.39.39,0,0,0,.52.14Z"/><path class="cls-5" d="M52.61,156.15c.22-.89.49-1.77.67-2.67A.39.39,0,0,0,53,153a.38.38,0,0,0-.46.27c-.19.89-.45,1.77-.67,2.66a.37.37,0,0,0,.72.2Z"/><path class="cls-5" d="M79.09,152.91l0,.06a.52.52,0,0,1,.06.16c0,.11.07.22.1.33s.13.5.18.76c.1.53.17,1.06.26,1.6a.37.37,0,1,0,.72-.2c-.09-.55-.16-1.1-.27-1.65a6,6,0,0,0-.43-1.44.38.38,0,1,0-.65.38Z"/><path class="cls-5" d="M80.89,152.82c.43,1.09.79,2.22,1.17,3.33a.37.37,0,0,0,.46.26.39.39,0,0,0,.26-.46c-.37-1.11-.73-2.24-1.17-3.33a.38.38,0,0,0-.46-.26.37.37,0,0,0-.26.46Z"/><path class="cls-5" d="M100,144.75a24.43,24.43,0,0,1,3.08,1.29.38.38,0,0,0,.51-.13.39.39,0,0,0-.13-.52,26.72,26.72,0,0,0-3.26-1.37.38.38,0,0,0-.46.27.39.39,0,0,0,.26.46Z"/><path class="cls-5" d="M104.25,132.93a17,17,0,0,1,2.73.48.37.37,0,1,0,.2-.72,17.28,17.28,0,0,0-2.93-.51.38.38,0,0,0,0,.75Z"/><path class="cls-5" d="M104.75,131.59a9.87,9.87,0,0,1,3.07.66.38.38,0,0,0,.46-.27.39.39,0,0,0-.26-.46,10.84,10.84,0,0,0-3.27-.68.38.38,0,0,0,0,.75Z"/><circle class="cls-5" cx="75.5" cy="17.05" r="2"/><circle class="cls-12" cx="72.25" cy="26.8" r="6.18"/><path class="cls-13" d="M84.75,17.05a22.22,22.22,0,0,1,11.11,3.36,34.68,34.68,0,0,0,4.22-11,37.56,37.56,0,0,1-13-4S89.75,14.8,84.75,17.05Z"/><path class="cls-8" d="M38.88,39.15c-4.87,10-18.62,32-22.46,54.4A194.21,194.21,0,0,0,14,113.91c8.46,3.88,27.58,10.58,56.51,9.14,22.83-1.13,35.28-5.29,41.78-8.68A184.72,184.72,0,0,0,107.75,83c-5.35-21.57-15.52-38.1-19.33-45.6C84.34,41.62,70.29,52,38.88,39.15Z"/><g class="cls-14"><polygon class="cls-15" points="79.87 81.99 89.87 79.5 79.6 78.65 82.92 73.11 78 77.29 75.5 67.29 74.66 77.56 69.12 74.24 73.3 79.16 63.29 81.66 73.57 82.5 70.24 88.04 75.17 83.86 77.66 93.87 78.51 83.59 84.05 86.92 79.87 81.99"/><polygon class="cls-15" points="48.36 82.01 55.94 81.42 48.58 79.55 51.67 75.93 47.58 78.36 46.99 70.78 45.12 78.15 41.5 75.05 43.93 79.15 36.35 79.73 43.72 81.61 40.62 85.23 44.71 82.79 45.3 90.38 47.18 83.01 50.8 86.11 48.36 82.01"/><polygon class="cls-15" points="107.3 76.89 114.32 73.96 106.73 74.48 108.55 70.08 105.42 73.67 102.49 66.65 103.01 74.23 98.61 72.42 102.2 75.55 95.18 78.47 102.77 77.95 100.95 82.36 104.08 78.77 107.01 85.79 106.49 78.2 110.89 80.02 107.3 76.89"/></g><path class="cls-9" d="M88.08,33.55c1.36-.45,5.59,7.75,5.42,9.58S83.75,52.72,69.42,54,35.94,46.45,35.19,43.86s1.73-4.14,2.14-6.06.94-5.61,3.77-4.82c1.35.38,10.32,7.49,24.15,7.32S85.08,34.55,88.08,33.55Z"/><g class="cls-16"><path class="cls-8" d="M44.15,32.47a16.69,16.69,0,0,0-2,3.15c-.48,1.31-.32,2.75-.83,4.05a58.94,58.94,0,0,1-3.87,7.8.5.5,0,0,0,.87.5,68.41,68.41,0,0,0,3.83-7.72,24,24,0,0,0,.81-3.85c.33-1.33,1.37-2.31,2.11-3.43.35-.54-.52-1-.87-.5Z"/><path class="cls-8" d="M51.16,35.45c-2.6,1.52-2.8,4.41-3.23,7.1a15.27,15.27,0,0,1-2,4.77,47,47,0,0,0-2.08,5.1c-.23.6.73.86,1,.26a43.24,43.24,0,0,1,2-5,15.47,15.47,0,0,0,2-4.44c.46-2.49.38-5.53,2.86-7a.5.5,0,0,0-.51-.87Z"/><path class="cls-8" d="M59.75,37.37A5.72,5.72,0,0,0,58,40.25a21,21,0,0,0-.9,4.14c-.19,1.62-.14,3.25-.38,4.87a34.42,34.42,0,0,1-1.44,5.91c-.2.61.76.87,1,.26a34.52,34.52,0,0,0,1.4-5.58c.25-1.61.28-3.21.4-4.83a20,20,0,0,1,.69-3.75c.28-1,.65-2.4,1.53-3,.52-.37,0-1.24-.5-.86Z"/><path class="cls-8" d="M65.73,38.57a3.8,3.8,0,0,1,1,3.27,25,25,0,0,1-.58,3.83c-.71,3.6-.17,7.24-.34,10.88,0,.64,1,.64,1,0,.1-2.13-.06-4.25-.06-6.38a24.59,24.59,0,0,1,.5-4.92c.44-2.24,1.25-5.69-.83-7.39-.5-.4-1.21.31-.71.71Z"/><path class="cls-8" d="M74,37c2.61,1.56,1.13,5.22.94,7.6a25.88,25.88,0,0,0,.22,4.74,33.52,33.52,0,0,0,.77,4.78.5.5,0,0,0,1-.26,31.76,31.76,0,0,1-.8-5.11A21.8,21.8,0,0,1,76,43.82c.37-2.67,1.29-6-1.53-7.7A.5.5,0,0,0,74,37Z"/><path class="cls-8" d="M80.13,36c1.07-.3,1.5.81,1.73,1.65a15.67,15.67,0,0,1,.43,3.67c0,.42,0,.85,0,1.27a7.42,7.42,0,0,0,.79,2.63,23.5,23.5,0,0,1,1.34,3.24c.34,1.15.64,2.31,1.06,3.44.22.6,1.18.34,1-.26-.69-1.88-1.06-3.86-1.91-5.68a9.84,9.84,0,0,1-1.26-4c0-1.91,0-4.2-1-5.91a2.07,2.07,0,0,0-2.45-1.06.5.5,0,0,0,.26,1Z"/><path class="cls-8" d="M84.48,33.16a7.27,7.27,0,0,0,1.27,1A2.78,2.78,0,0,1,86.81,36c.29,1.49.14,2.92.79,4.35a27.29,27.29,0,0,0,2.3,3.49,16.31,16.31,0,0,1,1.95,4.56.5.5,0,0,0,1-.26,17.89,17.89,0,0,0-1.9-4.56,33,33,0,0,1-2.46-3.74c-.66-1.48-.32-3.1-.81-4.61a3.52,3.52,0,0,0-1-1.61,9.81,9.81,0,0,1-1.43-1.12c-.41-.5-1.12.21-.71.71Z"/></g><path class="cls-9" d="M14.45,108.21c-1.13.06-2.53,1.59-2.28,4.34s-.39,5.92,0,6.92,11.19,11.25,49.61,10.33,50.92-9.47,51.92-11.69-.09-5.39,0-7.14.08-6.09-2.17-6-18.17,11-49.75,10.66S16.06,108.12,14.45,108.21Z"/><g class="cls-17"><path class="cls-8" d="M18.1,107.42a35.39,35.39,0,0,0-1.76,7.88c-.28,2.89,0,5.77-.09,8.67,0,.64,1,.64,1,0,.08-2.82-.18-5.63.06-8.44a34.71,34.71,0,0,1,1.76-7.85c.2-.61-.77-.87-1-.26Z"/><path class="cls-8" d="M26.6,110.84a84,84,0,0,0-2.25,9.91c-.47,2.61-1.32,5.44-.75,8.1.14.63,1.1.36,1-.26a10.93,10.93,0,0,1,.09-4c.21-1.35.49-2.68.74-4a77.24,77.24,0,0,1,2.17-9.47c.19-.61-.78-.88-1-.26Z"/><path class="cls-8" d="M36.42,112.05c-.28,5.77-2.39,11.29-2.42,17.08a.5.5,0,0,0,1,0c0-5.79,2.14-11.31,2.42-17.08,0-.64-1-.64-1,0Z"/><path class="cls-8" d="M45.67,113.3c-.27,5.61-1.49,11.22-.75,16.83.08.63,1.08.64,1,0-.74-5.61.48-11.22.75-16.83,0-.64-1-.64-1,0Z"/><path class="cls-8" d="M57.85,114c.56,2.82.28,5.73.3,8.59,0,3.23-.14,6.46-.15,9.69a.5.5,0,0,0,1,0c0-3.3.17-6.59.15-9.89,0-2.89.23-5.81-.33-8.66-.13-.63-1.09-.36-1,.27Z"/><path class="cls-8" d="M67.35,113.6c1,5.81-.66,11.64-.68,17.45a.5.5,0,0,0,1,0c0-5.92,1.64-11.8.65-17.71-.11-.64-1.07-.37-1,.26Z"/><path class="cls-8" d="M76,113.27c.86,2.91.89,6,1.16,9,.29,3.26.32,6.53.32,9.81a.5.5,0,0,0,1,0c0-3.35,0-6.68-.34-10-.26-3-.31-6.11-1.18-9a.5.5,0,0,0-1,.27Z"/><path class="cls-8" d="M85.23,112.24a6.82,6.82,0,0,1,1,3.62c.12,1.37.12,2.75.2,4.12A113.78,113.78,0,0,1,87,131.8c0,.65,1,.64,1,0a58.5,58.5,0,0,0-.14-6.75c-.13-1.83-.36-3.65-.44-5.48-.07-1.46-.07-2.92-.25-4.37a7,7,0,0,0-1.23-3.67c-.41-.5-1.11.21-.71.71Z"/><path class="cls-8" d="M93.07,110.05c1.42,2.67,1.76,5.8,2.22,8.74a71,71,0,0,1,.38,11,.5.5,0,0,0,1,0,73.11,73.11,0,0,0-.41-11.27c-.48-3-.86-6.23-2.33-9-.3-.57-1.16-.06-.86.5Z"/><path class="cls-8" d="M101.31,107.24c1.9,2.22,2.41,5.59,2.76,8.4a36.89,36.89,0,0,1,0,10.7c-.11.62.86.9,1,.26a38.08,38.08,0,0,0,0-11.28c-.39-3-1-6.42-3-8.79-.42-.49-1.12.22-.71.71Z"/><path class="cls-8" d="M106.65,104.72c1.71,2.29,2.23,5.29,2.67,8a39.2,39.2,0,0,1,.1,10.71c-.08.64.92.63,1,0a40.3,40.3,0,0,0-.13-11c-.45-2.84-1-5.93-2.77-8.28-.39-.51-1.26,0-.87.5Z"/></g><path class="cls-6" d="M30.12,139.8c2.32.65,13.15-19,14.46-41.87S40.83,50.18,36.92,51.8,20,77.89,19.25,91.3C17.64,121.18,26.33,138.74,30.12,139.8Z"/><path class="cls-18" d="M19.25,91.3c-1.61,29.88,7.08,47.44,10.87,48.5"/><path class="cls-8" d="M36.92,51.8C33,53.43,20,77.89,19.25,91.3a121.58,121.58,0,0,0,.62,21.13,43.37,43.37,0,0,1,23.5-4.28,85.76,85.76,0,0,0,1.21-10.22C45.9,75.09,40.83,50.18,36.92,51.8Z"/><path class="cls-19" d="M44.58,97.93c1.32-22.84-3.75-47.75-7.66-46.13S20,77.89,19.25,91.3"/><path class="cls-9" d="M18.17,105c-.61.71-.13,8.77.88,8.91s5.87-3.33,13.2-4.08,10.5.75,11.75,0,2.27-7.93,1.18-8.68S24.19,97.88,18.17,105Z"/><g class="cls-20"><path class="cls-8" d="M20.42,101.38c-.25,4.31-.32,8.7.85,12.89a.5.5,0,0,0,1-.27c-1.15-4.1-1.06-8.4-.81-12.62,0-.64-1-.64-1,0Z"/><path class="cls-8" d="M24.43,100c-.82,4.34-.15,8.89.4,13.22.08.63,1.08.64,1,0-.54-4.23-1.23-8.72-.43-13,.12-.63-.85-.9-1-.27Z"/><path class="cls-8" d="M28.92,99.38c0,3.9.24,7.78.25,11.67a.5.5,0,0,0,1,0c0-3.89-.25-7.77-.25-11.67a.5.5,0,0,0-1,0Z"/><path class="cls-8" d="M34.58,99.05a74.44,74.44,0,0,1-.48,11.37c-.1.63.87.9,1,.26a76.52,76.52,0,0,0,.51-11.63.5.5,0,0,0-1,0Z"/><path class="cls-8" d="M39.33,98.72a38.48,38.48,0,0,1-.65,12.2c-.12.63.84.9,1,.26a39.51,39.51,0,0,0,.68-12.46c-.08-.63-1.08-.64-1,0Z"/></g></g></g></g></svg>