<svg xmlns="http://www.w3.org/2000/svg" xmlns:xlink="http://www.w3.org/1999/xlink" viewBox="0 0 111.73 193.14"><defs><style>.cls-1,.cls-11,.cls-15,.cls-19,.cls-20,.cls-21,.cls-22,.cls-23,.cls-24,.cls-25,.cls-28{fill:none;}.cls-2{isolation:isolate;}.cls-3{fill:#c9e0f4;}.cls-10,.cls-4{fill:#fff;}.cls-5{fill:#edc0c0;}.cls-6,.cls-9{fill:#486b9f;}.cls-7{fill:#304b82;}.cls-8{clip-path:url(#clip-path);}.cls-9{mix-blend-mode:multiply;opacity:0.3;}.cls-10{stroke:#c9e0f4;}.cls-10,.cls-11,.cls-15,.cls-19,.cls-20,.cls-21,.cls-22,.cls-23,.cls-24,.cls-25,.cls-28{stroke-miterlimit:10;}.cls-10,.cls-19,.cls-20,.cls-21,.cls-22,.cls-23,.cls-24,.cls-25{stroke-width:0.5px;}.cls-11{stroke:#719bcc;}.cls-11,.cls-28{stroke-width:0.75px;}.cls-12{fill:#d9ebfe;}.cls-13{fill:#719bcc;}.cls-14{fill:#192b47;}.cls-15{stroke:#192b47;}.cls-16{clip-path:url(#clip-path-2);}.cls-17{fill:#f0ad36;}.cls-18{fill:#c8820a;}.cls-19,.cls-20,.cls-21,.cls-22,.cls-23,.cls-24,.cls-25{stroke:#fff;}.cls-20{stroke-dasharray:5.84 4.68;}.cls-21{stroke-dasharray:5.84 4.68;}.cls-22{stroke-dasharray:5.84 4.68;}.cls-23{stroke-dasharray:5.84 4.68;}.cls-24{stroke-dasharray:5.84 4.68;}.cls-25{stroke-dasharray:5.84 4.68;}.cls-26{clip-path:url(#clip-path-3);}.cls-27{clip-path:url(#clip-path-4);}.cls-28{stroke:#304b82;}.cls-29{clip-path:url(#clip-path-5);}</style><clipPath id="clip-path"><path class="cls-1" d="M28.39,100.72c1.16,1-.06,12-2.61,11.21s-5.54-3.71-10.62-5.1S3.29,106,1.69,106-1.12,97,1.64,95.23,20.48,93.6,28.39,100.72Z"/></clipPath><clipPath id="clip-path-2"><path class="cls-1" d="M98.18,115.41c-2.29-18-10.78-48-15.83-59.07C79,49,76.32,42.73,74.84,39.21c-4.41,2.74-22,12.93-41.35,14.28-.8,6-3.86,18-11.58,43.39a93.7,93.7,0,0,0-3.56,19C30.33,115.42,73.05,113.93,98.18,115.41Z"/></clipPath><clipPath id="clip-path-3"><path class="cls-1" d="M17.17,111.31c-1.71.51-.36,5.62-.5,7.8s-.11,3.48,1.28,3.32,10.5-2.09,34.15-2.75,40.77,1.77,43.16,2.24,4,.35,4.42-.88,0-5.42.48-7.46-1.15-3.3-5.92-4.3S47.58,102.34,17.17,111.31Z"/></clipPath><clipPath id="clip-path-4"><path class="cls-1" d="M72.53,34.84c-1.42-1.32-1.91-.1-3.64,1.74s-9.66,7-16.13,9-18.07,2-20,2-1.7.31-1.26,2.29-1.11,7.78,1,8.89,16.37,3.64,26.53-2.15S78,42.93,77.91,41.31a4.1,4.1,0,0,0-2.33-3.14C74.06,37.36,73.57,35.8,72.53,34.84Z"/></clipPath><clipPath id="clip-path-5"><path class="cls-1" d="M61.58,104.4c-1.51.39-5.49,10.69-2.85,11.15s6.62-.73,11.77.37,10.91,4.75,12.36,5.44,6.61-6.63,5-9.5S71.89,101.73,61.58,104.4Z"/></clipPath></defs><g class="cls-2"><g id="Слой_2" data-name="Слой 2"><g id="OBJECTS"><path class="cls-3" d="M62.71,0C55.55.73,52.11,7.9,52.11,7.9l14.47,12C77.58,7.6,69.87-.65,62.71,0Z"/><path class="cls-4" d="M44.9,61.4c-3.75,7.77-8.74,19-13.7,31.14S25,117.7,23.87,122.33s-7.56,9.48-14.1,2.09-11.61-21.56-6.14-38S22.4,60,29.57,56.29,47.7,55.61,44.9,61.4Z"/><path class="cls-5" d="M16.49,100c-5.45-1.38-6.73,12.68.66,15.83S27.08,102.66,16.49,100Z"/><path class="cls-5" d="M17.2,117.13c-1.58-2.27-2,4.16-.32,4.86S18.68,119.28,17.2,117.13Z"/><path class="cls-5" d="M12.23,113.53c-1.57-1.92-2.11,3.39-1,4.84S14.37,116.12,12.23,113.53Z"/><path class="cls-5" d="M22.17,116.59c-1.73.54-1.41,5.2-.34,5.25S23.89,116.05,22.17,116.59Z"/><path class="cls-6" d="M44.9,61.4c-3.75,7.77-8.74,19-13.7,31.14a89.41,89.41,0,0,0-4.07,13c-5.28-2.68-15.89-7.13-25.8-5.69a43.92,43.92,0,0,1,2.3-13.44C9.1,70,22.4,60,29.57,56.29S47.7,55.61,44.9,61.4Z"/><path class="cls-7" d="M28.39,100.72c1.16,1-.06,12-2.61,11.21s-5.54-3.71-10.62-5.1S3.29,106,1.69,106-1.12,97,1.64,95.23,20.48,93.6,28.39,100.72Z"/><g class="cls-8"><path class="cls-6" d="M25.16,97.33c-.64,2.34-.49,4.77-.78,7.16a32.65,32.65,0,0,1-2.11,7.22c-.22.6.74.86,1,.26a35.29,35.29,0,0,0,2.1-7.1c.36-2.42.14-4.9.8-7.28a.5.5,0,0,0-1-.26Z"/><path class="cls-6" d="M19,95.19a42.83,42.83,0,0,1-.85,7A34.11,34.11,0,0,1,16.41,109c-.23.6.73.86,1,.27a35.42,35.42,0,0,0,1.81-7A42.24,42.24,0,0,0,20,95.19a.5.5,0,0,0-1,0Z"/><path class="cls-6" d="M12.69,93.61c.4,2.21-.11,4.59-.43,6.79s-.42,4.88-1.36,7.08c-.25.59.61,1.1.86.51,1-2.36,1.12-5,1.49-7.5.34-2.34.83-4.79.4-7.15-.11-.63-1.08-.36-1,.27Z"/><path class="cls-6" d="M5.3,93.29c.49,2.49-.09,5.08-.16,7.59-.07,2.85.14,5.69,0,8.54,0,.64,1,.64,1,0,.14-2.91-.1-5.82,0-8.74.08-2.55.61-5.12.11-7.66-.13-.63-1.09-.36-1,.27Z"/></g><path class="cls-9" d="M45.27,58.9A3,3,0,0,0,45,58a4.21,4.21,0,0,0-.56-.79,7.07,7.07,0,0,0-2.81-1.77q-.3-.12-.6-.21a14.56,14.56,0,0,0-2-.45l-.69-.09a16.51,16.51,0,0,0-5.17.29,13.89,13.89,0,0,0-3.58,1.27C22.4,60,9.1,70,3.63,86.43c-.19.57-.36,1.12-.52,1.68,0,.12-.07.24-.1.35-.13.46-.26.92-.37,1.38l-.06.24a43,43,0,0,0-1,5.16C-1.11,97.07.1,105.89,1.69,106h0a35.61,35.61,0,0,0,8.08,18.47c6.54,7.39,12.94,2.55,14.1-2.09.52-2.07,1.05-5.81,1.91-10.4,2.55.8,3.76-10.09,2.63-11.2.14-.51.28-1,.44-1.55,0-.07,0-.15.07-.23.28-.89.58-1.8.89-2.7l.27-.74c.35-1,.72-2,1.12-3,5-12.13,10-23.37,13.7-31.14.09-.18.16-.36.23-.53a3.86,3.86,0,0,0,.21-1A3,3,0,0,0,45.27,58.9Z"/><path class="cls-3" d="M99,119.5c-6.3.63-14.1,9.14-12.36,17.85s11.21,14.24,20.06,7.9S112.48,118.14,99,119.5Z"/><path class="cls-10" d="M68.88,18s7-3.8,13.2-.17,7.64,14.82-8.48,18.38c0,0,3.64,8.88,8.75,20.1C87.6,67.86,96.57,99.88,98.43,117.5S94.82,187.29,92.05,191s-18.29,1.35-19.87-2.67-.18-22.12-2.37-23.87-15,0-16,1.26-2.44,19.88-3.52,22.35-18.64,3.17-21.14-.91-18.68-52.81-7.27-90.3S34.56,50.94,33.35,48.33,15.23,32.87,15,22,19.47,6.66,21.55,6.56s8.84,2.19,13.53.88S47,4.53,51.27,6.42,67.93,15,68.88,18Z"/><path class="cls-11" d="M34,180s3.75,5.42,1.81,9.77"/><path class="cls-11" d="M43.58,179.44s3,7.15,1,10.45"/><path class="cls-11" d="M78.2,181.68s-3.31,5-1.34,10"/><path class="cls-11" d="M85.46,183.38s-3.2,5.88-1.43,9.4"/><path class="cls-12" d="M54.2,67.83c-9.93.77-22.73,9.52-24.93,36.26s4.13,47.66,27.6,49.18S90.49,124.59,83.58,98.8,65.57,67,54.2,67.83Z"/><path class="cls-13" d="M72.26,146.62a27.25,27.25,0,0,1,4,2.67.37.37,0,0,0,.53-.53,28.88,28.88,0,0,0-4.2-2.79.38.38,0,0,0-.38.65Z"/><path class="cls-13" d="M73.62,144.56a14.75,14.75,0,0,0,2.11,1.21c.78.4,1.58.79,2.34,1.23a.38.38,0,0,0,.38-.65c-.76-.44-1.56-.82-2.34-1.23A13.85,13.85,0,0,1,74,143.91a.38.38,0,0,0-.51.14.38.38,0,0,0,.13.51Z"/><path class="cls-13" d="M82.12,130.1l3.67.24a.38.38,0,1,0,0-.75l-3.67-.24a.38.38,0,0,0,0,.75Z"/><path class="cls-13" d="M37.82,148.36a5.77,5.77,0,0,0,2.51-3.15.37.37,0,0,0-.26-.46.39.39,0,0,0-.46.26,5,5,0,0,1-2.16,2.7.37.37,0,0,0,.37.65Z"/><path class="cls-13" d="M28.06,131.8c1.16-.31,2.26-.79,3.44-1a.37.37,0,1,0-.19-.72c-1.19.22-2.29.7-3.45,1a.38.38,0,0,0,.2.73Z"/><path class="cls-13" d="M27.22,129c1.58-.21,3.18-.35,4.75-.63a.38.38,0,0,0-.2-.73c-1.51.27-3,.41-4.55.61a.38.38,0,0,0-.37.37c0,.19.17.41.37.38Z"/><path class="cls-5" d="M69.75,21.61s4.42-1.85,7.66-1.52,2.24,3.33,1.36,4.46c-2.89,3.73-8,4.32-8,4.32Z"/><path class="cls-5" d="M49.87,29a8.62,8.62,0,1,1-8-9.16A8.62,8.62,0,0,1,49.87,29Z"/><path class="cls-14" d="M16.66,11.83s-.71-6,1.92-7.42,7.9,1.21,10.5,3.21c3,2.27.77,4.6-1.59,4.92A31.12,31.12,0,0,1,16.66,11.83Z"/><path class="cls-15" d="M16.66,11.83s-2,5-1.68,8.82c0,0,4.45,6.05,11.45,1.2"/><path class="cls-14" d="M40.74,17a1.78,1.78,0,1,1-1.66-1.9A1.79,1.79,0,0,1,40.74,17Z"/><path class="cls-6" d="M98.18,115.41c-2.29-18-10.78-48-15.83-59.07C79,49,76.32,42.73,74.84,39.21c-4.41,2.74-22,12.93-41.35,14.28-.8,6-3.86,18-11.58,43.39a93.7,93.7,0,0,0-3.56,19C30.33,115.42,73.05,113.93,98.18,115.41Z"/><g class="cls-16"><rect class="cls-17" x="2.62" y="71.77" width="20.19" height="20.19" transform="translate(-56.1 35.73) rotate(-47.33)"/><rect class="cls-18" x="31.16" y="70.61" width="20.19" height="20.19" transform="translate(-46.05 56.34) rotate(-47.33)"/><rect class="cls-17" x="59.7" y="69.45" width="20.19" height="20.19" transform="translate(-36 76.95) rotate(-47.33)"/><rect class="cls-18" x="88.23" y="68.29" width="20.19" height="20.19" transform="translate(-25.95 97.56) rotate(-47.33)"/><polyline class="cls-19" points="29.27 93.72 27.57 95.56 25.73 93.86"/><line class="cls-20" x1="22.3" y1="90.69" x2="16.28" y2="85.15"/><polyline class="cls-19" points="14.56 83.56 12.72 81.87 14.42 80.03"/><line class="cls-20" x1="17.59" y1="76.59" x2="23.13" y2="70.58"/><polyline class="cls-19" points="24.71 68.86 26.41 67.02 28.25 68.71"/><line class="cls-21" x1="31.69" y1="71.88" x2="37.7" y2="77.43"/><polyline class="cls-19" points="39.42 79.01 41.26 80.71 39.56 82.54"/><line class="cls-21" x1="36.4" y1="85.98" x2="30.85" y2="92"/><polyline class="cls-19" points="57.8 92.56 56.11 94.39 54.27 92.7"/><line class="cls-21" x1="50.83" y1="89.53" x2="44.82" y2="83.98"/><polyline class="cls-19" points="43.1 82.4 41.26 80.71 42.95 78.87"/><line class="cls-21" x1="46.12" y1="75.43" x2="51.67" y2="69.41"/><polyline class="cls-19" points="53.25 67.7 54.95 65.86 56.78 67.55"/><line class="cls-22" x1="60.22" y1="70.72" x2="66.24" y2="76.27"/><polyline class="cls-19" points="67.96 77.85 69.8 79.55 68.1 81.38"/><line class="cls-23" x1="64.93" y1="84.82" x2="59.39" y2="90.84"/><polyline class="cls-19" points="86.34 91.39 84.64 93.23 82.81 91.54"/><line class="cls-21" x1="79.37" y1="88.37" x2="73.35" y2="82.82"/><polyline class="cls-19" points="71.63 81.24 69.8 79.55 71.49 77.71"/><line class="cls-24" x1="74.66" y1="74.27" x2="80.2" y2="68.25"/><polyline class="cls-19" points="81.79 66.53 83.48 64.7 85.32 66.39"/><line class="cls-25" x1="88.76" y1="69.56" x2="94.77" y2="75.1"/><polyline class="cls-19" points="96.49 76.69 98.33 78.38 96.64 80.22"/><line class="cls-21" x1="93.47" y1="83.66" x2="87.92" y2="89.68"/></g><path class="cls-7" d="M17.17,111.31c-1.71.51-.36,5.62-.5,7.8s-.11,3.48,1.28,3.32,10.5-2.09,34.15-2.75,40.77,1.77,43.16,2.24,4,.35,4.42-.88,0-5.42.48-7.46-1.15-3.3-5.92-4.3S47.58,102.34,17.17,111.31Z"/><g class="cls-26"><path class="cls-6" d="M20,108.63a8.92,8.92,0,0,0-.52,3.32,23.15,23.15,0,0,0,.58,3.51,25.35,25.35,0,0,1-.11,7.92c-.07.64.93.64,1,0a28.48,28.48,0,0,0,.21-7.49c-.19-1.19-.54-2.35-.65-3.56a8.24,8.24,0,0,1,.45-3.44c.21-.61-.75-.87-1-.26Z"/><path class="cls-6" d="M26,107.52c-1.62,1.92-1.19,4.5-.75,6.76a35.39,35.39,0,0,1,.41,8.9c0,.65,1,.64,1,0a33.74,33.74,0,0,0-.28-8.28c-.39-2.08-1.21-4.85.32-6.67.42-.49-.29-1.2-.7-.71Z"/><path class="cls-6" d="M32.93,105.78c-1.86,1.81-1.86,4.67-1.58,7.07.18,1.51.41,3,.51,4.54.12,1.74.2,3.48.46,5.2.1.64,1.06.37,1-.26-.26-1.64-.32-3.29-.43-4.94-.09-1.41-.28-2.8-.47-4.2-.29-2.2-.49-5,1.25-6.7.46-.45-.24-1.15-.71-.71Z"/><path class="cls-6" d="M39.42,105.28c-1.76,1.84-1.32,4.71-1,7,.19,1.51.27,3,.34,4.55a19.7,19.7,0,0,1-.29,5.2c-.15.63.82.9,1,.27a19.21,19.21,0,0,0,.36-4.79c-.05-1.54-.11-3.11-.3-4.63-.25-2.12-1-5.16.65-6.89.45-.47-.26-1.17-.7-.71Z"/><path class="cls-6" d="M46.7,104.83c-1.89,1.64-1.51,4.78-1.34,7,.26,3.44.57,7-.13,10.42-.13.63.83.9,1,.27a36.66,36.66,0,0,0,.21-10.09,30.36,30.36,0,0,1-.15-3.69,4.35,4.35,0,0,1,1.16-3.19c.48-.42-.23-1.13-.71-.71Z"/><path class="cls-6" d="M53.5,104.38c-2.29,1.5-1.81,4.59-1.35,6.89a18.77,18.77,0,0,1,.49,4.67c-.09,2-.46,3.89-.6,5.84,0,.64,1,.64,1,0,.13-1.8.45-3.59.58-5.39a16.38,16.38,0,0,0-.33-4.53c-.41-2-1.34-5.26.72-6.61.54-.35,0-1.22-.51-.87Z"/><path class="cls-6" d="M59.73,105.32c-1.42,1.89-1,4.55-.71,6.72a30.59,30.59,0,0,1-.24,9c-.1.63.86.9,1,.26a30.36,30.36,0,0,0,.36-8.72c-.28-2.14-.91-4.88.49-6.76.38-.52-.48-1-.86-.51Z"/><path class="cls-6" d="M66.87,104.64c-3.73,4.67-.48,10.76-1.73,16-.15.63.81.9,1,.27.62-2.6.2-5.29,0-7.92s-.25-5.49,1.47-7.65c.4-.5-.3-1.21-.7-.71Z"/><path class="cls-6" d="M71.52,105.54a143.53,143.53,0,0,1-.09,15.66c0,.64,1,.64,1,0a143.53,143.53,0,0,0,.09-15.66c0-.64-1-.65-1,0Z"/><path class="cls-6" d="M77,105.68c.56,2.41.24,4.93.59,7.36a30.49,30.49,0,0,1,.37,4.26c0,1.51-.09,3-.19,4.53,0,.65,1,.64,1,0a40.91,40.91,0,0,0-.19-8.85c-.38-2.51,0-5.09-.61-7.57-.15-.62-1.11-.36-1,.27Z"/><path class="cls-6" d="M83.94,105.88a80.16,80.16,0,0,0-.12,8.63c.12,2.69,1,5.24,1.23,7.91,0,.64,1,.65,1,0-.19-2.67-1.11-5.23-1.23-7.91a80.16,80.16,0,0,1,.12-8.63c0-.64-1-.64-1,0Z"/><path class="cls-6" d="M91.61,106.71a35.57,35.57,0,0,0-1.72,8.43c-.24,3,.52,5.91.24,8.88-.06.64.94.64,1,0,.27-2.89-.44-5.76-.25-8.65a33.86,33.86,0,0,1,1.69-8.4c.21-.61-.76-.87-1-.26Z"/><path class="cls-6" d="M95.89,108.25a3.81,3.81,0,0,0,0,1.68,6.45,6.45,0,0,1-.09,2.19,22.28,22.28,0,0,0-.75,4.34c0,2.87,1.39,5.72.58,8.59a.5.5,0,0,0,1,.26c.8-2.84-.39-5.6-.54-8.44a17.55,17.55,0,0,1,.69-4.37,7.73,7.73,0,0,0,.2-2,5.35,5.35,0,0,1-.07-2c.2-.62-.77-.88-1-.27Z"/></g><path class="cls-7" d="M72.53,34.84c-1.42-1.32-1.91-.1-3.64,1.74s-9.66,7-16.13,9-18.07,2-20,2-1.7.31-1.26,2.29-1.11,7.78,1,8.89,16.37,3.64,26.53-2.15S78,42.93,77.91,41.31a4.1,4.1,0,0,0-2.33-3.14C74.06,37.36,73.57,35.8,72.53,34.84Z"/><g class="cls-27"><path class="cls-6" d="M33.79,46.41c-.59,2.36.84,4.49,1.14,6.77.36,2.75-.1,5.55.18,8.31.06.63,1.06.64,1,0-.27-2.69.11-5.39-.15-8.07a16,16,0,0,0-.8-3.26,6.49,6.49,0,0,1-.41-3.48.5.5,0,0,0-1-.27Z"/><path class="cls-6" d="M38.56,45.69c-.81,2.55.51,4.9,1,7.37a25.85,25.85,0,0,1,.3,8.37c-.09.63.87.9,1,.27a28.88,28.88,0,0,0-.16-8c-.35-2.52-1.93-5.14-1.12-7.71.2-.61-.77-.88-1-.26Z"/><path class="cls-6" d="M44.12,45.12c-.63,2.62,0,5.28.75,7.81a45.39,45.39,0,0,1,1.69,7.8c.06.64,1.06.64,1,0A42.14,42.14,0,0,0,46,53.36c-.73-2.57-1.59-5.29-.94-8,.15-.62-.82-.89-1-.27Z"/><path class="cls-6" d="M50.4,44.15c-.94,2.75-.06,5.32.89,7.92a20.09,20.09,0,0,1,1.4,8.14c0,.64,1,.64,1,0a20.14,20.14,0,0,0-1.21-7.76c-.91-2.66-2.09-5.2-1.11-8,.21-.61-.76-.88-1-.27Z"/><path class="cls-6" d="M55.35,42.3c.67,5.26,3.47,9.91,4.58,15.06.14.62,1.1.36,1-.27C59.81,52,57,47.46,56.35,42.3c-.08-.63-1.08-.64-1,0Z"/><path class="cls-6" d="M60.88,40c1.48,2,2,4.43,3.13,6.59,1.08,2,2.73,3.64,3.26,5.91.14.63,1.11.37,1-.26-.53-2.3-2.13-4-3.26-6-1.24-2.18-1.71-4.71-3.23-6.76-.37-.51-1.24,0-.86.51Z"/><path class="cls-6" d="M64.8,37.29A13.08,13.08,0,0,0,68.6,43c1.63,1.65,3.42,3.29,4.23,5.53.21.6,1.18.34,1-.27a15.64,15.64,0,0,0-4.06-5.55c-1.66-1.65-3.35-3.35-4-5.68a.5.5,0,0,0-1,.27Z"/><path class="cls-6" d="M67,35.59c1,2.24,3.22,3.76,5.24,5,2.18,1.31,4.51,2.33,6.72,3.58.56.31,1.07-.55.51-.87-2.12-1.19-4.35-2.18-6.44-3.41s-4.21-2.59-5.16-4.77c-.26-.59-1.12-.08-.87.5Z"/></g><path class="cls-4" d="M65.06,61.9c-.25,8.63-1,20.9-2.2,33.95S56.74,121,55.63,125.67,58,137.57,67.18,134s20.24-13.78,23-30.88S85.66,71.07,81,64.43,65.25,55.47,65.06,61.9Z"/><path class="cls-6" d="M65.06,61.9c-.25,8.63-1,20.9-2.2,33.95a89.3,89.3,0,0,1-2.39,13.43c5.93,0,17.39,1,25.51,6.84a43.78,43.78,0,0,0,4.16-13C92.86,86.05,85.66,71.07,81,64.43S65.25,55.47,65.06,61.9Z"/><path class="cls-11" d="M61.12,122.11s-4.9,5.07-4.62,9.4"/><path class="cls-11" d="M67.46,123.79s-4.09,6.09-2.56,10.92"/><path class="cls-28" d="M62.86,95.85a89.3,89.3,0,0,1-2.39,13.43"/><path class="cls-28" d="M86,116.12a43.78,43.78,0,0,0,4.16-13,48.67,48.67,0,0,0,.54-10"/><path class="cls-7" d="M61.58,104.4c-1.51.39-5.49,10.69-2.85,11.15s6.62-.73,11.77.37,10.91,4.75,12.36,5.44,6.61-6.63,5-9.5S71.89,101.73,61.58,104.4Z"/><g class="cls-29"><path class="cls-6" d="M65,102.64c-.52,2.44-1.87,4.56-2.67,6.89A36.62,36.62,0,0,0,61,116.87c-.08.64.92.63,1,0a32.85,32.85,0,0,1,1.45-7.28c.83-2.24,2.09-4.32,2.59-6.68.14-.63-.83-.9-1-.27Z"/><path class="cls-6" d="M71.56,103.33a41.89,41.89,0,0,0-2.5,6.62,36.23,36.23,0,0,0-1.67,7.26c-.07.64.93.63,1,0a34.56,34.56,0,0,1,1.64-7,40.17,40.17,0,0,1,2.4-6.38c.29-.57-.57-1.07-.87-.5Z"/><path class="cls-6" d="M78.08,104.64a21.13,21.13,0,0,0-2.84,6.22c-.86,2.48-2,5-2.26,7.63,0,.65,1,.64,1,0,.2-2.48,1.36-4.87,2.17-7.2a20.56,20.56,0,0,1,2.63-5.94c.39-.5-.31-1.22-.7-.71Z"/><path class="cls-6" d="M84.78,107.76c-1.56,1.95-2.28,4.37-3.32,6.61-1.26,2.72-2.88,5.26-4.14,8-.27.58.59,1.09.86.5,1.23-2.67,2.8-5.16,4.06-7.82,1-2.19,1.71-4.66,3.25-6.57.4-.5-.3-1.21-.71-.71Z"/></g></g></g></g></svg>