<svg xmlns="http://www.w3.org/2000/svg" viewBox="0 0 148.52 212.25"><defs><style>.cls-1{fill:#c9ddd9;}.cls-2{fill:#fff;}.cls-3{fill:#252d3a;}.cls-4{fill:#ae262b;}.cls-5{fill:#8e141d;}.cls-6{fill:#7b878e;}.cls-7{fill:#61696c;}.cls-8{fill:#1d2e49;}.cls-9{fill:#efece8;}</style></defs><g id="Слой_2" data-name="Слой 2"><g id="OBJECTS"><path class="cls-1" d="M2.54,141.39C8,158.79,22.59,172.18,39.07,180c13,6.15,28.46,9.2,41.86,3.89C63.25,162.21,45.28,139.16,40,111.72c-2.3-12-2.08-24.32-5.05-36.12S24.79,52,13.23,48.21C13.06,64,8,79.28,4.21,94.62S-2.16,126.3,2.54,141.39Z"/><path class="cls-2" d="M9.92,72.29C9.09,75.86,8.18,79.42,7.24,83a47,47,0,0,1,5.68-.49q.83-5.43,1.83-10.74A43.53,43.53,0,0,0,9.92,72.29Z"/><path class="cls-2" d="M3,99.62A132,132,0,0,0,.57,114a76.36,76.36,0,0,1,9.9-3.83c.07-4,.29-8,.61-12A45.43,45.43,0,0,0,3,99.62Z"/><path class="cls-2" d="M2.18,140.1c.12.43.23.86.36,1.29a54.58,54.58,0,0,0,9.58,17.73,41.79,41.79,0,0,1,3.58-9.39,104.22,104.22,0,0,1-4.22-19.43A41.69,41.69,0,0,0,2.18,140.1Z"/><path class="cls-2" d="M21.73,168.91A76.13,76.13,0,0,0,28,173.62a75.15,75.15,0,0,1-5.16-7.76C22.45,166.87,22.06,167.89,21.73,168.91Z"/><path class="cls-3" d="M39.6,109.53c-13.07-4.12-26.75-1.31-39,4.44-1,8.82-.79,17.66,1.61,26.13,8.31-12.47,24.79-20.45,39.69-20.58-.73-2.56-1.37-5.16-1.88-7.8Q39.78,110.63,39.6,109.53Z"/><path class="cls-3" d="M35.18,76.66c-.09-.35-.16-.71-.24-1.06C32,63.8,24.79,52,13.23,48.21A112.17,112.17,0,0,1,9.92,72.29C18.61,70.8,27.88,71.93,35.18,76.66Z"/><path class="cls-3" d="M7.24,83c-1,3.88-2.06,7.76-3,11.65Q3.6,97.1,3,99.62c11.28-3.24,23.93-1.71,35.45,1.61C38,97,37.66,92.65,37.16,88.38,28.65,83.37,17.6,81.44,7.24,83Z"/><path class="cls-3" d="M44.05,126.22c-15,4.26-28.19,17.5-31.93,32.9a67.34,67.34,0,0,0,9.61,9.79c4.43-13.52,14.65-25.5,27.64-30.42A117.73,117.73,0,0,1,44.05,126.22Z"/><path class="cls-3" d="M55.43,149.32A52.21,52.21,0,0,0,32,176.19q3.45,2.06,7,3.77c13,6.15,28.46,9.2,41.86,3.89C71.93,172.83,62.86,161.46,55.43,149.32Z"/><path class="cls-3" d="M80.37,46a84.16,84.16,0,0,0-16.56-7.69c-1.06-.36-2.54-.55-3,.46a2.37,2.37,0,0,0-.11,1.27q.75,8,2.2,15.93c.38,2.1.87,4.32,2.36,5.85s4.34,1.91,5.64.22Z"/><path class="cls-4" d="M68.18,58a1.89,1.89,0,0,0,1.29-.39L74,54.81c.7-.42,1.47-1,1.59-1.76a2.73,2.73,0,0,0-.55-1.74A28.23,28.23,0,0,0,64.3,41.2a35.75,35.75,0,0,0,2.78,15.55C67.3,57.28,67.62,57.87,68.18,58Z"/><path class="cls-3" d="M118,45.92a84.79,84.79,0,0,1,16.51-7.81c1.06-.37,2.53-.56,3,.45a2.36,2.36,0,0,1,.12,1.27q-.7,8-2.09,15.94c-.37,2.1-.84,4.32-2.33,5.86s-4.32,1.95-5.64.27Z"/><path class="cls-4" d="M122,53.58a3.23,3.23,0,0,1-1.12-2,3.33,3.33,0,0,1,1.19-2.28A36.62,36.62,0,0,1,134,41a34.53,34.53,0,0,1-2.56,19.14A29.8,29.8,0,0,1,122,53.58Z"/><path class="cls-4" d="M66.13,13.07c4.29-.47,9,.49,12,3.51,3.63,3.56,4.38,9.14,4,14.2-.27,3.41-1,6.79-1.3,10.19l37.35-.13a81.06,81.06,0,0,0,.41-14.27c-.46-5.53-2-11.1-5.23-15.6C109.1,5,102.06,1.4,94.81.35S80.12.66,73.26,3.22,60,9.52,53.81,13.38a3.77,3.77,0,0,1,0,3.63C57.78,15.28,61.83,13.55,66.13,13.07Z"/><path class="cls-5" d="M82.24,28.89q0,1-.09,1.89c-.27,3.41-1,6.79-1.3,10.19l37.35-.13a86,86,0,0,0,.48-13.13A42.66,42.66,0,0,0,82.24,28.89Z"/><path class="cls-2" d="M56.92,14.78a4.36,4.36,0,1,1-4.36-4.36A4.36,4.36,0,0,1,56.92,14.78Z"/><path class="cls-2" d="M121.43,38.66c-4-5.47-13-9.27-23.44-9.23-10.23,0-19,3.74-23.16,9.07l0,13.52c4.14,5.31,13,9,23.22,8.92,10.42,0,19.38-3.88,23.38-9.38Z"/><path class="cls-3" d="M117.5,42.43c-3.35-4.54-10.81-7.69-19.47-7.66-8.5,0-15.83,3.11-19.23,7.54l0,11.22c3.44,4.41,10.79,7.44,19.28,7.41,8.66,0,16.1-3.22,19.42-7.79Z"/><path class="cls-6" d="M125.43,52.61c-4.34-3.89-5.1-7.36-10-11.06-4-3-9.87-5.23-14.69-4.53-4.83-1.51-12.26-.13-16.62,2.63-5,3.2-8.87,7.93-13,12.27s-8.76,8.52-14.54,10a47.17,47.17,0,0,0,74.34,17.92c5.41-4.63,9.89-10.87,10.55-18C135.51,61.17,129.9,56.61,125.43,52.61Z"/><path class="cls-7" d="M88.12,42.07c4.37,1.31,7.63,6.32,7.34,11.37a18.49,18.49,0,0,1-3.44,9c-.9,1.36-1.88,2.66-2.83,4l19.6-.07c-1-1.32-1.94-2.61-2.85-4a18.43,18.43,0,0,1-3.5-8.93c-.32-5,2.9-10.07,7.26-11.41A11.55,11.55,0,0,1,116,42l-.58-.46c-4-3-9.87-5.23-14.69-4.53-4.83-1.51-12.26-.13-16.62,2.63a35,35,0,0,0-4,3h0A12.6,12.6,0,0,1,88.12,42.07Z"/><path class="cls-3" d="M81.87,74.64a43.07,43.07,0,0,1,6.9-13c1.58-2.13,3.37-4.48,3.08-7.12a6.53,6.53,0,0,0-4.7-5.13c-4.49-1.41-9.35.92-12.9,4s-6.36,7-10.19,9.75a10.11,10.11,0,0,0,4.7-1.33A25.62,25.62,0,0,1,59.63,68,48.56,48.56,0,0,0,81.19,87.17,25.15,25.15,0,0,1,81.87,74.64Z"/><path class="cls-3" d="M140.52,66.41a35.37,35.37,0,0,1-10.89-4.92l4.08-.2c-3.2-.75-5.83-2.95-8.3-5.12s-5-4.43-8.18-5.37-7.09-.08-8.67,2.8c-1.09,2-.84,4.45-.19,6.62,1.49,5,4.79,9.24,7.56,13.66,2.42,3.86,4.52,8.23,4.53,12.71a45.85,45.85,0,0,0,10.46-6.72C135.15,76.25,138.8,71.64,140.52,66.41Z"/><path class="cls-1" d="M112.38,75.6c0,6.25-6.15,11.34-13.78,11.36s-13.84-5-13.86-11.27,6.14-14.15,13.77-14.18S112.35,69.35,112.38,75.6Z"/><path class="cls-2" d="M76.51,59.87,75.36,59a5.52,5.52,0,0,1,11,.9l-1.59.75a4.14,4.14,0,0,0-8.23-.74Z"/><path class="cls-2" d="M119.9,59.73l1.13-.92a5.52,5.52,0,0,0-11,1l1.6.74a4.14,4.14,0,0,1,8.23-.79Z"/><path class="cls-3" d="M103.38,78.94h-.07c0-.1.06-.2.07-.3l-1-.09c-.09,1-1.35,1.89-2.93,2.1l0-11.5h-1l0,11.53c-1.79-.08-3.29-1-3.4-2.1l-1,.1c.17,1.72,2.16,3,4.64,3h0c2.29,0,4.14-1.12,4.56-2.65h.09Z"/><path class="cls-7" d="M104.6,67.53c0,1.37-2.56,4.56-5.74,4.57s-5.77-3.17-5.77-4.53,2.56-2.49,5.74-2.5S104.59,66.16,104.6,67.53Z"/><path class="cls-6" d="M108.4,154.2c.75,8.1,4.54,15.55,7.5,23.12s5.13,16.05,2.55,23.77a10.51,10.51,0,0,1-3.4,5.22,5.38,5.38,0,0,1-5.92.56c-1.62-1-2.36-3-2.67-4.86a36.3,36.3,0,0,0-.9-5.63c-2-5.93-9.63-8.21-12.25-13.88a14.28,14.28,0,0,1-.55-8.87,27.23,27.23,0,0,1,10.93-16.54Z"/><path class="cls-8" d="M111,206.57a6.06,6.06,0,0,0,3.36-.76,3.17,3.17,0,0,0,1.45-1.49,1.66,1.66,0,0,0-.43-1.92,2.27,2.27,0,0,0-1.33-.35,8.26,8.26,0,0,0-3,.52,3.73,3.73,0,0,0-1.7,1.13,1.79,1.79,0,0,0-.23,1.94A2.3,2.3,0,0,0,111,206.57Z"/><path class="cls-6" d="M51.56,85.05a19.38,19.38,0,0,0-3.52-4,5.2,5.2,0,0,0-5-.94,5,5,0,0,0-2.69,4.09,12.46,12.46,0,0,0,.79,5,53.38,53.38,0,0,0,11.73,20c1.69,1.82,3.7,3.61,6.17,3.87,3.11.32,5.93-1.92,7.78-4.45s3.13-5.48,5.31-7.72A50.26,50.26,0,0,1,51.56,85.05Z"/><path class="cls-8" d="M45.61,88.84a6.18,6.18,0,0,0,2.52-2.57,4,4,0,0,0-.08-4.18,2.94,2.94,0,0,0-3.54-.77,3.77,3.77,0,0,0-1.78,2.45,10.37,10.37,0,0,0-.21,3.1,2.65,2.65,0,0,0,.68,2.06A2.26,2.26,0,0,0,45.61,88.84Z"/><path class="cls-6" d="M116.89,119c-3.32,1.52-7.47,2.45-10.42.31a8.2,8.2,0,0,1-3-6.43,24.44,24.44,0,0,1,1.26-7.2c8.66.2,16.13-5.91,22-12.3a14.85,14.85,0,0,1,3.65-3.25,4.73,4.73,0,0,1,4.67-.16c2.41,1.49,2.1,5.07,1.17,7.75A37,37,0,0,1,116.89,119Z"/><path class="cls-8" d="M129.71,93.14A5.49,5.49,0,0,0,132.42,98a2.22,2.22,0,0,0,2.15-.07,3.3,3.3,0,0,0,1.08-2.63,5.34,5.34,0,0,0-.52-3.31,3,3,0,0,0-5.42,1.19Z"/><path class="cls-6" d="M68.4,97.67c3.52-5.06,7-10.45,12.45-13.72a22.27,22.27,0,0,1,10.8-3.11c10.48-.29,20.24,7.79,21,17.4.54,6.61-2.63,13-4.19,19.5-4,16.64,2.54,33.62,2.55,50.59,0,5.1-.7,10.49-4,14.64-3.51,4.42-9.38,6.69-15.09,8.11-14.63,3.65-31.62,2.65-42.59-6.68-8.46-7.21-12-18.43-11.32-29.15s5.31-21,11.14-30.39S62.08,106.79,68.4,97.67Z"/><path class="cls-7" d="M65,182.38c-28.61-17.48-19.6-47.7-5.4-72.6-3.64,4.94-7.25,9.9-10.46,15.08-5.83,9.39-10.42,19.68-11.14,30.39s2.86,21.94,11.32,29.15c11,9.33,28,10.33,42.59,6.68,5.71-1.42,11.58-3.69,15.09-8.11a15.83,15.83,0,0,0,2.38-4.18C97.27,188.39,80.72,191.59,65,182.38Z"/><path class="cls-1" d="M61.2,135.3C59,143.78,58,152.91,61.36,161S73.57,175.52,83,174.43c8.06-.94,14.6-7.2,17.45-14.23s2.64-14.74,1.82-22.14-2.19-14.82-1.53-22.27c.45-5,1.83-10.08,1-15s-4.86-9.94-10.32-9.94c-5,0-8.86,3.89-11.78,7.63A102,102,0,0,0,61.2,135.3Z"/><path class="cls-7" d="M41.61,156.38c0,1.23-.32,2.34-.4,3.17a13.39,13.39,0,0,1-.28,1.37,12.51,12.51,0,0,1-.42-1.34,10.37,10.37,0,0,1-.28-3.34,10.06,10.06,0,0,1,.94-3.21,10.67,10.67,0,0,1,.68-1.22s0,.55,0,1.39S41.8,155.17,41.61,156.38Z"/><path class="cls-7" d="M44.14,145.35a6.5,6.5,0,0,1-1.38,2.56,6.57,6.57,0,0,1,0-2.91,6.5,6.5,0,0,1,1.38-2.56A6.57,6.57,0,0,1,44.14,145.35Z"/><path class="cls-7" d="M47.39,136.36a10.48,10.48,0,0,1-1.94,3.2,10.61,10.61,0,0,1,.64-3.69A10.75,10.75,0,0,1,48,132.66,10.53,10.53,0,0,1,47.39,136.36Z"/><path class="cls-7" d="M51,128.61a5.27,5.27,0,0,1-1.78,1.89,4.85,4.85,0,0,1,2.33-4.42A5.29,5.29,0,0,1,51,128.61Z"/><path class="cls-7" d="M50.09,139.4c-.33,1.11-.85,2-1.13,2.78s-.6,1.17-.6,1.17a11.47,11.47,0,0,1-.08-1.31,9.49,9.49,0,0,1,.51-3.11,9.66,9.66,0,0,1,2.51-3.67,12.43,12.43,0,0,1-.29,1.28C50.76,137.28,50.54,138.34,50.09,139.4Z"/><path class="cls-7" d="M47.06,151.86a19.64,19.64,0,0,1-1.58,4.89,19,19,0,0,1,1.79-10A19.58,19.58,0,0,1,47.06,151.86Z"/><path class="cls-7" d="M48.88,162.39c.29,1.07.32,2.11.49,2.86s.13,1.27.13,1.27a9.91,9.91,0,0,1-.78-1,8.42,8.42,0,0,1-1.2-2.86,8.12,8.12,0,0,1,.09-3.09,11.23,11.23,0,0,1,.35-1.24,12.82,12.82,0,0,1,.34,1.24C48.41,160.3,48.76,161.28,48.88,162.39Z"/><path class="cls-7" d="M108.09,158a10.57,10.57,0,0,1-.78,4.22A11.22,11.22,0,0,1,107,161a21.83,21.83,0,0,1-.32-2.91,21.13,21.13,0,0,1,0-2.92,12.49,12.49,0,0,1,.14-1.26,9.54,9.54,0,0,1,.54,1.16A9.32,9.32,0,0,1,108.09,158Z"/><path class="cls-7" d="M105.44,167a7.86,7.86,0,0,1-1.27,2.63,9,9,0,0,1-.78.94,10.84,10.84,0,0,1,.14-1.21c.17-.7.25-1.69.56-2.7a26.29,26.29,0,0,1,.77-2.64,11.78,11.78,0,0,1,.44-1.14,11.08,11.08,0,0,1,.25,1.2A8,8,0,0,1,105.44,167Z"/><path class="cls-7" d="M105.71,174.2a7.3,7.3,0,0,1-1.69,2.05,7.9,7.9,0,0,1-.9.66,9.33,9.33,0,0,1,.33-1.06,19,19,0,0,1,1-2.3,17.36,17.36,0,0,1,1.33-2.14,8.72,8.72,0,0,1,.69-.87,7.27,7.27,0,0,1,0,1.12A7.4,7.4,0,0,1,105.71,174.2Z"/><path class="cls-7" d="M99.89,185.24a9.46,9.46,0,0,1-2,1.5,7.14,7.14,0,0,1-.93.45,12.29,12.29,0,0,1,3.54-4.49,8.06,8.06,0,0,1,.88-.58,6.09,6.09,0,0,1-.32,1A8.92,8.92,0,0,1,99.89,185.24Z"/><path class="cls-7" d="M99.52,180.77a5.08,5.08,0,0,1-1.87,1.74,4.74,4.74,0,0,1,2.55-4.2A5,5,0,0,1,99.52,180.77Z"/><path class="cls-7" d="M94.13,188.32a2.46,2.46,0,0,1-1.23.35,2.35,2.35,0,0,1-.58,0,3.7,3.7,0,0,1,.24-.55,2.12,2.12,0,0,1,.73-.86,2.21,2.21,0,0,1,1-.47,4.72,4.72,0,0,1,.6-.07,2.3,2.3,0,0,1-.12.57A2.49,2.49,0,0,1,94.13,188.32Z"/><path class="cls-7" d="M74.31,189.32c1.17,0,2.24.23,3,.26a11.63,11.63,0,0,1,1.32.2,12.74,12.74,0,0,1-1.25.49,9,9,0,0,1-3.19.43,9.22,9.22,0,0,1-3.12-.84,11.44,11.44,0,0,1-1.17-.65,12.37,12.37,0,0,1,1.33,0C72.06,189.25,73.15,189.17,74.31,189.32Z"/><path class="cls-7" d="M71,185.38a8.26,8.26,0,0,1,1.36.82,5.43,5.43,0,0,1,.6.48,3.33,3.33,0,0,1-.75.19,3.15,3.15,0,0,1-1.78-.23,3.34,3.34,0,0,1-1.56-1.54l0,0a.2.2,0,0,1-.1-.23c0-.08.12-.15.12-.12s.18.07.17.1S69,185,69,185s0-.06,0-.05.07,0,0,0l.08-.08A7,7,0,0,1,71,185.38Z"/><path class="cls-6" d="M40.24,158.85A9.5,9.5,0,0,0,38,164.69c-.53,6.9,3.44,13.29,7.6,18.82s8.81,11.12,10,17.93c.39,2.15.42,4.37,1.12,6.44s2.28,4,4.45,4.33A5.47,5.47,0,0,0,66,209.88a13.71,13.71,0,0,0,2.14-5.2,49.85,49.85,0,0,0,0-24.54,36.9,36.9,0,0,0-13.48-20.25,16.63,16.63,0,0,0-7.17-3.25A8.45,8.45,0,0,0,40.24,158.85Z"/><path class="cls-8" d="M60.27,211a4.08,4.08,0,0,0,4.54-1,1.83,1.83,0,0,0,.57-1.79,1.88,1.88,0,0,0-1.46-1,5.3,5.3,0,0,0-3.46.44c-.78.38-1.53,1.13-1.39,2A1.92,1.92,0,0,0,60.27,211Z"/><path class="cls-4" d="M74.44,105.5c11.52,3.52,24.19,5,35.49.82,2.26-.83,4.69-2.19,5.19-4.54.23-1.08-.8-2.22-1-3.3-.76-3.55,1.66-9.46-1.49-10.61a72.7,72.7,0,0,1-33-4.59,11.57,11.57,0,0,0-3.62-1,3.52,3.52,0,0,0-3.24,1.54A11.28,11.28,0,0,0,72,86.67c-.93,3.48-5.49,4.86-6.78,8.23-.95,2.46.21,5.34,2.15,7.13A17.79,17.79,0,0,0,74.44,105.5Z"/><path class="cls-9" d="M95,93c2.35.2,4.81.38,7.28.38a41.12,41.12,0,0,0,4.44-.22,28.17,28.17,0,0,0,7.53-1.79,7.21,7.21,0,0,0-.06-1.06,27.27,27.27,0,0,1-7.57,1.86A60.65,60.65,0,0,1,95.1,92a62.7,62.7,0,0,1-12.57-2.12,26.72,26.72,0,0,1-10.1-5.36,8.36,8.36,0,0,0-.22,1.13,28.1,28.1,0,0,0,10,5.19A64.36,64.36,0,0,0,95,93Z"/><path class="cls-9" d="M93.17,105.75a63.39,63.39,0,0,0,12-1.2,45.13,45.13,0,0,0,9.93-3,2.46,2.46,0,0,0-.2-1,44.17,44.17,0,0,1-9.92,3c-10.27,2-19.93,1.46-27.95-1.55a39.91,39.91,0,0,1-11.85-7,4.75,4.75,0,0,0-.26,1.1A40.82,40.82,0,0,0,76.72,103,46.75,46.75,0,0,0,93.17,105.75Z"/><path class="cls-3" d="M104.15,88.15A72.7,72.7,0,0,1,87.36,85.8a43.55,43.55,0,0,1-8.09,21c10.17,2.48,20.92,3.08,30.66-.51l.55-.22A26.44,26.44,0,0,1,104.15,88.15Z"/><path class="cls-5" d="M94,144.46l-1.06-8,.31,0c-.55-7.63-1.11-15.28-.62-22.92s2-15.29,5.52-22.1L89.58,90a89,89,0,0,0-8.65,45.54l.54,0a55.21,55.21,0,0,0,.76,8.61,1,1,0,0,0,.08,2.06,1,1,0,0,0,1-1s0,0,0-.08h.06a53.57,53.57,0,0,1-.92-9.46l1.46.12c.16,2.77.45,5.56.88,8.31A1.49,1.49,0,1,0,87,145.37a1.5,1.5,0,0,0-1.19-1.47c-.42-2.67-.71-5.38-.87-8.08l1.86.16,1,8.21a1.16,1.16,0,1,0,1-.11l-1-8,1.71.14a32.81,32.81,0,0,0,.62,8.33,1.07,1.07,0,0,0-.42.84,1.11,1.11,0,1,0,1.4-1.05,31.41,31.41,0,0,1-.6-8l1.36.11L93,144.6a1.28,1.28,0,0,0-.65,1.09,1.31,1.31,0,1,0,2.61,0A1.28,1.28,0,0,0,94,144.46Z"/><path class="cls-9" d="M80.68,128.71c0,.33,0,.66,0,1,4-.18,8-.21,12.06-.09l-.06-1C88.69,128.5,84.67,128.53,80.68,128.71Z"/><path class="cls-9" d="M80.77,124.8c0,.33,0,.67,0,1a91.16,91.16,0,0,1,11.8-.33c0-.33,0-.67,0-1A93.64,93.64,0,0,0,80.77,124.8Z"/><path class="cls-9" d="M81.86,114.32c0,.33-.11.67-.16,1a30.76,30.76,0,0,1,10.76.93c0-.34,0-.68.05-1A31.84,31.84,0,0,0,81.86,114.32Z"/><path class="cls-9" d="M82.75,109.66l-.21,1a32,32,0,0,1,10.24.48c0-.33.07-.66.11-1A33.2,33.2,0,0,0,82.75,109.66Z"/><path class="cls-9" d="M92.73,107.87l.2-1a38.86,38.86,0,0,0-9.32-.8c-.09.33-.17.67-.25,1A38.3,38.3,0,0,1,92.73,107.87Z"/><path class="cls-4" d="M146.57,129.56a2,2,0,0,0-1.92,1.62l-7.08-.28.45-.54a50.75,50.75,0,0,1-14.66-6.13c-5.86-3.81-10-8.92-14.23-14.47s-7.39-12.15-7.82-19.13l-7.24.29c-.49,11.45,1.17,23.19,6.42,33.37,5.16,10,14.08,18.4,24.92,21.47l.2-.24a35.64,35.64,0,0,0,7.61,1.37,1.42,1.42,0,0,0,1.25.76,1.44,1.44,0,1,0-1.38-1.78,34.76,34.76,0,0,1-6.79-1.2l1.5-1.82a48,48,0,0,0,8.21,1.06,1.22,1.22,0,0,0,1.13.74,1.24,1.24,0,1,0-1.12-1.74,47.32,47.32,0,0,1-7.5-.94l1.67-2a39.13,39.13,0,0,0,9.14,1.1l.54,0a1.42,1.42,0,1,0,.07-1,38.24,38.24,0,0,1-9.05-1l1.93-2.37a63.84,63.84,0,0,0,7.78,1,1.43,1.43,0,1,0,1.42-1.6,1.4,1.4,0,0,0-1.17.61,61.59,61.59,0,0,1-7.3-.86l1.31-1.61a38.89,38.89,0,0,0,7.68.81h0a1.56,1.56,0,1,0,.38-1,38.48,38.48,0,0,1-7.34-.67l1.2-1.47,8,.31a1.95,1.95,0,1,0,1.83-2.62Z"/><path class="cls-9" d="M130.23,127.78C126.5,133,122.53,138,118.4,142.9c.3.17.6.33.91.48,4.14-4.91,8.14-10,11.88-15.22Z"/><path class="cls-9" d="M122.25,123.45l-11.94,13.71.74.67,12-13.8Z"/><path class="cls-9" d="M119.62,121.43l-11.46,13.64c.23.24.47.48.71.71l11.52-13.72Z"/><path class="cls-9" d="M116.78,118.81a151,151,0,0,0-11.24,13.25c.21.27.43.54.65.8a149.44,149.44,0,0,1,11.3-13.34C117.24,119.28,117,119,116.78,118.81Z"/><path class="cls-9" d="M99.05,120l11-9c-.21-.26-.41-.53-.61-.79l-11,9.05Z"/><path class="cls-9" d="M107.47,107.45c-3.63,2.51-7.17,5.2-10.55,8,.11.34.21.69.32,1,3.46-2.9,7.08-5.65,10.8-8.23Z"/><path class="cls-9" d="M106,105.13a75.64,75.64,0,0,0-10.1,6.71l.27,1A77.9,77.9,0,0,1,106.53,106C106.36,105.7,106.18,105.41,106,105.13Z"/></g></g></svg>