<svg xmlns="http://www.w3.org/2000/svg" viewBox="0 0 288.02 403.83"><defs><style>.cls-1{fill:#479ef8;}.cls-2{fill:#fff;}.cls-3{fill:#0949ba;}.cls-4{fill:#ffbda9;}.cls-5{fill:#ea9678;}.cls-6{fill:#0237a0;}.cls-7{fill:#c1e3fe;}.cls-8{fill:#f9a435;}.cls-9{fill:#e5891c;}.cls-10{fill:#1f395e;}.cls-11{fill:#e88572;}</style></defs><g id="Слой_2" data-name="Слой 2"><g id="OBJECTS"><path class="cls-1" d="M155,120.52c13.33,3.58,27.23,19.78,44.52,36.57l42.57,0-5.59,56.79L199.1,193.72a65.52,65.52,0,0,1-24.16-17.44L159.06,154.2Z"/><path class="cls-2" d="M230.07,157.23a12.1,12.1,0,0,1,11.39-1.1,8.48,8.48,0,0,1,5.48,5.89c3.13,6.3,2.45,38-5.47,49.25-3.62,5.13-10.72,3.9-15.75,1.76-2.87-1.21-5.88-3.09-7.27-6.08-1.55-3.34-1.87-7.17-2-10.79v-.22A62.57,62.57,0,0,1,221,170.3a43.42,43.42,0,0,1,4.68-8.74A16.62,16.62,0,0,1,230.07,157.23Z"/><path class="cls-3" d="M236.11,211c-11.27-1.33-3.27-51.27,6.45-49.72C251.34,163.69,243.65,211.5,236.11,211Z"/><path class="cls-3" d="M197.13,166.61a.38.38,0,0,1-.37-.35,14.21,14.21,0,0,1,1.6-8,13.09,13.09,0,0,0-3.5,3.55.38.38,0,1,1-.63-.41,14.56,14.56,0,0,1,5.09-4.63.36.36,0,0,1,.46.06.39.39,0,0,1,0,.47,13.42,13.42,0,0,0-2.31,8.9.36.36,0,0,1-.34.4Z"/><polygon class="cls-4" points="138.32 95.08 138.32 127.59 114.02 127.59 114.68 86.97 138.32 95.08"/><path class="cls-5" d="M138.32,109.16V107l-24,.3-.1,6.87C123,116.3,132.23,115,138.32,109.16Z"/><path class="cls-4" d="M144.25,126.92c-2.83,3.29-7.05,4.53-11.19,5.15a38.6,38.6,0,0,1-6.78.55,28.47,28.47,0,0,1-6.86-1,28,28,0,0,1-6.27-2.47,18.38,18.38,0,0,1-4.52-3.68,30.25,30.25,0,0,1-3.46-5.19l9.54-1.6,20.6.07,11.1.78C145.48,121.78,145.87,125.05,144.25,126.92Z"/><path class="cls-1" d="M95.64,203.47l-1.15,8.78C54.11,265.82,37.22,374.31,37.22,374.31l171.22.78c0-98-38.53-163-38.53-163l-2.41-11.44s13.26-44.48,4.54-58.19c0,0-10-18-14.23-20.76s-19.51-2.76-19.51-2.76,1.69,7.27-6.39,7.3c-7.37,0-17.74-7.59-17.74-7.59s-23.72,1.78-27.26,12.13C84.57,137.6,95.64,203.47,95.64,203.47Z"/><path class="cls-3" d="M173.09,175.3l-.11,0a.38.38,0,0,1-.25-.47c.06-.19,5.75-18.83.63-28.41-.05-.11-5.27-10.3-9-16A.38.38,0,0,1,165,130c3.75,5.72,9,15.94,9,16,5.26,9.85-.34,28.21-.58,29A.38.38,0,0,1,173.09,175.3Z"/><path class="cls-1" d="M92.41,124.57c-11.6,7.84-19.56,28-30.59,49.76L20.08,186.56,44.2,239.15,74.3,209.3a66.55,66.55,0,0,0,17.4-24.69l7.92-26.41Z"/><path class="cls-2" d="M31.62,182.71a12.25,12.25,0,0,0-11.28,2.7A8.6,8.6,0,0,0,17,192.87c-.91,7.07,10.2,37.2,21.52,45.39,5.16,3.73,11.55.2,15.67-3.51,2.35-2.12,4.62-4.91,5-8.23.38-3.71-.58-7.49-1.63-11a1.42,1.42,0,0,1-.07-.22,63.57,63.57,0,0,0-12.84-23.06,43.33,43.33,0,0,0-7.37-6.83A16.55,16.55,0,0,0,31.62,182.71Z"/><path class="cls-2" d="M125.74,210.35C132,285.79,120.93,374,120.93,374l59.19,1c0-65.33-8.29-116.79-22.17-166.1Z"/><path class="cls-3" d="M43.58,236.19C53.94,231.2,29.77,186,21,190.67,13.37,195.92,36.53,239.21,43.58,236.19Z"/><path class="cls-3" d="M67.11,182.68a.38.38,0,0,1-.37-.28,13.65,13.65,0,0,0-5.15-7.77.39.39,0,0,1-.12-.46.4.4,0,0,1,.42-.21,14.86,14.86,0,0,1,6.4,2.76.39.39,0,0,1,.07.53.38.38,0,0,1-.53.06,13.36,13.36,0,0,0-4.55-2.24,14.35,14.35,0,0,1,4.19,7.14.38.38,0,0,1-.27.46Z"/><path class="cls-2" d="M37.18,371.93c4.24-2.64,170.84-7.88,173.41-5s3.67,32.51-.44,34.5-174.39,4.14-177.44,0S32.93,374.56,37.18,371.93Z"/><polygon class="cls-6" points="138.06 206.76 130.46 287.81 147.86 290.57 146.13 207.11 138.06 206.76"/><polygon class="cls-3" points="143.77 206.48 139.36 295.05 158.42 297.23 152.57 206.48 143.77 206.48"/><path class="cls-2" d="M114.24,110.53S84.48,115.11,80.62,134a4.26,4.26,0,0,0,.47,3.15c1-2,3.46-4,6.52-.89C98,148.61,120,178.3,125,202c8.9,0,34.91-1.28,34.91-1.28s24.2-57.43,9.13-75.41c-11.17-10.55-30.73-14.36-30.73-14.36l0,8c3.78,9.86,3.64,19.78,3.06,30.69-8.27-17-16.71-24.51-27.19-31Z"/><path class="cls-2" d="M122.5,199.56a.34.34,0,0,1-.21-.08c-5-3.59-6.89-8.59-5.66-14.86-3.56-1.73-5.42-5.27-5.53-10.52-3.94-1.72-6-5.06-6.3-9.93-4.45-1.74-6.63-5.14-6.5-10.1-4-1.5-6.14-4.56-6.39-9.11-3.19-1.41-5.18-4.08-5.93-7.94a.37.37,0,0,1,.3-.44.36.36,0,0,1,.44.29c.72,3.74,2.58,6.19,5.7,7.49a.4.4,0,0,1,.23.33c.18,4.5,2.19,7.37,6.16,8.76a.4.4,0,0,1,.25.37c-.21,4.91,1.83,8.1,6.24,9.74a.37.37,0,0,1,.24.34c.18,4.84,2.17,8,6.08,9.6a.38.38,0,0,1,.23.35c.06,5.2,1.86,8.63,5.36,10.21a.38.38,0,0,1,.21.42c-1.3,6.18.44,10.88,5.3,14.4a.37.37,0,0,1,.09.52A.38.38,0,0,1,122.5,199.56Z"/><path class="cls-7" d="M141.36,149.61c7.57,13.52,7.06,31.39,6.08,51.47,3.14-16.86,3.72-38.94-5.81-58.07Z"/><path class="cls-3" d="M95.15,203.08,144,201.3c1.07-1.94,6.62-2.61,8.14-.3l16.16-.59,2,12.14H93.81Z"/><path class="cls-1" d="M149.35,403.48c5.48-25,5.17-74.11,5.17-74.11s5.18,49.34,4.77,74Z"/><path class="cls-8" d="M103,94.23c-3.34,1-4.29,4.43-3.22,10-3.51,2.88-3.57,8.69-.14,14.37-2.72,3-.3,9,5.55,11.58-2.89,3.3.28,10.21,7.39,12.8-2.15,2.47-.78,7.76,4.6,11.09-2.5,2.79-.75,10.08,4.36,13.35-3.29,2.2-2.08,7.51,1.31,14.3h4.38c4.41-3.93,4.76-8.67,3.57-10.26,4.27-5.67,2.55-12.44-.73-13.62,3.27-8.26-1.34-13.82-3.88-13.84,1.41-6.47-1.62-11.1-5.6-12.12.88-7-2.33-12.1-5.58-12.83,1.12-6.26.21-9.46-.65-10.74a27.8,27.8,0,0,1-7.61-10.23Z"/><path class="cls-8" d="M121.79,180.93S112.69,192.08,127,209c5.47-10.29,9.1-21.11.75-28.19Z"/><path class="cls-9" d="M121.52,167.45a36,36,0,0,0,4.77,2.63,25.18,25.18,0,0,1-6.09-1.2A4.13,4.13,0,0,1,121.52,167.45Z"/><path class="cls-9" d="M130.05,157.87a41.5,41.5,0,0,0-7-1.93,28,28,0,0,1,7.54.47Z"/><path class="cls-9" d="M112.56,143a22,22,0,0,0,7.49.54,44.6,44.6,0,0,1-8.42,1.65A3.43,3.43,0,0,1,112.56,143Z"/><path class="cls-9" d="M120.57,131.91a45.16,45.16,0,0,0-8.94-.68,22.42,22.42,0,0,1,9.07-1Z"/><path class="cls-9" d="M99.62,118.63c1.44,1.63,4.33,2.34,8.25,2.38a19.83,19.83,0,0,1-9.19-.63A4,4,0,0,1,99.62,118.63Z"/><path class="cls-9" d="M111.09,105.15a25.87,25.87,0,0,0-5.92-.46,23.45,23.45,0,0,1,7.62,2.26Z"/><path class="cls-9" d="M122.83,180.91s-4.62,8.56,1.62,18.27c-2.83-6.3-3.65-12.27-.53-17.57Z"/><path class="cls-3" d="M121.66,178.88c1.21-.4,6.59-.7,8.06.16s.49,3.14-.8,3.32-6.87.36-7.86-.23S120.45,179.28,121.66,178.88Z"/><path class="cls-9" d="M126.92,206.48a22.85,22.85,0,0,0,3.54-12.57A40.75,40.75,0,0,1,126.92,206.48Z"/><path class="cls-1" d="M1.68,207c2.26-3.34,6.41-5.72,10-7.42,0,0-7.08-1.36-7.38-4.36.16-6.19,11.8-5.12,18.35-4a4.53,4.53,0,0,0,2.23-.1c6.92,3.66,14.46,18.53,14.46,18.53s-9,7.28-11.83,9.15c-4.73,3.13-10.57,6.05-16.41,5.32C3.36,223.1-3.2,214.17,1.68,207Z"/><path class="cls-3" d="M17.82,203.44a7.53,7.53,0,0,1-2-.26,7.8,7.8,0,0,1-4.48-3.44.38.38,0,0,1,.66-.36,7.17,7.17,0,0,0,4,3.08c2.06.56,4.39.09,6.94-1.4a.38.38,0,0,1,.51.13.38.38,0,0,1-.13.52A11.15,11.15,0,0,1,17.82,203.44Z"/><path class="cls-1" d="M257.62,167.83c-1.24-.27-2.48-.5-3.66-.66,0,0,3.63-1.74,3-4.69-1.43-4.84-9.94-2.66-16,0a4.78,4.78,0,0,1-2.17.58c-5.19,5.58-7.41,22.44-7.41,22.44s10,3.8,13.25,4.74a39.61,39.61,0,0,0,8.51,1.55C260.81,192.37,265.12,170.67,257.62,167.83Z"/><polygon class="cls-6" points="143.47 212.55 144.02 203.13 141.57 212.55 143.47 212.55"/><path class="cls-2" d="M40.39,370a.38.38,0,0,1-.25-.09.37.37,0,0,1,0-.53c3-3.46,6.89-4,11.41-1.56,4.34-3.29,8.62-3.51,12.74-.65,4.09-3,8.27-3.15,12.79-.53,4.23-3,8.34-3.23,12.55-.62a12.92,12.92,0,0,1,14-.31,15.66,15.66,0,0,1,14.67-.85c-2.28-5.36-1.53-10.07,2.23-14-2.43-5.65-2-10.64,1.35-14.86a14.82,14.82,0,0,1,.57-15.23,16.76,16.76,0,0,1,1.17-17.34c-3.23-6-3-11.37.71-16.43-3.46-5.68-3.46-11.06,0-16-3.19-5.35-3.19-10.64,0-16.14-3.29-5.46-3.29-11.17,0-17-2.9-5-3.17-10-.81-14.88a16.27,16.27,0,0,1-1.86-8.47.36.36,0,0,1,.39-.36.37.37,0,0,1,.36.38,15.42,15.42,0,0,0,1.86,8.25.39.39,0,0,1,0,.35c-2.4,4.87-2.13,9.62.8,14.53a.37.37,0,0,1,0,.38c-3.34,5.77-3.34,11.2,0,16.6a.37.37,0,0,1,0,.38c-3.2,5.39-3.2,10.55,0,15.78a.36.36,0,0,1,0,.41c-3.5,4.84-3.49,9.92,0,15.56a.39.39,0,0,1,0,.43c-3.7,4.91-3.92,10.15-.7,16a.39.39,0,0,1,0,.39,16.06,16.06,0,0,0-1.15,17,.38.38,0,0,1,0,.36,14.15,14.15,0,0,0-.54,14.88.38.38,0,0,1,0,.41c-3.37,4.14-3.8,8.88-1.3,14.5a.4.4,0,0,1-.07.42c-4,4-4.55,8.68-1.85,14.28a.36.36,0,0,1-.08.43.38.38,0,0,1-.43.07c-5.07-2.54-10-2.37-15.08.5a.4.4,0,0,1-.37,0,12.28,12.28,0,0,0-13.59.31.38.38,0,0,1-.41,0c-4-2.6-8-2.4-12.1.61a.4.4,0,0,1-.42,0c-4.38-2.62-8.43-2.45-12.38.52a.36.36,0,0,1-.44,0c-4-2.88-8-2.68-12.26.63a.36.36,0,0,1-.42,0c-4.32-2.4-7.82-2-10.7,1.29A.38.38,0,0,1,40.39,370Z"/><path class="cls-2" d="M182.49,364.27a.39.39,0,0,1-.25-.1.38.38,0,0,1-.08-.46c2.39-4.45,2.18-8.57-.65-12.61a.37.37,0,0,1,0-.38c2.69-5.38,2.37-10.12-1-14.49a.38.38,0,0,1,0-.41c2.61-4.9,2.39-9.77-.66-14.88a.39.39,0,0,1,0-.35c2.87-6.09,2.24-11.63-1.94-16.95a.39.39,0,0,1-.05-.39c2.72-6.2,2.16-11.44-1.71-16a.37.37,0,0,1-.07-.36,16.29,16.29,0,0,0-2.27-15.64.4.4,0,0,1-.05-.32c1.86-6.34.86-11.51-3.05-15.8a.41.41,0,0,1-.09-.35c1.46-5.86.25-11.47-3.61-16.66a.41.41,0,0,1-.06-.34c1.79-5.63.77-10.38-3.11-14.52a.34.34,0,0,1-.09-.36,11,11,0,0,0-.59-8.18.38.38,0,0,1,.18-.5.39.39,0,0,1,.5.18,11.72,11.72,0,0,1,.69,8.51c3.87,4.22,4.94,9.23,3.2,14.92a19.82,19.82,0,0,1,3.67,16.94c3.9,4.38,4.95,9.83,3.13,16.2a17.14,17.14,0,0,1,2.33,16c3.85,4.68,4.45,10.22,1.78,16.46,4.14,5.39,4.81,11.23,2,17.37,3,5.16,3.24,10.28.68,15.24,3.33,4.46,3.67,9.47,1,14.89a11.78,11.78,0,0,1,1.13,12.08c4-2.17,8.29-2,12.66.46a17.34,17.34,0,0,1,10.53-2.26.38.38,0,0,1,.33.41.37.37,0,0,1-.41.34,16.59,16.59,0,0,0-10.26,2.27.37.37,0,0,1-.38,0c-4.63-2.7-8.94-2.68-13.15.06A.42.42,0,0,1,182.49,364.27Z"/><path class="cls-2" d="M52.43,365.24a.87.87,0,1,1-.87-.87A.87.87,0,0,1,52.43,365.24Z"/><path class="cls-2" d="M65,364.37a.87.87,0,1,1-.87-.87A.87.87,0,0,1,65,364.37Z"/><path class="cls-2" d="M77.93,364.37a.87.87,0,1,1-.87-.87A.87.87,0,0,1,77.93,364.37Z"/><path class="cls-2" d="M90.42,363.73a.87.87,0,1,1-.87-.86A.87.87,0,0,1,90.42,363.73Z"/><path class="cls-2" d="M104.56,363.26a.87.87,0,1,1-.87-.87A.86.86,0,0,1,104.56,363.26Z"/><path class="cls-2" d="M116.27,361.94a.87.87,0,1,1-.87-.87A.87.87,0,0,1,116.27,361.94Z"/><path class="cls-2" d="M118.07,349.57a.88.88,0,0,1,.82.91.87.87,0,0,1-.91.83.86.86,0,0,1-.82-.91A.87.87,0,0,1,118.07,349.57Z"/><path class="cls-2" d="M119.42,335a.86.86,0,0,1,.82.91.87.87,0,0,1-.91.83.88.88,0,0,1-.82-.91A.87.87,0,0,1,119.42,335Z"/><path class="cls-2" d="M120.17,319.92a.87.87,0,1,1-.91.82A.86.86,0,0,1,120.17,319.92Z"/><path class="cls-2" d="M121.4,302.62a.87.87,0,1,1-.09,1.73.85.85,0,0,1-.82-.9A.87.87,0,0,1,121.4,302.62Z"/><path class="cls-2" d="M122.22,286.06a.87.87,0,0,1,.83.91.86.86,0,0,1-.91.82.87.87,0,1,1,.08-1.73Z"/><path class="cls-2" d="M121.84,270.13a.87.87,0,1,1-.91.82A.86.86,0,0,1,121.84,270.13Z"/><path class="cls-2" d="M122,254.24a.88.88,0,0,1,.82.91.87.87,0,0,1-1.73-.09A.87.87,0,0,1,122,254.24Z"/><path class="cls-2" d="M122.65,238.12a.87.87,0,1,1-1-.7A.87.87,0,0,1,122.65,238.12Z"/><path class="cls-2" d="M121.78,223.4a.86.86,0,0,1-.69,1,.85.85,0,0,1-1-.7.86.86,0,0,1,.69-1A.87.87,0,0,1,121.78,223.4Z"/><path class="cls-2" d="M114.88,185.92a.87.87,0,1,1-1-.69A.87.87,0,0,1,114.88,185.92Z"/><path class="cls-2" d="M109.55,175.63a.87.87,0,1,1-1-.69A.87.87,0,0,1,109.55,175.63Z"/><path class="cls-2" d="M103.47,166.07a.87.87,0,0,1-.7,1,.86.86,0,1,1,.7-1Z"/><path class="cls-2" d="M97.07,155.72a.86.86,0,1,1-1-.69A.86.86,0,0,1,97.07,155.72Z"/><path class="cls-2" d="M90.72,146.55a.87.87,0,0,1-.7,1,.86.86,0,1,1,.7-1Z"/><path class="cls-2" d="M167.89,222.08a.87.87,0,1,1-1-.69A.87.87,0,0,1,167.89,222.08Z"/><path class="cls-2" d="M171.16,237.2a.88.88,0,0,1-.7,1,.87.87,0,0,1-.31-1.71A.88.88,0,0,1,171.16,237.2Z"/><path class="cls-2" d="M174.84,254a.87.87,0,0,1-1.71.31.86.86,0,0,1,.69-1A.88.88,0,0,1,174.84,254Z"/><path class="cls-2" d="M177.84,270.32a.87.87,0,0,1-1.71.32.87.87,0,1,1,1.71-.32Z"/><path class="cls-2" d="M180.11,286.27a.87.87,0,1,1-1-.7A.88.88,0,0,1,180.11,286.27Z"/><path class="cls-2" d="M182.32,302.86a.86.86,0,1,1-1-.69A.86.86,0,0,1,182.32,302.86Z"/><path class="cls-2" d="M184.3,320.56a.87.87,0,1,1-1-.69A.86.86,0,0,1,184.3,320.56Z"/><path class="cls-2" d="M185,335.5a.86.86,0,1,1-1-.7A.86.86,0,0,1,185,335.5Z"/><path class="cls-2" d="M185.83,350.55a.86.86,0,1,1-1-.7A.86.86,0,0,1,185.83,350.55Z"/><path class="cls-2" d="M196.86,360.55a.86.86,0,1,1-1-.69A.86.86,0,0,1,196.86,360.55Z"/><path class="cls-2" d="M187.5,359.6a.87.87,0,0,1-1.71.32.87.87,0,0,1,.7-1A.86.86,0,0,1,187.5,359.6Z"/><path class="cls-2" d="M65.33,358.31a6.44,6.44,0,0,1-1.43,4,5.48,5.48,0,0,1-.39-7.78A6.49,6.49,0,0,1,65.33,358.31Z"/><path class="cls-2" d="M60.31,359.45a5,5,0,0,1,1.38,2.94,4.21,4.21,0,0,1-4.45-4A5,5,0,0,1,60.31,359.45Z"/><path class="cls-2" d="M67.21,359.1a5,5,0,0,0-1.09,3.07,4.21,4.21,0,0,0,4-4.45A5,5,0,0,0,67.21,359.1Z"/><path class="cls-2" d="M90.65,357a6.49,6.49,0,0,1-1.44,4,5.46,5.46,0,0,1-.38-7.78A6.52,6.52,0,0,1,90.65,357Z"/><path class="cls-2" d="M85.62,358.13A5,5,0,0,1,87,361.07a4.2,4.2,0,0,1-4.44-4A5,5,0,0,1,85.62,358.13Z"/><path class="cls-2" d="M92.52,357.79a5,5,0,0,0-1.08,3.06,4.2,4.2,0,0,0,4-4.44A5,5,0,0,0,92.52,357.79Z"/><path class="cls-2" d="M111.4,354.89a6.44,6.44,0,0,1,2.07,3.68,5.47,5.47,0,0,1-6.14-4.79A6.48,6.48,0,0,1,111.4,354.89Z"/><path class="cls-2" d="M109,359.44a5,5,0,0,1,3.13.87,4.2,4.2,0,0,1-6,.74A5,5,0,0,1,109,359.44Z"/><path class="cls-2" d="M113.22,354a5,5,0,0,0,1.62,2.82,4.22,4.22,0,0,0-.74-5.95A5,5,0,0,0,113.22,354Z"/><path class="cls-2" d="M113.52,334a6.46,6.46,0,0,1,3.73,2,5.48,5.48,0,0,1-7.76-.68A6.47,6.47,0,0,1,113.52,334Z"/><path class="cls-2" d="M114,339.09a5,5,0,0,1,3.11-1,5,5,0,0,1-1.49,2.89,5,5,0,0,1-3.11,1A5,5,0,0,1,114,339.09Z"/><path class="cls-2" d="M114.56,332.21a5,5,0,0,0,2.89,1.49,4.23,4.23,0,0,0-3.85-4.6A5,5,0,0,0,114.56,332.21Z"/><path class="cls-2" d="M115.57,301.61a6.45,6.45,0,0,1,3.73,2,5.47,5.47,0,0,1-7.76-.69A6.47,6.47,0,0,1,115.57,301.61Z"/><path class="cls-2" d="M116,306.74a5,5,0,0,1,3.11-1,5.05,5.05,0,0,1-1.49,2.89,5,5,0,0,1-3.11,1A5,5,0,0,1,116,306.74Z"/><path class="cls-2" d="M116.61,299.86a5,5,0,0,0,2.89,1.5,4.22,4.22,0,0,0-3.85-4.6A5,5,0,0,0,116.61,299.86Z"/><path class="cls-2" d="M115.47,269.41a6.45,6.45,0,0,1,3.73,2,6.53,6.53,0,0,1-4,1.28,6.45,6.45,0,0,1-3.73-2A6.46,6.46,0,0,1,115.47,269.41Z"/><path class="cls-2" d="M115.9,274.54a5,5,0,0,1,3.11-1,4.2,4.2,0,0,1-4.6,3.85A5.05,5.05,0,0,1,115.9,274.54Z"/><path class="cls-2" d="M116.51,267.66a5,5,0,0,0,2.89,1.5,4.22,4.22,0,0,0-3.85-4.6A5,5,0,0,0,116.51,267.66Z"/><path class="cls-2" d="M115.59,237a6.51,6.51,0,0,1,3.74,2,6.52,6.52,0,0,1-4,1.29,6.45,6.45,0,0,1-3.73-2A6.46,6.46,0,0,1,115.59,237Z"/><path class="cls-2" d="M116,242.1a5,5,0,0,1,3.1-1,4.2,4.2,0,0,1-4.6,3.85A5,5,0,0,1,116,242.1Z"/><path class="cls-2" d="M116.63,235.22a5,5,0,0,0,2.89,1.49,4.2,4.2,0,0,0-3.85-4.59A5,5,0,0,0,116.63,235.22Z"/><path class="cls-2" d="M107.91,187a6.5,6.5,0,0,1,4.23,0,5.48,5.48,0,0,1-7.22,2.94A6.46,6.46,0,0,1,107.91,187Z"/><path class="cls-2" d="M110.65,191.37a5,5,0,0,1,2.32-2.28,4.22,4.22,0,0,1-2.33,5.53A5,5,0,0,1,110.65,191.37Z"/><path class="cls-2" d="M108.05,185a5,5,0,0,0,3.25,0,4.22,4.22,0,0,0-5.53-2.33A5,5,0,0,0,108.05,185Z"/><path class="cls-2" d="M96.8,167.27a6.47,6.47,0,0,1,4.22,0,5.46,5.46,0,0,1-7.21,2.94A6.46,6.46,0,0,1,96.8,167.27Z"/><path class="cls-2" d="M99.53,171.64a5,5,0,0,1,2.32-2.28,4.22,4.22,0,0,1-2.33,5.53A5,5,0,0,1,99.53,171.64Z"/><path class="cls-2" d="M96.93,165.24a5,5,0,0,0,3.25,0,5,5,0,0,0-2.28-2.32,5,5,0,0,0-3.25,0A5,5,0,0,0,96.93,165.24Z"/><path class="cls-2" d="M84.53,147.58a6.47,6.47,0,0,1,4.22,0,5.46,5.46,0,0,1-7.21,2.94A6.46,6.46,0,0,1,84.53,147.58Z"/><path class="cls-2" d="M87.26,152a5,5,0,0,1,2.32-2.28,4.2,4.2,0,0,1-2.33,5.53A5,5,0,0,1,87.26,152Z"/><path class="cls-2" d="M84.66,145.55a5,5,0,0,0,3.25,0,4.22,4.22,0,0,0-5.53-2.33A5,5,0,0,0,84.66,145.55Z"/><path class="cls-2" d="M175.84,235.13a6.46,6.46,0,0,0-3.74,2,5.45,5.45,0,0,0,7.76-.68A6.46,6.46,0,0,0,175.84,235.13Z"/><path class="cls-2" d="M175.4,240.26a5,5,0,0,0-3.11-1,4.22,4.22,0,0,0,4.6,3.85A5,5,0,0,0,175.4,240.26Z"/><path class="cls-2" d="M174.79,233.38a5,5,0,0,1-2.89,1.49,4.22,4.22,0,0,1,3.85-4.59A5,5,0,0,1,174.79,233.38Z"/><path class="cls-2" d="M183.79,268.27a6.46,6.46,0,0,0-3.73,2,5.46,5.46,0,0,0,7.75-.68A6.46,6.46,0,0,0,183.79,268.27Z"/><path class="cls-2" d="M183.35,273.4a5,5,0,0,0-3.1-1,4.22,4.22,0,0,0,4.6,3.85A5,5,0,0,0,183.35,273.4Z"/><path class="cls-2" d="M182.75,266.52a5,5,0,0,1-2.89,1.49,4.2,4.2,0,0,1,3.85-4.59A5,5,0,0,1,182.75,266.52Z"/><path class="cls-2" d="M187.77,300.86a6.51,6.51,0,0,0-3.74,2,6.52,6.52,0,0,0,4,1.29,6.45,6.45,0,0,0,3.73-2A6.46,6.46,0,0,0,187.77,300.86Z"/><path class="cls-2" d="M187.33,306a5,5,0,0,0-3.1-1,4.2,4.2,0,0,0,4.6,3.85A5,5,0,0,0,187.33,306Z"/><path class="cls-2" d="M186.73,299.11a5,5,0,0,1-2.89,1.49,4.2,4.2,0,0,1,3.85-4.59A5,5,0,0,1,186.73,299.11Z"/><path class="cls-2" d="M190.58,333.54a6.45,6.45,0,0,0-3.73,2,5.45,5.45,0,0,0,7.75-.69A6.46,6.46,0,0,0,190.58,333.54Z"/><path class="cls-2" d="M190.14,338.68a5,5,0,0,0-3.1-1,4.2,4.2,0,0,0,4.6,3.85A5,5,0,0,0,190.14,338.68Z"/><path class="cls-2" d="M189.54,331.8a5.05,5.05,0,0,1-2.89,1.49,4.2,4.2,0,0,1,3.85-4.6A5,5,0,0,1,189.54,331.8Z"/><path class="cls-2" d="M190.64,353.81a5.33,5.33,0,0,0-1.58,3.1,4.52,4.52,0,0,0,4.9-4.15A5.39,5.39,0,0,0,190.64,353.81Z"/><path class="cls-2" d="M192.78,357.47a4.12,4.12,0,0,0-2.55.83,3.49,3.49,0,0,0,4.93.41A4.15,4.15,0,0,0,192.78,357.47Z"/><path class="cls-2" d="M189.11,353.13a4,4,0,0,1-1.24,2.37,4.14,4.14,0,0,1-.82-2.55,4,4,0,0,1,1.24-2.37A4.14,4.14,0,0,1,189.11,353.13Z"/><path class="cls-3" d="M241.89,224.54h0a1.37,1.37,0,0,1-1-1.64l23-97.2a1.37,1.37,0,0,1,1.64-1h0a1.37,1.37,0,0,1,1,1.64q-11.82,49.35-23,97.2A1.37,1.37,0,0,1,241.89,224.54Z"/><polygon class="cls-2" points="275.95 126.96 288.02 123.65 276.29 119.28 283.42 108.98 271.62 113.17 270.46 100.71 264.11 111.5 255.21 102.7 257.29 115.05 244.81 114.02 254.34 122.14 244.12 129.38 256.64 129.48 253.47 141.59 263.12 133.62 268.48 144.94 270.75 132.62 282.12 137.85 275.95 126.96"/><polygon class="cls-1" points="267.37 126.89 272.29 129.7 269.94 124.55 275.51 123.53 270.4 121.1 274.01 116.74 268.53 118.16 268.5 112.5 265.22 117.11 261.55 112.8 262 118.44 256.42 117.49 260.39 121.52 255.51 124.38 261.14 124.92 259.24 130.25 263.9 127.04 265.87 132.35 267.37 126.89"/><path class="cls-1" d="M260.74,181c-1.4,5.92-5.51,10-9.19,9.15s-6.67-4-5.27-9.93c4.15-15.53,10.34-11.52,10.34-11.52S262.14,175.1,260.74,181Z"/><path class="cls-3" d="M248.89,189.4a.45.45,0,0,1-.16,0c-.25-.11-6.17-2.9-3.45-13.48,1-3.84,2.67-6.39,5-7.58a6.69,6.69,0,0,1,5.14-.39.37.37,0,0,1,.22.48.38.38,0,0,1-.49.22,6,6,0,0,0-4.54.36c-2.11,1.09-3.65,3.48-4.58,7.1-2.56,9.93,2.8,12.5,3,12.61a.37.37,0,0,1-.15.71Z"/><path class="cls-3" d="M48.7,365a.32.32,0,0,1-.14,0,.37.37,0,0,1-.21-.49,3.76,3.76,0,0,1,1.18-1.39,5.4,5.4,0,0,0,.61-.56,2.17,2.17,0,0,0,.67-1.87,1.34,1.34,0,0,0-.7-.92,1,1,0,0,0-.91,0,.84.84,0,0,0-.45.48.8.8,0,0,0,.1.63.39.39,0,0,0,.19.17.19.19,0,0,0,.15,0,.38.38,0,0,1,.38.66.92.92,0,0,1-.81,0,1.12,1.12,0,0,1-.56-.49A1.51,1.51,0,0,1,48,360a1.55,1.55,0,0,1,.83-.93,1.71,1.71,0,0,1,1.57,0,2.09,2.09,0,0,1,1.11,1.44,3,3,0,0,1-.85,2.53,5.77,5.77,0,0,1-.69.62,3.07,3.07,0,0,0-1,1.11A.37.37,0,0,1,48.7,365Z"/><path class="cls-3" d="M54.34,364.64a.4.4,0,0,1-.32-.18,3,3,0,0,0-1.11-1,7,7,0,0,1-.77-.53,2.89,2.89,0,0,1-1.2-2.38,2.05,2.05,0,0,1,.88-1.58,1.78,1.78,0,0,1,1.56-.24,1.56,1.56,0,0,1,1,.81,1.54,1.54,0,0,1,0,1.23,1.11,1.11,0,0,1-.6.62.87.87,0,0,1-.69,0,.37.37,0,1,1,.28-.69.2.2,0,0,0,.11,0,.45.45,0,0,0,.21-.22.77.77,0,0,0,0-.63.79.79,0,0,0-.51-.41,1,1,0,0,0-.9.14,1.3,1.3,0,0,0-.56,1,2.2,2.2,0,0,0,.92,1.76,7.64,7.64,0,0,0,.69.47,3.66,3.66,0,0,1,1.37,1.21.38.38,0,0,1-.13.51A.36.36,0,0,1,54.34,364.64Z"/><path class="cls-3" d="M74.19,363.56a.4.4,0,0,1-.15,0,.37.37,0,0,1-.2-.49,3.79,3.79,0,0,1,1.18-1.4,6.42,6.42,0,0,0,.61-.56,2.2,2.2,0,0,0,.67-1.87,1.37,1.37,0,0,0-.7-.92,1,1,0,0,0-.91,0,.81.81,0,0,0-.45.48.76.76,0,0,0,.1.63.35.35,0,0,0,.23.18.14.14,0,0,0,.11,0,.37.37,0,0,1,.37.65.89.89,0,0,1-.68.08,1.17,1.17,0,0,1-.68-.53,1.55,1.55,0,0,1-.17-1.23,1.56,1.56,0,0,1,.84-.93,1.74,1.74,0,0,1,1.57,0A2.09,2.09,0,0,1,77,359.06a3,3,0,0,1-.85,2.53,6.87,6.87,0,0,1-.69.63,3.11,3.11,0,0,0-1,1.11A.38.38,0,0,1,74.19,363.56Z"/><path class="cls-3" d="M79.83,363.15a.36.36,0,0,1-.32-.18,3,3,0,0,0-1.12-1,7.85,7.85,0,0,1-.76-.52,3,3,0,0,1-1.21-2.38,2.11,2.11,0,0,1,.89-1.59,1.74,1.74,0,0,1,1.56-.23,1.47,1.47,0,0,1,1,2,1.16,1.16,0,0,1-.6.63.92.92,0,0,1-.69,0,.38.38,0,0,1,.28-.7.2.2,0,0,0,.11,0,.37.37,0,0,0,.2-.21.79.79,0,0,0,0-.64.83.83,0,0,0-.51-.41,1,1,0,0,0-.9.14,1.33,1.33,0,0,0-.57,1,2.24,2.24,0,0,0,.93,1.76,6.36,6.36,0,0,0,.69.46,3.72,3.72,0,0,1,1.36,1.21.38.38,0,0,1-.13.52A.41.41,0,0,1,79.83,363.15Z"/><path class="cls-3" d="M98.58,361.76l-.15,0a.37.37,0,0,1-.2-.49,3.59,3.59,0,0,1,1.18-1.39,8.09,8.09,0,0,0,.61-.56,2.23,2.23,0,0,0,.67-1.88,1.37,1.37,0,0,0-.7-.91,1,1,0,0,0-.91,0,.81.81,0,0,0-.45.48.8.8,0,0,0,.09.63.44.44,0,0,0,.24.18.14.14,0,0,0,.11,0,.37.37,0,1,1,.37.65.84.84,0,0,1-.68.08,1.18,1.18,0,0,1-.69-.53,1.56,1.56,0,0,1-.16-1.22,1.61,1.61,0,0,1,.84-.94,1.74,1.74,0,0,1,1.57,0,2,2,0,0,1,1.1,1.44,2.88,2.88,0,0,1-.85,2.52,6.76,6.76,0,0,1-.68.63,3,3,0,0,0-1,1.11A.38.38,0,0,1,98.58,361.76Z"/><path class="cls-3" d="M104.22,361.35a.36.36,0,0,1-.32-.18,3.29,3.29,0,0,0-1.12-1,6.39,6.39,0,0,1-.76-.52,2.92,2.92,0,0,1-1.21-2.38,2.09,2.09,0,0,1,.89-1.58,1.72,1.72,0,0,1,1.55-.24,1.54,1.54,0,0,1,1,.81,1.5,1.5,0,0,1,0,1.23,1.14,1.14,0,0,1-.6.62.87.87,0,0,1-.69,0,.38.38,0,0,1-.21-.49.38.38,0,0,1,.49-.21.11.11,0,0,0,.11,0,.35.35,0,0,0,.2-.21.81.81,0,0,0,0-.63.83.83,0,0,0-.52-.42,1,1,0,0,0-.9.15,1.33,1.33,0,0,0-.56,1,2.2,2.2,0,0,0,.93,1.76,6.45,6.45,0,0,0,.69.47,3.55,3.55,0,0,1,1.36,1.21.37.37,0,0,1-.13.51A.32.32,0,0,1,104.22,361.35Z"/><path class="cls-3" d="M115.44,349.76a.32.32,0,0,1-.19-.05,3.76,3.76,0,0,1-1.24-1.34,5.15,5.15,0,0,0-.47-.68,2.18,2.18,0,0,0-1.78-.89,1.31,1.31,0,0,0-1,.58,1,1,0,0,0-.13.9.75.75,0,0,0,1.06.49.43.43,0,0,0,.21-.21.21.21,0,0,0,0-.11.37.37,0,0,1,.69-.29.92.92,0,0,1,0,.69,1.14,1.14,0,0,1-.61.61,1.57,1.57,0,0,1-1.24,0,1.59,1.59,0,0,1-.82-1,1.74,1.74,0,0,1,.21-1.56,2.05,2.05,0,0,1,1.57-.91,2.9,2.9,0,0,1,2.4,1.16,6.81,6.81,0,0,1,.54.75,3.05,3.05,0,0,0,1,1.1.37.37,0,0,1-.18.7Z"/><path class="cls-3" d="M112.1,346.7a3,3,0,0,1-.42,0,2.07,2.07,0,0,1-1.47-1.08,1.77,1.77,0,0,1,0-1.57,1.56,1.56,0,0,1,.92-.85,1.54,1.54,0,0,1,1.23.14,1.13,1.13,0,0,1,.54.67.87.87,0,0,1-.07.69.36.36,0,0,1-.51.14.37.37,0,0,1-.14-.51.14.14,0,0,0,0-.11A.46.46,0,0,0,112,344a.8.8,0,0,0-.63-.08.86.86,0,0,0-.48.46,1,1,0,0,0,0,.91,1.33,1.33,0,0,0,.93.68,2.2,2.2,0,0,0,1.86-.7,8.11,8.11,0,0,0,.55-.62,3.61,3.61,0,0,1,1.37-1.21.38.38,0,0,1,.3.69,3,3,0,0,0-1.09,1,6.68,6.68,0,0,1-.61.69A3.09,3.09,0,0,1,112.1,346.7Z"/><path class="cls-3" d="M118.2,323.9a.31.31,0,0,1-.18,0,3.76,3.76,0,0,1-1.24-1.34,6.41,6.41,0,0,0-.48-.68,2.15,2.15,0,0,0-1.77-.89,1.31,1.31,0,0,0-1,.58,1,1,0,0,0-.12.9.79.79,0,0,0,.42.5.77.77,0,0,0,.63,0,.39.39,0,0,0,.21-.21s0-.08,0-.11a.37.37,0,0,1,.69-.29.89.89,0,0,1,0,.68,1.17,1.17,0,0,1-.62.62,1.48,1.48,0,0,1-2-.94,1.71,1.71,0,0,1,.21-1.56,2,2,0,0,1,1.57-.91,2.88,2.88,0,0,1,2.39,1.16,5.7,5.7,0,0,1,.54.75,3.08,3.08,0,0,0,1,1.1.37.37,0,0,1,.14.51A.39.39,0,0,1,118.2,323.9Z"/><path class="cls-3" d="M114.86,320.84a3,3,0,0,1-.42,0,2,2,0,0,1-1.46-1.08,1.74,1.74,0,0,1,0-1.57,1.54,1.54,0,0,1,.92-.85,1.51,1.51,0,0,1,1.22.14,1.18,1.18,0,0,1,.55.67.91.91,0,0,1-.07.69.38.38,0,0,1-.66-.36.17.17,0,0,0,0-.12.43.43,0,0,0-.19-.23.79.79,0,0,0-.63-.08.82.82,0,0,0-.47.46,1,1,0,0,0,0,.91,1.31,1.31,0,0,0,.92.68,2.2,2.2,0,0,0,1.87-.7,6.31,6.31,0,0,0,.54-.62,3.76,3.76,0,0,1,1.37-1.21.38.38,0,1,1,.31.69,2.94,2.94,0,0,0-1.09,1,6.78,6.78,0,0,1-.62.69A3.07,3.07,0,0,1,114.86,320.84Z"/><path class="cls-3" d="M120,290.26a.31.31,0,0,1-.18-.05,3.76,3.76,0,0,1-1.24-1.34,7.51,7.51,0,0,0-.47-.68,2.17,2.17,0,0,0-1.78-.89,1.34,1.34,0,0,0-1,.58,1,1,0,0,0-.12.9.74.74,0,0,0,1.06.49.41.41,0,0,0,.2-.21.11.11,0,0,0,0-.11.37.37,0,1,1,.69-.29.92.92,0,0,1,0,.69,1.12,1.12,0,0,1-.62.61,1.51,1.51,0,0,1-1.23,0,1.56,1.56,0,0,1-.82-1,1.74,1.74,0,0,1,.21-1.56,2.08,2.08,0,0,1,1.57-.91,2.94,2.94,0,0,1,2.4,1.16,7.32,7.32,0,0,1,.53.75,3,3,0,0,0,1,1.1.39.39,0,0,1,.14.52A.38.38,0,0,1,120,290.26Z"/><path class="cls-3" d="M116.69,287.2a2,2,0,0,1-.42,0,2,2,0,0,1-1.46-1.08,1.74,1.74,0,0,1,0-1.57,1.56,1.56,0,0,1,.92-.85,1.51,1.51,0,0,1,1.22.14,1.14,1.14,0,0,1,.55.67.91.91,0,0,1-.07.69.38.38,0,0,1-.51.15.39.39,0,0,1-.15-.51.16.16,0,0,0,0-.12.38.38,0,0,0-.19-.22.8.8,0,0,0-.63-.09.84.84,0,0,0-.47.46,1,1,0,0,0,0,.91,1.33,1.33,0,0,0,.93.68,2.2,2.2,0,0,0,1.86-.7,6.31,6.31,0,0,0,.54-.62,3.61,3.61,0,0,1,1.38-1.2.37.37,0,0,1,.49.19.37.37,0,0,1-.19.49,3,3,0,0,0-1.09,1,6.75,6.75,0,0,1-.62.7A3.06,3.06,0,0,1,116.69,287.2Z"/><path class="cls-3" d="M120.12,258.11a.34.34,0,0,1-.19-.05,3.73,3.73,0,0,1-1.23-1.34,6.41,6.41,0,0,0-.48-.68,2.15,2.15,0,0,0-1.78-.89,1.31,1.31,0,0,0-1,.58,1,1,0,0,0-.13.9.84.84,0,0,0,.43.5.77.77,0,0,0,.63,0,.43.43,0,0,0,.21-.21.2.2,0,0,0,0-.11.37.37,0,0,1,.69-.29.87.87,0,0,1,0,.69,1.14,1.14,0,0,1-.61.61,1.55,1.55,0,0,1-1.23,0,1.58,1.58,0,0,1-.83-.95,1.77,1.77,0,0,1,.21-1.56,2.05,2.05,0,0,1,1.57-.91,2.88,2.88,0,0,1,2.4,1.16,7.91,7.91,0,0,1,.54.75,3.08,3.08,0,0,0,1,1.1.38.38,0,0,1,.14.51A.37.37,0,0,1,120.12,258.11Z"/><path class="cls-3" d="M116.78,255.05a3,3,0,0,1-.42,0,2,2,0,0,1-1.46-1.08,1.71,1.71,0,0,1,0-1.57,1.54,1.54,0,0,1,.92-.85,1.51,1.51,0,0,1,1.22.14,1.13,1.13,0,0,1,.54.67.91.91,0,0,1-.06.69.38.38,0,0,1-.66-.37.14.14,0,0,0,0-.11.41.41,0,0,0-.18-.23.84.84,0,0,0-.63-.08.82.82,0,0,0-.47.46,1,1,0,0,0,0,.91,1.35,1.35,0,0,0,.93.68,2.18,2.18,0,0,0,1.86-.7,5.31,5.31,0,0,0,.55-.62,3.76,3.76,0,0,1,1.37-1.21.39.39,0,0,1,.5.2.37.37,0,0,1-.2.49,3.1,3.1,0,0,0-1.09,1,5.68,5.68,0,0,1-.61.69A3.07,3.07,0,0,1,116.78,255.05Z"/><path class="cls-3" d="M119.94,226.89a.32.32,0,0,1-.19,0,3.76,3.76,0,0,1-1.24-1.34,7.51,7.51,0,0,0-.47-.68,2.19,2.19,0,0,0-1.78-.89,1.36,1.36,0,0,0-1,.58,1,1,0,0,0-.12.9.74.74,0,0,0,1.06.49.37.37,0,0,0,.2-.21.11.11,0,0,0,0-.11.37.37,0,0,1,.2-.49.39.39,0,0,1,.5.2,1,1,0,0,1,0,.69,1.14,1.14,0,0,1-.61.61,1.53,1.53,0,0,1-1.24,0,1.56,1.56,0,0,1-.82-.95,1.74,1.74,0,0,1,.21-1.56,2.08,2.08,0,0,1,1.57-.91,2.91,2.91,0,0,1,2.4,1.16,7.32,7.32,0,0,1,.53.75,3.09,3.09,0,0,0,1,1.1.39.39,0,0,1,.14.52A.36.36,0,0,1,119.94,226.89Z"/><path class="cls-3" d="M116.59,223.83a1.84,1.84,0,0,1-.41,0,2.08,2.08,0,0,1-1.47-1.07,1.76,1.76,0,0,1,0-1.58,1.56,1.56,0,0,1,.92-.85,1.51,1.51,0,0,1,1.22.14,1.13,1.13,0,0,1,.55.68.89.89,0,0,1-.07.68.37.37,0,1,1-.65-.36.17.17,0,0,0,0-.12.38.38,0,0,0-.19-.22.8.8,0,0,0-.63-.09.88.88,0,0,0-.47.46,1,1,0,0,0,0,.91,1.33,1.33,0,0,0,.93.68,2.2,2.2,0,0,0,1.86-.7,8.11,8.11,0,0,0,.55-.62,3.5,3.5,0,0,1,1.37-1.2.37.37,0,0,1,.3.68,3.11,3.11,0,0,0-1.09,1,6.75,6.75,0,0,1-.62.7A3.06,3.06,0,0,1,116.59,223.83Z"/><path class="cls-3" d="M170.12,221.82a3.35,3.35,0,0,1-1.75-.55c-.26-.17-.5-.37-.74-.56a3,3,0,0,0-1.26-.76.37.37,0,0,1,.16-.73,3.58,3.58,0,0,1,1.58.91,6,6,0,0,0,.66.5,2.2,2.2,0,0,0,2,.33,1.34,1.34,0,0,0,.78-.85,1,1,0,0,0-.15-.9.82.82,0,0,0-.55-.36.81.81,0,0,0-.6.21.38.38,0,0,0-.14.26.18.18,0,0,0,0,.11.37.37,0,0,1,0,.53.38.38,0,0,1-.53-.05.89.89,0,0,1-.2-.66,1.21,1.21,0,0,1,.4-.77,1.55,1.55,0,0,1,1.18-.37,1.59,1.59,0,0,1,1.07.65,1.77,1.77,0,0,1,.26,1.56,2.06,2.06,0,0,1-1.22,1.34A2.42,2.42,0,0,1,170.12,221.82Z"/><path class="cls-3" d="M167.85,225.44a.35.35,0,0,1-.28-.13.38.38,0,0,1,0-.53,3,3,0,0,0,.75-1.27,7,7,0,0,1,.38-.84,2.9,2.9,0,0,1,2.13-1.61,2,2,0,0,1,1.71.59,1.76,1.76,0,0,1,.52,1.49,1.6,1.6,0,0,1-.63,1.09,1.5,1.5,0,0,1-1.21.23,1.09,1.09,0,0,1-.72-.48.85.85,0,0,1-.14-.67.37.37,0,0,1,.44-.29.36.36,0,0,1,.29.44.35.35,0,0,0,0,.11.42.42,0,0,0,.25.16.76.76,0,0,0,.62-.11.79.79,0,0,0,.32-.58,1,1,0,0,0-.3-.86,1.3,1.3,0,0,0-1.09-.37,2.23,2.23,0,0,0-1.57,1.22,7.27,7.27,0,0,0-.33.76,3.76,3.76,0,0,1-1,1.56A.38.38,0,0,1,167.85,225.44Z"/><path class="cls-3" d="M177.25,253.72a3.26,3.26,0,0,1-1.75-.55c-.26-.17-.5-.37-.74-.56a3,3,0,0,0-1.26-.76.38.38,0,0,1-.29-.45.38.38,0,0,1,.45-.28,3.74,3.74,0,0,1,1.58.91,5.21,5.21,0,0,0,.66.5,2.19,2.19,0,0,0,2,.33,1.32,1.32,0,0,0,.78-.85,1,1,0,0,0-.15-.9.88.88,0,0,0-.55-.36.77.77,0,0,0-.6.21.4.4,0,0,0-.14.26.15.15,0,0,0,0,.11.37.37,0,0,1,0,.53.38.38,0,0,1-.53-.05.9.9,0,0,1-.2-.66,1.21,1.21,0,0,1,.4-.77A1.55,1.55,0,0,1,178,250a1.53,1.53,0,0,1,1.06.66,1.74,1.74,0,0,1,.27,1.55,2.06,2.06,0,0,1-1.22,1.34A2.5,2.5,0,0,1,177.25,253.72Z"/><path class="cls-3" d="M175,257.34a.35.35,0,0,1-.28-.13.38.38,0,0,1,0-.53,3,3,0,0,0,.75-1.26,6.48,6.48,0,0,1,.38-.85A2.9,2.9,0,0,1,178,253a2.07,2.07,0,0,1,1.71.6,1.69,1.69,0,0,1,.51,1.48,1.55,1.55,0,0,1-.62,1.09,1.58,1.58,0,0,1-1.21.24,1.14,1.14,0,0,1-.72-.49.87.87,0,0,1-.14-.67.37.37,0,0,1,.44-.29.38.38,0,0,1,.29.44.13.13,0,0,0,0,.11.39.39,0,0,0,.25.16.77.77,0,0,0,.62-.11.82.82,0,0,0,.32-.58,1,1,0,0,0-.3-.86,1.32,1.32,0,0,0-1.09-.37,2.21,2.21,0,0,0-1.57,1.22,7.27,7.27,0,0,0-.33.76,3.76,3.76,0,0,1-1,1.56A.38.38,0,0,1,175,257.34Z"/><path class="cls-3" d="M183.21,285.9a3.2,3.2,0,0,1-1.85-.65,6.73,6.73,0,0,1-.71-.59,3,3,0,0,0-1.22-.82.38.38,0,0,1-.26-.47.37.37,0,0,1,.46-.26,3.65,3.65,0,0,1,1.53,1,6.53,6.53,0,0,0,.63.53,2.21,2.21,0,0,0,1.94.43,1.34,1.34,0,0,0,.82-.81,1,1,0,0,0-.1-.91.81.81,0,0,0-.53-.38.82.82,0,0,0-.62.17.5.5,0,0,0-.15.25.25.25,0,0,0,0,.12.36.36,0,0,1-.07.52.37.37,0,0,1-.52-.07.92.92,0,0,1-.17-.67,1.19,1.19,0,0,1,.44-.75,1.52,1.52,0,0,1,1.2-.31,1.56,1.56,0,0,1,1,.71,1.75,1.75,0,0,1,.18,1.56,2.08,2.08,0,0,1-1.29,1.28A2.46,2.46,0,0,1,183.21,285.9Z"/><path class="cls-3" d="M180.64,289.4a.35.35,0,0,1-.29-.15.37.37,0,0,1,.06-.52,3.08,3.08,0,0,0,.81-1.23,9.23,9.23,0,0,1,.42-.83,2.91,2.91,0,0,1,2.21-1.49,2,2,0,0,1,1.68.68,1.72,1.72,0,0,1,.44,1.51,1.58,1.58,0,0,1-.68,1.05,1.48,1.48,0,0,1-1.22.17,1.2,1.2,0,0,1-.63-.41.9.9,0,0,1-.17-.78.37.37,0,0,1,.72.18.18.18,0,0,0,0,.14.39.39,0,0,0,.21.15.79.79,0,0,0,.63-.08.82.82,0,0,0,.35-.56,1,1,0,0,0-.25-.87,1.3,1.3,0,0,0-1.07-.43,2.2,2.2,0,0,0-1.63,1.14,6.45,6.45,0,0,0-.38.74,3.79,3.79,0,0,1-1,1.51A.43.43,0,0,1,180.64,289.4Z"/><path class="cls-3" d="M187.26,320.28a3.19,3.19,0,0,1-1.93-.73,7.93,7.93,0,0,1-.68-.62,3.13,3.13,0,0,0-1.18-.88.38.38,0,0,1-.25-.47.38.38,0,0,1,.48-.24,3.72,3.72,0,0,1,1.49,1.06,6.4,6.4,0,0,0,.6.56,2.21,2.21,0,0,0,1.93.51,1.34,1.34,0,0,0,.85-.78,1,1,0,0,0-.07-.9.81.81,0,0,0-.51-.41.8.8,0,0,0-.62.15.36.36,0,0,0-.16.24.16.16,0,0,0,0,.12.37.37,0,1,1-.61.42.83.83,0,0,1-.14-.67,1.16,1.16,0,0,1,.47-.73,1.53,1.53,0,0,1,1.21-.26,1.55,1.55,0,0,1,1,.75,1.77,1.77,0,0,1,.12,1.57,2.08,2.08,0,0,1-1.35,1.22A2.39,2.39,0,0,1,187.26,320.28Z"/><path class="cls-3" d="M184.46,323.66a.39.39,0,0,1-.31-.15.38.38,0,0,1,.09-.53,3.07,3.07,0,0,0,.86-1.19,7.29,7.29,0,0,1,.46-.81,2.88,2.88,0,0,1,2.27-1.39,2,2,0,0,1,1.65.75,1.77,1.77,0,0,1,.37,1.53,1.56,1.56,0,0,1-.73,1,1.51,1.51,0,0,1-1.22.12,1.2,1.2,0,0,1-.68-.55.9.9,0,0,1-.07-.68.37.37,0,0,1,.47-.25.38.38,0,0,1,.25.46.14.14,0,0,0,0,.12.39.39,0,0,0,.23.18.8.8,0,0,0,.63-.05.83.83,0,0,0,.37-.54,1,1,0,0,0-.22-.89,1.24,1.24,0,0,0-1.05-.47,2.2,2.2,0,0,0-1.68,1.07,6.3,6.3,0,0,0-.4.72,3.79,3.79,0,0,1-1.09,1.46A.38.38,0,0,1,184.46,323.66Z"/><path class="cls-3" d="M189.29,346.41a3.17,3.17,0,0,1-1.93-.73,5.83,5.83,0,0,1-.68-.63,3.33,3.33,0,0,0-1.19-.87.37.37,0,0,1-.24-.47.37.37,0,0,1,.47-.24,3.65,3.65,0,0,1,1.49,1.06,6.53,6.53,0,0,0,.61.56,2.2,2.2,0,0,0,1.92.51,1.32,1.32,0,0,0,.85-.78,1,1,0,0,0-.06-.9.8.8,0,0,0-.52-.41.82.82,0,0,0-.62.15.4.4,0,0,0-.16.24s0,.08,0,.11a.39.39,0,0,1-.1.53.38.38,0,0,1-.52-.1.87.87,0,0,1-.13-.67A1.12,1.12,0,0,1,189,343a1.51,1.51,0,0,1,1.2-.26,1.53,1.53,0,0,1,1,.75,1.74,1.74,0,0,1,.12,1.57,2.06,2.06,0,0,1-1.34,1.22A2.5,2.5,0,0,1,189.29,346.41Z"/><path class="cls-3" d="M186.48,349.79a.37.37,0,0,1-.3-.15.38.38,0,0,1,.08-.53,3.09,3.09,0,0,0,.87-1.19,6.41,6.41,0,0,1,.45-.81,2.93,2.93,0,0,1,2.27-1.4,2,2,0,0,1,1.65.75,1.74,1.74,0,0,1,.37,1.54,1.49,1.49,0,0,1-2,1.14,1.18,1.18,0,0,1-.67-.55.91.91,0,0,1-.08-.68.38.38,0,0,1,.72.21.23.23,0,0,0,0,.12.46.46,0,0,0,.23.18.79.79,0,0,0,.63-.05.82.82,0,0,0,.37-.54,1,1,0,0,0-.22-.89,1.32,1.32,0,0,0-1-.48,2.21,2.21,0,0,0-1.68,1.08,5.07,5.07,0,0,0-.4.72,3.82,3.82,0,0,1-1.1,1.46A.34.34,0,0,1,186.48,349.79Z"/><path class="cls-3" d="M199.59,360.18a.31.31,0,0,1-.13,0,.37.37,0,0,1-.22-.48,3.62,3.62,0,0,1,1.12-1.44,6.47,6.47,0,0,0,.58-.59,2.23,2.23,0,0,0,.59-1.9,1.36,1.36,0,0,0-.74-.88,1,1,0,0,0-.91,0,.82.82,0,0,0-.43.51.79.79,0,0,0,.12.62.41.41,0,0,0,.24.17c.05,0,.09,0,.11,0a.38.38,0,1,1,.41.63.85.85,0,0,1-.68.11,1.14,1.14,0,0,1-.71-.5,1.48,1.48,0,0,1,.58-2.18,1.74,1.74,0,0,1,1.57-.06,2,2,0,0,1,1.16,1.39,2.89,2.89,0,0,1-.73,2.56,6.85,6.85,0,0,1-.66.66,3.17,3.17,0,0,0-.92,1.15A.38.38,0,0,1,199.59,360.18Z"/><path class="cls-3" d="M205.21,359.52a.37.37,0,0,1-.31-.17,3.12,3.12,0,0,0-1.16-.91A7.91,7.91,0,0,1,203,358a2.9,2.9,0,0,1-1.3-2.33,2.06,2.06,0,0,1,.81-1.62,1.79,1.79,0,0,1,1.54-.31,1.61,1.61,0,0,1,1,.77,1.54,1.54,0,0,1,.07,1.23,1.16,1.16,0,0,1-.58.65.9.9,0,0,1-.68,0,.37.37,0,0,1-.23-.48.36.36,0,0,1,.47-.23.16.16,0,0,0,.12,0,.41.41,0,0,0,.19-.22.74.74,0,0,0-.55-1,1,1,0,0,0-.9.18,1.33,1.33,0,0,0-.51,1,2.18,2.18,0,0,0,1,1.71,5.93,5.93,0,0,0,.71.44,3.77,3.77,0,0,1,1.42,1.15.38.38,0,0,1-.11.52A.39.39,0,0,1,205.21,359.52Z"/><rect class="cls-1" x="148.34" y="278.92" width="1" height="18.29" transform="translate(-155.59 399.68) rotate(-82.81)"/><rect class="cls-1" x="148.32" y="267.98" width="1" height="17.2" transform="translate(-144.22 389.61) rotate(-82.81)"/><path class="cls-1" d="M153.35,285.05h-.28a2.89,2.89,0,0,1-2.6-2.17c-.34-.79-.61-1.42-1.59-1.58s-1.52.38-2.12,1.09a2.86,2.86,0,0,1-2.69,1.39,2.37,2.37,0,0,1-2-1.68,2.26,2.26,0,0,0-2-1.57l.18-1a3.27,3.27,0,0,1,2.71,2.14c.28.63.45,1,1.25,1.11s1.19-.31,1.81-1a3.06,3.06,0,0,1,3.05-1.44,3,3,0,0,1,2.34,2.18c.37.85.64,1.47,1.76,1.56s1.33-.42,1.8-1.32,1-1.94,2.64-1.74l-.12,1c-.9-.1-1.18.34-1.63,1.21A2.72,2.72,0,0,1,153.35,285.05Z"/><path class="cls-1" d="M145.81,279.08a1.12,1.12,0,1,1-1.12-1.12A1.12,1.12,0,0,1,145.81,279.08Z"/><path class="cls-1" d="M154.42,280.44a1.12,1.12,0,1,1-1.12-1.12A1.12,1.12,0,0,1,154.42,280.44Z"/><circle class="cls-1" cx="148.43" cy="284.99" r="1.12"/><path class="cls-1" d="M127.16,0h0C116.08,17.34,56.69,31.31,72.47,84.56h31.1l23.59-.5,23.58.5h31.1C197.62,31.31,138.23,17.34,127.16,0Z"/><path class="cls-8" d="M100.8,64.32a26.57,26.57,0,0,1,20-18.85c8-1.6,16.5-.55,23.09,4.69a25.88,25.88,0,0,1,9.56,15.73A60.36,60.36,0,0,1,153.14,87c-3.23,15-19.93,29.93-37.71,20.75-8.32-4.3-13.12-12.62-14.87-20.75-1.11-5.16-.85-10.84-.49-16.08A60.92,60.92,0,0,1,100.8,64.32Z"/><path class="cls-4" d="M147.76,78.9s4.88-5.71,7.81-.87-1.22,13.17-8.42,14.29S147.76,78.9,147.76,78.9Z"/><path class="cls-4" d="M106,78.9s-4.88-5.71-7.81-.87,1.22,13.17,8.42,14.29S106,78.9,106,78.9Z"/><path class="cls-5" d="M104.59,91.81a8.83,8.83,0,0,0-.6-5.12,19.4,19.4,0,0,0-.56,4.64S104.09,91.62,104.59,91.81Z"/><path class="cls-5" d="M149,91.85a8.83,8.83,0,0,1,.6-5.12,19.28,19.28,0,0,1,.56,4.62S149.56,91.66,149,91.85Z"/><path class="cls-4" d="M104.21,67.74s1.21-9.14,4.82-12.4a24.39,24.39,0,0,1,10.5-5.27,31.63,31.63,0,0,1,14.65,0,24.45,24.45,0,0,1,10.5,5.27c3.61,3.26,5,12.4,5,12.4s1.24,14.86-.15,22.17c-2.78,14.66-17.18,29.26-32.52,20.29-7.18-4.21-11.32-12.34-12.83-20.29C102.79,82.6,104.21,67.74,104.21,67.74Z"/><path class="cls-8" d="M103.57,71.9c10.77-3.91,19.56-9.1,23.88-17.2q6,10.86,22.74,17.17s5.59-27-23.32-26.57S103.57,71.9,103.57,71.9Z"/><path class="cls-9" d="M103.88,69.67c7.18-2.74,12.89-6.65,16.35-12.32A56.29,56.29,0,0,1,103.88,69.67Z"/><path class="cls-9" d="M127.45,54.7a26.94,26.94,0,0,0,1.83-3.89,17.57,17.57,0,0,1-1.17,5Z"/><path class="cls-9" d="M151.57,63.53S147.25,51,137,48.16C143.72,52,147,55.84,151.57,63.53Z"/><path class="cls-10" d="M137.51,82.5c0,.88.49,1.6,1.09,1.6s1.09-.72,1.09-1.6-.49-1.61-1.09-1.61S137.51,81.61,137.51,82.5Z"/><path class="cls-10" d="M114,82.5c0,.88.49,1.6,1.09,1.6s1.09-.72,1.09-1.6-.49-1.61-1.09-1.61S114,81.61,114,82.5Z"/><path class="cls-2" d="M131.42,92.38l-9.12.11c.15.66.85,4.28,4.64,4.28S131.46,93,131.42,92.38Z"/><path class="cls-11" d="M112.56,86.25a2.24,2.24,0,0,1-1.46,2.23,2.79,2.79,0,0,1-3.61-3.17,1.89,1.89,0,0,1,1.33-1.5C110.11,83.45,112.41,84.25,112.56,86.25Z"/><path class="cls-11" d="M144.66,87.71a4,4,0,0,1-2.31-.89,2.8,2.8,0,0,1-.79-1.73,1.77,1.77,0,0,1,.79-1.41,2.74,2.74,0,0,1,2.74-.41A3.16,3.16,0,0,1,147,85.42C147.36,87.16,145.62,87.81,144.66,87.71Z"/><path class="cls-5" d="M126.2,90.15a.48.48,0,0,1-.4-.21.5.5,0,0,1,.11-.7c.64-.46,1.28-.95,1.9-1.46a1.29,1.29,0,0,0,.35-2,27.11,27.11,0,0,0-2.72-4.41.5.5,0,1,1,.8-.61,28.42,28.42,0,0,1,2.81,4.58,2.71,2.71,0,0,1,.35,2.1,2.78,2.78,0,0,1-1,1.16c-.64.53-1.3,1-2,1.51A.5.5,0,0,1,126.2,90.15Z"/><path class="cls-8" d="M119.2,77.5a.74.74,0,0,1-.42-.13,6.86,6.86,0,0,0-7.34,0,.75.75,0,0,1-.85-1.24,8.3,8.3,0,0,1,9,0,.75.75,0,0,1,.21,1A.78.78,0,0,1,119.2,77.5Z"/><path class="cls-8" d="M142.41,77.5a.69.69,0,0,1-.41-.13,6.87,6.87,0,0,0-7.35,0,.75.75,0,0,1-.85-1.24,8.3,8.3,0,0,1,9,0,.75.75,0,0,1,.21,1A.77.77,0,0,1,142.41,77.5Z"/><path class="cls-10" d="M112.4,81.77a.49.49,0,0,1-.41-.22.5.5,0,0,1,.14-.7c1.69-1.13,4.73-1.1,6,0a.51.51,0,0,1,0,.71.5.5,0,0,1-.71,0c-.86-.77-3.4-.89-4.8,0A.49.49,0,0,1,112.4,81.77Z"/><path class="cls-10" d="M135.89,81.77a.49.49,0,0,1-.41-.22.5.5,0,0,1,.14-.7c1.69-1.13,4.73-1.1,6,0a.5.5,0,1,1-.67.75c-.86-.77-3.39-.89-4.8,0A.47.47,0,0,1,135.89,81.77Z"/><path class="cls-5" d="M126.91,99.75a4.12,4.12,0,0,1-2.75-1.06.48.48,0,0,1,0-.7.49.49,0,0,1,.7,0,3.22,3.22,0,0,0,4.34-.07.5.5,0,0,1,.65.76A4.39,4.39,0,0,1,126.91,99.75Z"/><path class="cls-5" d="M101.05,86.66a.5.5,0,0,1-.44-.25c-1.86-3.29-1.74-5.82.37-7.76a.5.5,0,0,1,.68.74c-1.74,1.59-1.8,3.67-.18,6.53a.49.49,0,0,1-.43.74Z"/><path class="cls-5" d="M152.78,86.66a.54.54,0,0,1-.25-.06.5.5,0,0,1-.19-.68c1.62-2.86,1.57-4.94-.17-6.53a.49.49,0,0,1,0-.7.51.51,0,0,1,.71,0c2.11,1.94,2.23,4.47.37,7.76A.5.5,0,0,1,152.78,86.66Z"/><path class="cls-2" d="M179.82,82.72a.85.85,0,0,1-.82-1v0a.85.85,0,0,1,1.64.45A.86.86,0,0,1,179.82,82.72Z"/><path class="cls-2" d="M181.09,77h-.15a.86.86,0,0,1-.69-1l.84.15-.83-.23a.87.87,0,0,1,1-.71.84.84,0,0,1,.71,1,.5.5,0,0,1,0,.12A.85.85,0,0,1,181.09,77Zm.66-5.9h-.05a.84.84,0,0,1-.79-.9l.84,0-.84-.12a.82.82,0,0,1,.87-.83.86.86,0,0,1,.83.88v.12A.85.85,0,0,1,181.75,71.1Zm-.07-6a.81.81,0,0,1-.84-.73v-.12a.84.84,0,0,1,.79-.9.86.86,0,0,1,.9.8.9.9,0,0,1-.78,1Zm-.87-5.82a.85.85,0,0,1-.83-.67l.83-.18-.84.11a.84.84,0,0,1,.62-1,.86.86,0,0,1,1,.62l0,.12a.84.84,0,0,1-.65,1A.55.55,0,0,1,180.81,59.3ZM179,53.59a.79.79,0,0,1-.75-.5l0-.09a.86.86,0,0,1,.49-1.1.84.84,0,0,1,1.1.48.9.9,0,0,1-.47,1.15A1,1,0,0,1,179,53.59Zm-2.49-5.32a.87.87,0,0,1-.75-.44l.75-.41-.79.34a.85.85,0,0,1,1.47-.86l.06.11a.84.84,0,0,1-.33,1.15A.87.87,0,0,1,176.55,48.27Zm-3.29-5a.76.76,0,0,1-.62-.31l-.08-.1a.85.85,0,0,1,1.39-1,.9.9,0,0,1-.16,1.22A1,1,0,0,1,173.26,43.26Zm-3.73-4.54a.85.85,0,0,1-.63-.29l.63-.56-.68.51a.85.85,0,1,1,1.24-1.17l.08.09a.85.85,0,0,1-.07,1.2A.89.89,0,0,1,169.53,38.72Zm-4.2-4.2a.81.81,0,0,1-.58-.23l.58-.62-.64.57a.84.84,0,0,1-.06-1.2.85.85,0,0,1,1.2-.07l.08.08a.85.85,0,0,1,0,1.2A.84.84,0,0,1,165.33,34.52Zm-4.51-3.87a.82.82,0,0,1-.53-.19l.53-.66-.6.61a.85.85,0,0,1,1.05-1.34l.09.07a.85.85,0,0,1,.12,1.2A.82.82,0,0,1,160.82,30.65ZM156.06,27a.74.74,0,0,1-.46-.16l-.09-.06a.86.86,0,0,1-.17-1.19.84.84,0,0,1,1.18-.18.89.89,0,0,1,.22,1.22A.86.86,0,0,1,156.06,27Zm-4.87-3.42a.8.8,0,0,1-.43-.13l-.1-.07a.85.85,0,0,1,1-1.39.88.88,0,0,1,.25,1.2A.85.85,0,0,1,151.19,23.62Zm-4.94-3.29a.85.85,0,0,1-.43-.12.36.36,0,0,0-.1-.07.85.85,0,1,1,1-1.4.89.89,0,0,1,.27,1.2A.85.85,0,0,1,146.25,20.33Zm-5-3.25a.8.8,0,0,1-.43-.13l.47-.71-.49.7.41-.75.48-.7a.89.89,0,0,1,.26,1.2A.85.85,0,0,1,141.27,17.08Zm-4.93-3.31a.77.77,0,0,1-.45-.14l-.08-.06a.85.85,0,1,1,1-1.39.9.9,0,0,1,.25,1.21A.87.87,0,0,1,136.34,13.77Zm-4.74-3.52a.8.8,0,0,1-.53-.19l.53-.66-.6.6a.85.85,0,1,1,1.05-1.33l.09.07a.85.85,0,0,1-.54,1.51Z"/><path class="cls-2" d="M127.16,6.21a.85.85,0,0,1-.31-.06,1,1,0,0,1-.28-.17.83.83,0,0,1-.07-1.19.91.91,0,0,1,1.28,0,.88.88,0,0,1,0,1.22A.89.89,0,0,1,127.16,6.21Z"/><path class="cls-2" d="M73.22,77a.86.86,0,0,1-.84-.71L73.2,76l.84-.14L73.2,76l.86-.05a.85.85,0,0,1-.7,1Zm-.66-5.91a.84.84,0,0,1-.85-.79s0-.11,0-.11a.86.86,0,0,1,.81-.89.84.84,0,0,1,.89.81l-.85,0,.86,0a.86.86,0,0,1-.8.9Zm.07-5.93h-.08a.85.85,0,0,1-.77-.92.9.9,0,0,1,.92-.82.8.8,0,0,1,.78.86v.11A.85.85,0,0,1,72.63,65.12Zm.88-5.86-.19,0a.86.86,0,0,1-.64-1,.91.91,0,0,1,1-.69.81.81,0,0,1,.65,1l0,.09A.84.84,0,0,1,73.51,59.26Zm1.74-5.67a.87.87,0,0,1-.32-.06.85.85,0,0,1-.47-1.11.9.9,0,0,1,1.12-.52A.82.82,0,0,1,76.07,53l0,.1A.84.84,0,0,1,75.25,53.59Zm2.54-5.36a.77.77,0,0,1-.41-.11A.85.85,0,0,1,77,47l.06-.1a.85.85,0,0,1,1.47.85l-.73-.42.69.49A.84.84,0,0,1,77.79,48.23Zm3.23-5a.85.85,0,0,1-.5-.16.86.86,0,0,1-.19-1.19.55.55,0,0,0,.07-.09.85.85,0,1,1,1.36,1l-.68-.51.63.58A.86.86,0,0,1,81,43.26Zm3.79-4.57a.87.87,0,0,1-.58-.23.86.86,0,0,1,0-1.2.9.9,0,0,1,1.24-.09.82.82,0,0,1,.08,1.17l-.07.07A.84.84,0,0,1,84.81,38.69ZM89,34.49a.86.86,0,0,1-.63-.27.85.85,0,0,1,0-1.2.9.9,0,0,1,1.24,0,.81.81,0,0,1,0,1.17l-.07.07A.83.83,0,0,1,89,34.49Zm4.51-3.87a.86.86,0,0,1-.67-.32A.84.84,0,0,1,93,29.11a.9.9,0,0,1,1.23.1.81.81,0,0,1-.09,1.16l-.09.07A.84.84,0,0,1,93.53,30.62ZM98.25,27a.83.83,0,0,1-.68-.35.85.85,0,0,1,.18-1.19l.08-.06a.85.85,0,1,1,1,1.38l-.5-.69.43.74A.89.89,0,0,1,98.25,27Zm4.87-3.41a.85.85,0,0,1-.49-1.55l.09-.06a.85.85,0,0,1,1,1.41l-.47-.71.4.76A.87.87,0,0,1,103.12,23.61Zm4.95-3.29a.83.83,0,0,1-.71-.38.85.85,0,0,1,.23-1.18l.1-.06a.85.85,0,0,1,.92,1.43l-.46-.71.39.75A.84.84,0,0,1,108.07,20.32Zm5.46-3.4-1-1.41.09-.06a.85.85,0,1,1,.92,1.43l-.46-.71ZM118,13.76a.85.85,0,0,1-.49-1.55l.09-.06a.85.85,0,1,1,1,1.4l-.48-.7.41.75A.82.82,0,0,1,118,13.76Zm4.78-3.54a.88.88,0,0,1-.67-.31.86.86,0,0,1,.13-1.2.89.89,0,0,1,1.23.1.8.8,0,0,1-.09,1.16l-.07.07A.89.89,0,0,1,122.75,10.22Z"/><path class="cls-2" d="M74.49,82.74a.85.85,0,0,1-.82-.63.87.87,0,0,1,.59-1.06.84.84,0,0,1,1,.58v0a.85.85,0,0,1-.6,1A.78.78,0,0,1,74.49,82.74Z"/><path class="cls-2" d="M123.88,27.17h0a.39.39,0,0,0,.51-.21L130,13.9a.4.4,0,0,0-.21-.52h0a.39.39,0,0,0-.51.21l-5.6,13.07A.4.4,0,0,0,123.88,27.17Z"/><path class="cls-2" d="M128.47,15.73h0A.39.39,0,0,0,129,16l2.15-.86a.39.39,0,0,0,.22-.51h0a.39.39,0,0,0-.51-.22l-2.15.86A.39.39,0,0,0,128.47,15.73Z"/><path class="cls-2" d="M129,16h0a.39.39,0,0,1-.51-.22l-.86-2.15a.39.39,0,0,1,.22-.51h0a.39.39,0,0,1,.5.22l.86,2.15A.39.39,0,0,1,129,16Z"/><path class="cls-2" d="M125.27,24.64h0a.39.39,0,0,0-.51-.22l-2.15.86a.39.39,0,0,0-.22.51h0a.39.39,0,0,0,.51.21l2.15-.86A.38.38,0,0,0,125.27,24.64Z"/><path class="cls-2" d="M124.76,24.42h0a.39.39,0,0,1,.51.22l.86,2.15a.39.39,0,0,1-.22.51h0a.39.39,0,0,1-.51-.22l-.86-2.15A.39.39,0,0,1,124.76,24.42Z"/><path class="cls-2" d="M122.28,18.63h0a.39.39,0,0,0,.22-.51L121.64,16a.39.39,0,0,0-.51-.22h0a.39.39,0,0,0-.22.51l.86,2.15A.39.39,0,0,0,122.28,18.63Z"/><path class="cls-2" d="M122.5,18.12h0a.39.39,0,0,1-.22.51l-2.15.86a.39.39,0,0,1-.51-.22h0a.38.38,0,0,1,.22-.5L122,17.9A.39.39,0,0,1,122.5,18.12Z"/><path class="cls-2" d="M131.37,21.92h0a.39.39,0,0,0-.22.51l.86,2.15a.39.39,0,0,0,.51.22h0a.39.39,0,0,0,.22-.51l-.86-2.15A.39.39,0,0,0,131.37,21.92Z"/><path class="cls-2" d="M131.15,22.43h0a.39.39,0,0,1,.22-.51l2.15-.86a.4.4,0,0,1,.51.21h0a.39.39,0,0,1-.22.51l-2.15.86A.39.39,0,0,1,131.15,22.43Z"/><path class="cls-2" d="M124.78,15.9h0a.4.4,0,0,0,.51-.21l.91-2.13a.39.39,0,0,0-.2-.51h0a.4.4,0,0,0-.52.2l-.91,2.14A.4.4,0,0,0,124.78,15.9Z"/><path class="cls-2" d="M125.29,15.69h0a.4.4,0,0,1-.51.21L122.64,15a.39.39,0,0,1-.2-.51h0a.39.39,0,0,1,.51-.2l2.13.91A.39.39,0,0,1,125.29,15.69Z"/><path class="cls-2" d="M128.87,24.65h0a.4.4,0,0,0-.51.2L127.45,27a.39.39,0,0,0,.2.51h0a.4.4,0,0,0,.52-.21l.91-2.13A.39.39,0,0,0,128.87,24.65Z"/><path class="cls-2" d="M128.36,24.85h0a.4.4,0,0,1,.51-.2l2.14.91a.4.4,0,0,1,.2.51h0a.39.39,0,0,1-.51.21l-2.13-.91A.4.4,0,0,1,128.36,24.85Z"/><path class="cls-2" d="M122.45,22.32h0a.4.4,0,0,0-.21-.51l-2.13-.91a.39.39,0,0,0-.51.2h0a.4.4,0,0,0,.2.52l2.14.91A.4.4,0,0,0,122.45,22.32Z"/><path class="cls-2" d="M122.24,21.81h0a.39.39,0,0,1,.21.51l-.91,2.13a.4.4,0,0,1-.52.21h0a.39.39,0,0,1-.2-.51l.91-2.13A.4.4,0,0,1,122.24,21.81Z"/><path class="cls-2" d="M131.2,18.22h0a.4.4,0,0,0,.21.52l2.13.91a.39.39,0,0,0,.51-.21h0a.4.4,0,0,0-.21-.51L131.71,18A.39.39,0,0,0,131.2,18.22Z"/><path class="cls-2" d="M131.41,18.74h0a.4.4,0,0,1-.21-.51l.91-2.14a.4.4,0,0,1,.52-.2h0a.39.39,0,0,1,.2.51l-.91,2.13A.4.4,0,0,1,131.41,18.74Z"/><path class="cls-2" d="M133.72,23.23h0a.39.39,0,0,0-.2-.51l-13.07-5.6a.39.39,0,0,0-.51.2h0a.39.39,0,0,0,.2.52l13.07,5.59A.39.39,0,0,0,133.72,23.23Z"/><path class="cls-2" d="M129.62,27.24h0a.39.39,0,0,0,.21-.51l-5.28-13.2a.4.4,0,0,0-.51-.22h0a.39.39,0,0,0-.21.51L129.11,27A.39.39,0,0,0,129.62,27.24Z"/><path class="cls-2" d="M133.79,17.49h0a.39.39,0,0,0-.51-.22l-13.19,5.29a.38.38,0,0,0-.22.5h0a.39.39,0,0,0,.51.22L133.57,18A.39.39,0,0,0,133.79,17.49Z"/><path class="cls-2" d="M101.05,48.29h0a.28.28,0,0,0,.36-.16l3.51-9.57a.28.28,0,0,0-.16-.36h0a.29.29,0,0,0-.36.17l-3.52,9.56A.29.29,0,0,0,101.05,48.29Z"/><path class="cls-2" d="M103.91,39.93h0a.27.27,0,0,0,.37.14l1.51-.7a.27.27,0,0,0,.13-.37h0a.28.28,0,0,0-.37-.14l-1.51.7A.27.27,0,0,0,103.91,39.93Z"/><path class="cls-2" d="M104.28,40.07h0a.27.27,0,0,1-.37-.14l-.7-1.5a.3.3,0,0,1,.14-.38h0a.29.29,0,0,1,.37.14l.7,1.51A.28.28,0,0,1,104.28,40.07Z"/><path class="cls-2" d="M102,46.43h0a.28.28,0,0,0-.37-.14l-1.51.7a.28.28,0,0,0-.14.37h0a.29.29,0,0,0,.37.14l1.51-.7A.28.28,0,0,0,102,46.43Z"/><path class="cls-2" d="M101.58,46.29h0a.28.28,0,0,1,.37.14l.7,1.51a.28.28,0,0,1-.14.37h0a.28.28,0,0,1-.37-.14l-.7-1.51A.29.29,0,0,1,101.58,46.29Z"/><path class="cls-2" d="M99.59,42.24h0a.27.27,0,0,0,.13-.37L99,40.36a.3.3,0,0,0-.38-.14h0a.28.28,0,0,0-.13.38l.7,1.5A.27.27,0,0,0,99.59,42.24Z"/><path class="cls-2" d="M99.72,41.87h0a.27.27,0,0,1-.13.37l-1.51.7a.28.28,0,0,1-.37-.14h0a.27.27,0,0,1,.13-.37l1.51-.7A.28.28,0,0,1,99.72,41.87Z"/><path class="cls-2" d="M106.21,44.26h0a.27.27,0,0,0-.13.37l.7,1.51a.28.28,0,0,0,.37.13h0a.27.27,0,0,0,.13-.37l-.69-1.51A.28.28,0,0,0,106.21,44.26Z"/><path class="cls-2" d="M106.08,44.63h0a.27.27,0,0,1,.13-.37l1.51-.7a.27.27,0,0,1,.37.13h0a.28.28,0,0,1-.13.38l-1.51.69A.27.27,0,0,1,106.08,44.63Z"/><path class="cls-2" d="M101.27,40.19h0a.28.28,0,0,0,.36-.16l.57-1.56a.27.27,0,0,0-.16-.36h0a.27.27,0,0,0-.36.16l-.58,1.56A.29.29,0,0,0,101.27,40.19Z"/><path class="cls-2" d="M101.63,40h0a.28.28,0,0,1-.36.16l-1.56-.57a.29.29,0,0,1-.17-.36h0a.3.3,0,0,1,.36-.17l1.56.58A.28.28,0,0,1,101.63,40Z"/><path class="cls-2" d="M104.53,46.3h0a.29.29,0,0,0-.36.17L103.6,48a.29.29,0,0,0,.16.36h0a.28.28,0,0,0,.36-.17l.58-1.56A.29.29,0,0,0,104.53,46.3Z"/><path class="cls-2" d="M104.17,46.47h0a.3.3,0,0,1,.36-.17l1.56.58a.28.28,0,0,1,.17.36h0a.28.28,0,0,1-.36.16l-1.56-.57A.28.28,0,0,1,104.17,46.47Z"/><path class="cls-2" d="M99.84,44.88h0a.27.27,0,0,0-.16-.36L98.12,44a.27.27,0,0,0-.36.16h0a.28.28,0,0,0,.17.36l1.56.57A.27.27,0,0,0,99.84,44.88Z"/><path class="cls-2" d="M99.68,44.52h0a.27.27,0,0,1,.16.36l-.57,1.56a.27.27,0,0,1-.36.16h0a.27.27,0,0,1-.16-.35l.57-1.56A.28.28,0,0,1,99.68,44.52Z"/><path class="cls-2" d="M106,41.62h0a.28.28,0,0,0,.16.36l1.56.57a.28.28,0,0,0,.36-.17h0a.29.29,0,0,0-.16-.36l-1.57-.57A.27.27,0,0,0,106,41.62Z"/><path class="cls-2" d="M106.12,42h0a.28.28,0,0,1-.16-.36l.57-1.56a.28.28,0,0,1,.36-.17h0a.28.28,0,0,1,.16.36l-.57,1.56A.29.29,0,0,1,106.12,42Z"/><path class="cls-2" d="M108,45.1h0a.29.29,0,0,0-.17-.36l-9.56-3.51a.28.28,0,0,0-.36.16h0a.28.28,0,0,0,.17.36l9.56,3.52A.28.28,0,0,0,108,45.1Z"/><path class="cls-2" d="M105.16,48.13h0a.29.29,0,0,0,.14-.37L101,38.51a.29.29,0,0,0-.37-.14h0a.29.29,0,0,0-.14.37L104.79,48A.28.28,0,0,0,105.16,48.13Z"/><path class="cls-2" d="M107.78,41h0a.27.27,0,0,0-.37-.13l-9.25,4.27a.28.28,0,0,0-.13.37h0a.27.27,0,0,0,.37.14l9.25-4.28A.27.27,0,0,0,107.78,41Z"/><path class="cls-2" d="M148.77,48.29h0a.27.27,0,0,0,.36-.16l3.52-9.57a.29.29,0,0,0-.17-.36h0a.29.29,0,0,0-.36.17l-3.51,9.56A.27.27,0,0,0,148.77,48.29Z"/><path class="cls-2" d="M151.63,39.93h0a.27.27,0,0,0,.37.14l1.51-.7a.28.28,0,0,0,.14-.37h0a.29.29,0,0,0-.37-.14l-1.51.7A.29.29,0,0,0,151.63,39.93Z"/><path class="cls-2" d="M152,40.07h0a.28.28,0,0,1-.37-.14l-.7-1.5a.3.3,0,0,1,.14-.38h0a.28.28,0,0,1,.37.14l.7,1.51A.28.28,0,0,1,152,40.07Z"/><path class="cls-2" d="M149.67,46.43h0a.28.28,0,0,0-.37-.14l-1.51.7a.27.27,0,0,0-.13.37h0a.28.28,0,0,0,.37.14l1.51-.7A.27.27,0,0,0,149.67,46.43Z"/><path class="cls-2" d="M149.3,46.29h0a.28.28,0,0,1,.37.14l.7,1.51a.28.28,0,0,1-.14.37h0a.29.29,0,0,1-.37-.14l-.7-1.51A.29.29,0,0,1,149.3,46.29Z"/><path class="cls-2" d="M147.31,42.24h0a.28.28,0,0,0,.14-.37l-.7-1.51a.29.29,0,0,0-.37-.14h0a.3.3,0,0,0-.14.38l.7,1.5A.27.27,0,0,0,147.31,42.24Z"/><path class="cls-2" d="M147.45,41.87h0a.28.28,0,0,1-.14.37l-1.51.7a.28.28,0,0,1-.37-.14h0a.27.27,0,0,1,.14-.37l1.5-.7A.3.3,0,0,1,147.45,41.87Z"/><path class="cls-2" d="M153.94,44.26h0a.28.28,0,0,0-.14.37l.7,1.51a.28.28,0,0,0,.37.13h0a.28.28,0,0,0,.14-.37l-.7-1.51A.27.27,0,0,0,153.94,44.26Z"/><path class="cls-2" d="M153.8,44.63h0a.28.28,0,0,1,.14-.37l1.51-.7a.27.27,0,0,1,.37.13h0a.3.3,0,0,1-.14.38l-1.51.69A.27.27,0,0,1,153.8,44.63Z"/><path class="cls-2" d="M149,40.19h0a.27.27,0,0,0,.36-.16l.57-1.56a.27.27,0,0,0-.16-.36h0a.27.27,0,0,0-.36.16l-.57,1.56A.27.27,0,0,0,149,40.19Z"/><path class="cls-2" d="M149.35,40h0a.27.27,0,0,1-.36.16l-1.56-.57a.28.28,0,0,1-.16-.36h0a.29.29,0,0,1,.36-.17l1.56.58A.28.28,0,0,1,149.35,40Z"/><path class="cls-2" d="M152.25,46.3h0a.29.29,0,0,0-.36.17L151.32,48a.28.28,0,0,0,.17.36h0a.29.29,0,0,0,.36-.17l.57-1.56A.29.29,0,0,0,152.25,46.3Z"/><path class="cls-2" d="M151.89,46.47h0a.3.3,0,0,1,.36-.17l1.56.58a.28.28,0,0,1,.17.36h0a.27.27,0,0,1-.36.16l-1.56-.57A.29.29,0,0,1,151.89,46.47Z"/><path class="cls-2" d="M147.57,44.88h0a.28.28,0,0,0-.17-.36L145.84,44a.28.28,0,0,0-.36.16h0a.28.28,0,0,0,.17.36l1.56.57A.28.28,0,0,0,147.57,44.88Z"/><path class="cls-2" d="M147.4,44.52h0a.28.28,0,0,1,.17.36L147,46.44a.27.27,0,0,1-.36.16h0a.27.27,0,0,1-.16-.35l.57-1.56A.29.29,0,0,1,147.4,44.52Z"/><path class="cls-2" d="M153.68,41.62h0a.29.29,0,0,0,.16.36l1.56.57a.28.28,0,0,0,.36-.17h0a.28.28,0,0,0-.16-.36L154,41.45A.28.28,0,0,0,153.68,41.62Z"/><path class="cls-2" d="M153.84,42h0a.29.29,0,0,1-.16-.36l.57-1.56a.29.29,0,0,1,.36-.17h0a.28.28,0,0,1,.17.36l-.58,1.56A.29.29,0,0,1,153.84,42Z"/><path class="cls-2" d="M155.67,45.1h0a.29.29,0,0,0-.16-.36l-9.57-3.51a.29.29,0,0,0-.36.16h0a.28.28,0,0,0,.17.36l9.56,3.52A.28.28,0,0,0,155.67,45.1Z"/><path class="cls-2" d="M152.88,48.13h0a.29.29,0,0,0,.14-.37l-4.28-9.25a.28.28,0,0,0-.37-.14h0a.29.29,0,0,0-.14.37L152.51,48A.29.29,0,0,0,152.88,48.13Z"/><path class="cls-2" d="M155.5,41h0a.27.27,0,0,0-.37-.13l-9.25,4.27a.28.28,0,0,0-.13.37h0a.27.27,0,0,0,.37.14l9.25-4.28A.27.27,0,0,0,155.5,41Z"/><path class="cls-2" d="M77.64,86.85a1.74,1.74,0,0,1-3.47,0c0-1,1.73-3.1,1.73-3.1S77.64,85.89,77.64,86.85Z"/><path class="cls-2" d="M82.28,86.85a1.73,1.73,0,1,1-3.46,0c0-1,1.73-3.1,1.73-3.1S82.28,85.89,82.28,86.85Z"/><path class="cls-2" d="M86.93,86.85a1.74,1.74,0,0,1-3.47,0c0-1,1.74-3.1,1.74-3.1S86.93,85.89,86.93,86.85Z"/><path class="cls-2" d="M91.58,86.85a1.74,1.74,0,0,1-3.47,0c0-1,1.73-3.1,1.73-3.1S91.58,85.89,91.58,86.85Z"/><path class="cls-2" d="M96.22,86.85a1.73,1.73,0,0,1-3.46,0c0-1,1.73-3.1,1.73-3.1S96.22,85.89,96.22,86.85Z"/><path class="cls-2" d="M160.83,86.85a1.73,1.73,0,0,1-3.46,0c0-1,1.73-3.1,1.73-3.1S160.83,85.89,160.83,86.85Z"/><path class="cls-2" d="M165.48,86.85a1.74,1.74,0,0,1-3.47,0c0-1,1.74-3.1,1.74-3.1S165.48,85.89,165.48,86.85Z"/><path class="cls-2" d="M170.12,86.85a1.73,1.73,0,0,1-3.46,0c0-1,1.73-3.1,1.73-3.1S170.12,85.89,170.12,86.85Z"/><path class="cls-2" d="M174.77,86.85a1.73,1.73,0,0,1-3.46,0c0-1,1.73-3.1,1.73-3.1S174.77,85.89,174.77,86.85Z"/><path class="cls-2" d="M179.42,86.85a1.74,1.74,0,0,1-3.47,0c0-1,1.74-3.1,1.74-3.1S179.42,85.89,179.42,86.85Z"/><path class="cls-2" d="M127.45,42.65h0a.36.36,0,0,1-.28-.12,9.93,9.93,0,0,1-2.52-6.05,10,10,0,0,1,2.52-6.06.39.39,0,0,1,.55,0,10,10,0,0,1,2.53,6.06,9.91,9.91,0,0,1-2.53,6.05A.36.36,0,0,1,127.45,42.65Zm0-11.39a9,9,0,0,0-2,5.22,9,9,0,0,0,2,5.22,9.06,9.06,0,0,0,2-5.22A9.06,9.06,0,0,0,127.45,31.26Z"/><path class="cls-2" d="M124.15,42.65h0a7.72,7.72,0,0,1-4.73-1.94,7.78,7.78,0,0,1-2-4.73.39.39,0,0,1,.11-.28.34.34,0,0,1,.28-.11,7.72,7.72,0,0,1,4.73,1.94,7.78,7.78,0,0,1,2,4.74.38.38,0,0,1-.38.38Zm-5.9-6.27a6.82,6.82,0,0,0,1.69,3.8,6.72,6.72,0,0,0,3.8,1.68,6.79,6.79,0,0,0-1.69-3.79A6.68,6.68,0,0,0,118.25,36.38Z"/><path class="cls-2" d="M130.77,42.65a.38.38,0,0,1-.38-.38,7.78,7.78,0,0,1,2-4.74,7.72,7.72,0,0,1,4.73-1.94.4.4,0,0,1,.28.11.39.39,0,0,1,.11.28,7.78,7.78,0,0,1-2,4.73,7.72,7.72,0,0,1-4.73,1.94Zm5.9-6.27a6.75,6.75,0,0,0-3.8,1.69,6.82,6.82,0,0,0-1.69,3.79,6.72,6.72,0,0,0,3.8-1.68A6.82,6.82,0,0,0,136.67,36.38Z"/><path class="cls-2" d="M92.93,70.44l-.71,0a9.88,9.88,0,0,1-5.77-3.14.37.37,0,0,1,.06-.54,10,10,0,0,1,6.28-1.9A9.88,9.88,0,0,1,98.56,68a.37.37,0,0,1-.06.54A10.19,10.19,0,0,1,92.93,70.44Zm-5.62-3.35a9,9,0,0,0,5,2.57,8.88,8.88,0,0,0,5.39-1.51,9,9,0,0,0-5-2.57h0A8.94,8.94,0,0,0,87.31,67.09Z"/><path class="cls-2" d="M91.31,77.51H91a.38.38,0,0,1-.26-.14.32.32,0,0,1-.08-.28,6.64,6.64,0,0,1,7.32-6,.35.35,0,0,1,.27.13.43.43,0,0,1,.08.29,7.78,7.78,0,0,1-2.42,4.51A7.58,7.58,0,0,1,91.31,77.51Zm6.17-5.65a6.76,6.76,0,0,0-4,1.29h0a6.78,6.78,0,0,0-2.07,3.61,5.79,5.79,0,0,0,6-4.9Zm-4.19,1h0Z"/><path class="cls-2" d="M98.61,65.29h0a7.66,7.66,0,0,1-4.5-2.42A7.74,7.74,0,0,1,92.6,58a.4.4,0,0,1,.14-.27.38.38,0,0,1,.29-.08A7.8,7.8,0,0,1,97.54,60,7.73,7.73,0,0,1,99,64.94a.38.38,0,0,1-.14.26A.36.36,0,0,1,98.61,65.29Zm-5.26-6.85a6.76,6.76,0,0,0,1.29,4h0a6.8,6.8,0,0,0,3.6,2.07,5.79,5.79,0,0,0-4.89-6Z"/><path class="cls-2" d="M161.26,70.44a10.19,10.19,0,0,1-5.57-1.93.36.36,0,0,1-.14-.26.37.37,0,0,1,.09-.28,8.5,8.5,0,0,1,12-1.24.34.34,0,0,1,.15.26.37.37,0,0,1-.09.28A9.88,9.88,0,0,1,162,70.41C161.73,70.43,161.5,70.44,161.26,70.44Zm-4.76-2.29a7.66,7.66,0,0,0,10.38-1.06,7.66,7.66,0,0,0-10.38,1.06Z"/><path class="cls-2" d="M162.89,77.51a7.56,7.56,0,0,1-4.58-1.46,7.65,7.65,0,0,1-2.42-4.51.34.34,0,0,1,.08-.29.33.33,0,0,1,.26-.13,7.74,7.74,0,0,1,4.91,1.45h0a7.78,7.78,0,0,1,2.42,4.51.4.4,0,0,1-.08.28.42.42,0,0,1-.27.14Zm-6.18-5.65a6.82,6.82,0,0,0,2.07,3.61,6.91,6.91,0,0,0,3.95,1.29,5.79,5.79,0,0,0-6-4.9Z"/><path class="cls-2" d="M155.58,65.29a.36.36,0,0,1-.24-.09.33.33,0,0,1-.13-.26A7.73,7.73,0,0,1,156.66,60a7.78,7.78,0,0,1,4.51-2.42.4.4,0,0,1,.28.08.4.4,0,0,1,.14.27,7.7,7.7,0,0,1-1.45,4.9h0a7.65,7.65,0,0,1-4.51,2.42Zm5.27-6.85a5.79,5.79,0,0,0-4.9,6,6.82,6.82,0,0,0,3.61-2.07h0A6.76,6.76,0,0,0,160.85,58.44Z"/><path class="cls-3" d="M79.62,82.49l-.14,0a.38.38,0,0,1-.21-.49c2.78-7.16,1.84-13.12-2.87-18.22a.38.38,0,0,1-.09-.29.37.37,0,0,1,.16-.27C82,59.38,83.92,54,82.24,46.67a.37.37,0,0,1,.24-.43c8.75-3.21,14-8.56,14.73-15.08a.37.37,0,0,1,.33-.33c9.39-1,15.37-5.17,18.28-12.77a.38.38,0,0,1,.49-.21.37.37,0,0,1,.21.48c-3,7.81-9.08,12.13-18.6,13.21-.9,6.61-6.16,12-14.88,15.29,1.57,7.22-.38,12.85-5.8,16.74,4.6,5.2,5.52,11.48,2.73,18.68A.38.38,0,0,1,79.62,82.49Z"/><path class="cls-3" d="M174.17,82.49a.38.38,0,0,1-.35-.24c-2.79-7.2-1.87-13.48,2.73-18.68-5.41-3.89-7.36-9.52-5.8-16.74-8.71-3.27-14-8.68-14.88-15.29-9.52-1.08-15.61-5.4-18.6-13.21a.37.37,0,0,1,.22-.48.37.37,0,0,1,.48.21c2.91,7.6,8.89,11.78,18.28,12.77a.37.37,0,0,1,.33.33c.75,6.52,6,11.87,14.74,15.08a.35.35,0,0,1,.23.43c-1.67,7.31.21,12.71,5.77,16.53a.41.41,0,0,1,.17.27.38.38,0,0,1-.1.29c-4.71,5.1-5.64,11.06-2.87,18.22a.38.38,0,0,1-.21.49Z"/><path class="cls-2" d="M99.6,52.84a1.67,1.67,0,1,1-1.66-1.67A1.66,1.66,0,0,1,99.6,52.84Z"/><circle class="cls-2" cx="93.53" cy="50.81" r="1.18"/><path class="cls-2" d="M111.64,35.7a1.18,1.18,0,1,1-1.17-1.18A1.18,1.18,0,0,1,111.64,35.7Z"/><circle class="cls-2" cx="89.33" cy="48.83" r="0.9"/><path class="cls-2" d="M158.8,50.49A1.18,1.18,0,1,0,160,49.31,1.18,1.18,0,0,0,158.8,50.49Z"/><circle class="cls-2" cx="164.18" cy="48.51" r="0.9"/><circle class="cls-2" cx="108.62" cy="31.81" r="0.9"/><path class="cls-2" d="M142.6,35.7a1.18,1.18,0,1,0,1.18-1.18A1.18,1.18,0,0,0,142.6,35.7Z"/><circle class="cls-2" cx="145.62" cy="31.81" r="0.9"/><path class="cls-2" d="M156.72,52.84a1.66,1.66,0,1,1-1.66-1.67A1.66,1.66,0,0,1,156.72,52.84Z"/><path class="cls-2" d="M114.07,40.34a1.67,1.67,0,1,1-1.67-1.67A1.66,1.66,0,0,1,114.07,40.34Z"/><path class="cls-2" d="M142.91,40.34a1.67,1.67,0,1,1-1.67-1.67A1.66,1.66,0,0,1,142.91,40.34Z"/><path class="cls-3" d="M154,76.19a.38.38,0,0,1-.37-.37V70.94c0-14.37-11.93-26.07-26.6-26.07s-26.6,11.7-26.6,26.07v4.71a.37.37,0,0,1-.37.37.38.38,0,0,1-.38-.37V70.94C99.69,56.15,112,44.12,127,44.12s27.35,12,27.35,26.82v4.88A.38.38,0,0,1,154,76.19Z"/></g></g></svg>